<?xml version="1.0" encoding="utf-8"?>
<!DOCTYPE svg PUBLIC "-//W3C//DTD SVG 1.0//EN" "http://www.w3.org/TR/2001/REC-SVG-20010904/DTD/svg10.dtd">
<svg version="1.0" xmlns="http://www.w3.org/2000/svg" width="300px" height="300px" viewBox="0 0 300 300" preserveAspectRatio="xMidYMid meet">
 <g fill="#c80609">
  <path d="M127.73 299.27 c-28.51 -4.37 -54.02 -15.85 -75.59 -34.10 -4.54 -3.84 -12.98 -12.25 -16.79 -16.70 -19.51 -22.85 -31.38 -50.16 -34.92 -80.36 -0.67 -5.65 -0.50 -33.22 0.23 -38.32 3.63 -24.99 12.74 -47.87 26.84 -67.53 14.68 -20.48 34.25 -37.03 56.72 -47.93 13.51 -6.53 26.72 -10.63 43.68 -13.51 3.54 -0.59 4.95 -0.64 21.65 -0.76 19.16 -0.12 19.86 -0.09 28.04 1.41 26.16 4.78 49.22 15.62 70.11 32.99 4.57 3.78 13.56 12.71 17.55 17.40 18.05 21.18 29.24 45.38 34.01 73.42 l0.73 4.37 0 20.45 c0 16.76 -0.09 20.95 -0.44 23.44 -4.13 27.71 -15.12 52.32 -33.08 73.89 -3.75 4.51 -13.97 14.77 -18.34 18.37 -12.36 10.22 -24.79 17.72 -39.49 23.85 -9.38 3.90 -20.95 7.24 -32.14 9.26 l-5.27 0.97 -19.48 0.06 c-19.16 0.06 -19.54 0.03 -24.02 -0.64z m73.07 -53.03 c-0.03 -0.15 -1.85 -1.38 -4.07 -2.70 -5.39 -3.22 -8.99 -5.98 -13.07 -10.05 -7.94 -7.91 -13.33 -17.34 -16.70 -29.27 -0.47 -1.70 -0.85 -3.69 -0.85 -4.48 l0 -1.41 1.11 0 c1.05 0 1.41 0.26 4.48 3.31 6.94 6.80 14.27 10.90 23.26 13.04 2.96 0.70 3.75 0.76 9.38 0.76 5.77 0 6.33 -0.06 9.02 -0.79 5.04 -1.41 5.01 -1.38 5.04 -6.50 l0 -3.19 -0.91 -0.26 c-0.50 -0.15 -1.29 -0.56 -1.76 -0.94 -0.82 -0.67 -0.85 -0.73 -0.94 -3.93 l-0.12 -3.25 -9.64 0 c-10.25 0 -11.25 -0.12 -11.95 -1.41 -0.18 -0.35 -0.32 -2.17 -0.32 -4.13 0 -2.78 -0.09 -3.60 -0.47 -3.96 -0.41 -0.41 -2.02 -0.47 -13.42 -0.47 l-12.95 0 -1.17 1.67 c-0.70 1.03 -1.70 2.02 -2.58 2.58 -1.38 0.82 -1.61 0.88 -4.57 0.88 -2.96 0 -3.19 -0.06 -4.57 -0.88 -0.88 -0.56 -1.76 -1.44 -2.31 -2.31 -0.79 -1.32 -0.88 -1.73 -0.97 -4.34 -0.12 -2.67 -0.06 -3.02 0.67 -4.48 0.53 -1.14 1.20 -1.90 2.14 -2.58 1.38 -0.94 1.38 -0.94 5.07 -0.94 3.54 0 3.72 0.03 4.83 0.79 0.64 0.44 1.61 1.52 2.17 2.40 l1.03 1.61 13.42 0.03 13.39 0 0 -3.57 c0.03 -4.31 0.29 -5.71 1.32 -6.59 0.76 -0.67 0.91 -0.67 8.03 -0.67 8.12 0 8.06 0.03 7.88 -1.96 l-0.09 -1.11 -13.45 -0.09 c-8.79 -0.03 -13.56 0.03 -13.77 0.23 -0.15 0.15 -1.20 0.29 -2.29 0.29 -1.76 0 -2.11 -0.09 -2.72 -0.73 -0.62 -0.59 -0.73 -1 -0.73 -2.49 0 -1.61 0.09 -1.90 0.88 -2.70 0.85 -0.85 0.94 -0.88 2.87 -0.67 1.08 0.12 8.09 0.23 15.59 0.23 l13.62 0.06 0 -3.52 0 -3.52 -18.46 -0.09 -18.46 -0.06 -6.30 6.36 c-3.46 3.52 -6.62 6.62 -7.03 6.88 -0.67 0.47 -1.85 0.53 -13.65 0.53 l-12.92 0 -0.32 0.73 c-0.67 1.46 -2.99 3.60 -4.37 4.07 -3.08 1.05 -6.97 0.38 -8.96 -1.52 -1.67 -1.58 -2.11 -2.84 -2.11 -6.09 0 -2.78 0.06 -3.05 0.88 -4.39 0.56 -0.85 1.44 -1.76 2.29 -2.29 1.23 -0.76 1.73 -0.88 4.25 -0.97 3.96 -0.21 5.86 0.73 7.56 3.60 l0.76 1.29 11.46 0 11.48 0 6.27 -6.47 c3.46 -3.54 6.65 -6.65 7.09 -6.88 0.70 -0.35 3.96 -0.41 20.27 -0.41 20.30 0 20.74 -0.03 20.27 -1.23 -0.26 -0.64 -1.05 -0.82 -3.75 -0.82 -2.40 0 -3.75 -0.44 -4.19 -1.38 -0.15 -0.29 -0.32 -4.04 -0.41 -8.32 -0.15 -7.21 -0.21 -7.88 -0.70 -8.44 l-0.59 -0.64 -5.89 5.89 -5.86 5.86 -14.41 0 c-8.14 0 -14.71 0.12 -15.12 0.26 -0.38 0.15 -1 0.76 -1.38 1.32 -0.97 1.58 -2.87 2.58 -5.21 2.75 -2.46 0.15 -4.16 -0.29 -5.54 -1.49 -1.55 -1.35 -2.14 -2.84 -2.14 -5.51 0 -2.72 0.76 -4.37 2.58 -5.68 1.11 -0.76 1.52 -0.85 3.96 -0.97 2.37 -0.09 2.84 -0.03 4.01 0.59 0.73 0.38 1.70 1.23 2.20 1.90 l0.88 1.23 13.48 0 13.48 0.03 3.81 -3.46 c5.01 -4.54 7.65 -7.44 10.14 -11.16 2.43 -3.60 3.34 -5.36 4.78 -9.17 1.49 -4.01 2.46 -8.23 2.87 -12.57 1.32 -14.06 -5.68 -30.06 -17.49 -39.99 -6.88 -5.80 -15.85 -9.76 -25.40 -11.28 -3.52 -0.53 -12.51 -0.21 -16.35 0.62 -21.80 4.63 -37.53 21.42 -40.17 42.89 -1.29 10.63 2.52 23.32 9.58 31.99 0.67 0.79 1 1.52 1 2.14 0 0.82 -0.09 0.91 -0.88 0.91 -0.50 0 -2.17 -0.64 -3.75 -1.44 -11.28 -5.65 -23.47 -6.42 -35.60 -2.17 -16.82 5.83 -29.09 19.83 -32.58 37.12 -1.32 6.50 -1.26 12.30 0.18 18.78 4.72 21.30 22.62 37.18 45.18 40.14 6.09 0.79 11.19 0.50 17.61 -1.03 4.19 -1 7.68 -2.26 11.43 -4.10 6.42 -3.13 11.22 -6.65 16.08 -11.69 2.78 -2.93 2.84 -2.96 4.19 -2.96 l1.38 0 -0.18 1.85 c-0.12 1 -0.73 3.57 -1.38 5.74 -5.27 17.34 -14.12 29.21 -28.30 38 -1.82 1.11 -3.69 2.26 -4.22 2.52 -0.50 0.29 -0.82 0.64 -0.73 0.82 0.23 0.41 94.63 0.26 94.60 -0.15z m30.88 -52.56 c0.03 -3.05 -0.06 -5.54 -0.21 -5.68 -0.15 -0.15 -2.40 -0.18 -5.57 -0.06 l-5.30 0.23 0 5.33 c0 2.93 0.09 5.42 0.21 5.54 0.12 0.09 2.58 0.15 5.48 0.12 l5.30 -0.09 0.09 -5.39z m-17.29 -10.20 l0.06 -8 -8.06 0 c-4.42 0 -8.06 0.03 -8.09 0.09 0 0.03 -0.09 3.43 -0.18 7.56 -0.12 6.74 -0.09 7.53 0.35 8 0.44 0.44 1.29 0.47 8.14 0.41 l7.68 -0.09 0.09 -7.97z m-55.28 1.99 c0.47 -0.47 0.85 -1.17 0.85 -1.55 0 -0.79 -0.76 -1.79 -1.67 -2.26 -0.88 -0.44 -2.26 0.23 -2.84 1.41 -0.38 0.73 -0.38 0.91 0.12 1.70 1.05 1.76 2.26 1.99 3.54 0.70z m63.25 -4.10 c0 -0.73 -1.26 -6.65 -1.49 -7.06 -0.15 -0.26 -0.26 1.03 -0.26 3.46 l0 3.87 0.88 0 c0.50 0 0.88 -0.12 0.88 -0.26z m22.12 -2.43 c0.09 -0.38 0.15 -1.93 0.09 -3.46 l-0.09 -2.78 -3.43 -0.09 -3.46 -0.09 0 3.54 0 3.52 3.37 0 c3.25 0 3.37 -0.03 3.52 -0.64z m-118.83 -11.81 c0.47 -0.23 1 -0.82 1.20 -1.29 0.29 -0.76 0.29 -1.03 -0.12 -1.64 -0.76 -1.17 -1.76 -1.49 -2.64 -0.91 -1.85 1.20 -1.93 2.37 -0.29 3.66 0.94 0.73 0.82 0.73 1.85 0.18z m106.32 -7.68 l-0.09 -8.14 -3.96 -0.09 c-2.17 -0.06 -5.83 0 -8.12 0.09 l-4.19 0.21 0 7.82 c0 4.31 0.09 7.94 0.21 8.03 0.09 0.12 3.78 0.21 8.20 0.21 l8 0 -0.06 -8.12z m17.05 -15.18 l0 -5.42 -5.13 0 -5.13 0 0 5.42 0 5.42 5.13 0 5.13 0 0 -5.42z m-26.07 -10.99 l0 -7.91 -7.97 0.06 -8 0.09 -0.09 6.88 c-0.06 3.78 0 7.32 0.09 7.85 l0.18 0.94 7.88 0 7.91 0 0 -7.91z m13.42 -13.97 l0.09 -3.60 -3.54 0 -3.52 0 0 3.66 0 3.69 3.46 -0.09 3.43 -0.09 0.09 -3.57z"/>
 </g>
 <g fill="#ffffff">
  <path d="M0 150 l0 -150 72.45 0.03 c39.81 0.03 72.22 0.09 71.98 0.15 -0.23 0.06 -3.02 0.29 -6.15 0.56 -11.22 0.91 -22 3.02 -33.11 6.50 -22 6.88 -42.63 19.25 -59.41 35.65 -21.83 21.30 -36.50 48.37 -42.54 78.40 -3.22 16.11 -3.75 31.96 -1.61 48.31 3.78 29 15.67 55.75 34.63 77.99 3.81 4.45 12.25 12.86 16.79 16.70 15.06 12.74 31.99 22.15 50.98 28.33 10.90 3.57 21.56 5.68 35.45 7.06 1.41 0.15 -28.01 0.26 -68.47 0.29 l-70.99 0.03 0 -150z"/>
  <path d="M167.26 299.59 c0.21 -0.23 1.46 -0.56 2.90 -0.76 26.07 -3.60 50.01 -13.39 70.81 -28.95 10.37 -7.76 21.83 -19.22 29.77 -29.79 13.24 -17.58 22.71 -38.96 26.75 -60.50 0.88 -4.66 1.93 -11.69 1.93 -12.92 0 -0.47 0.15 -0.85 0.29 -0.85 0.21 0 0.29 22.56 0.29 67.09 l0 67.09 -66.53 0 c-57.07 0 -66.50 -0.06 -66.21 -0.41z"/>
  <path d="M105.23 247.21 c-0.50 -0.50 -0.44 -1.55 0.18 -2.05 0.26 -0.23 1.29 -0.88 2.26 -1.41 0.97 -0.53 2.99 -1.79 4.54 -2.81 13.04 -8.61 21.68 -20.77 26.46 -37.18 1.44 -4.89 1.52 -5.42 0.97 -5.42 -0.26 0 -1.76 1.32 -3.31 2.96 -12.30 12.83 -29.68 19.04 -46.88 16.82 -27.57 -3.60 -47.46 -26.40 -46.29 -53.06 1 -22.41 16.79 -41.19 38.88 -46.29 1.70 -0.38 5.04 -0.85 7.41 -1.05 8.82 -0.67 16.79 0.88 24.67 4.80 l2.90 1.46 -1.03 -1.26 c-3.22 -3.93 -5.86 -8.82 -7.59 -14 -1.49 -4.42 -2.08 -7.71 -2.26 -12.83 -0.85 -21.59 13.18 -41.37 34.19 -48.25 5.68 -1.85 8.53 -2.29 15.62 -2.46 6.86 -0.15 8.73 0.03 13.74 1.29 12.51 3.13 22.59 10.17 29.68 20.77 8.79 13.13 10.69 29.09 5.24 43.71 -1.44 3.84 -2.34 5.60 -4.78 9.20 -2.49 3.72 -5.13 6.62 -10.14 11.16 l-3.81 3.46 -14.36 -0.03 -14.36 0 -0.88 -1.23 c-1.32 -1.85 -3.05 -2.64 -5.39 -2.46 -2.29 0.18 -3.90 1.20 -4.92 3.11 -2.20 4.19 1.52 9.43 6.21 8.67 1.64 -0.26 3.49 -1.41 4.25 -2.67 0.38 -0.56 1 -1.17 1.38 -1.32 0.41 -0.15 6.97 -0.26 15.12 -0.26 l14.38 0 6.18 -6.15 c3.40 -3.37 6.33 -6.15 6.47 -6.15 0.18 0 0.67 0.41 1.17 0.91 l0.85 0.88 0.15 7.82 c0.15 8.03 0.26 8.79 1.38 9.32 0.29 0.12 1.88 0.29 3.54 0.41 3.34 0.18 3.57 0.29 3.57 2.11 0 0.79 -0.15 1.17 -0.56 1.41 -0.38 0.18 -7.15 0.29 -19.95 0.29 -16.23 0 -19.48 0.06 -20.19 0.41 -0.44 0.23 -3.63 3.34 -7.09 6.88 l-6.27 6.47 -12.36 0 -12.33 0 -0.76 -1.29 c-1.58 -2.70 -3.69 -3.84 -6.74 -3.57 -2.58 0.21 -4.34 1.20 -5.60 3.22 -0.76 1.26 -0.88 1.73 -0.88 3.52 0.03 3.16 1.38 5.30 4.25 6.59 2.67 1.23 5.60 0.56 7.73 -1.73 0.73 -0.79 1.49 -1.79 1.70 -2.20 l0.32 -0.73 12.92 0 c11.81 0 12.98 -0.06 13.65 -0.53 0.41 -0.26 3.57 -3.37 7.03 -6.88 l6.30 -6.36 19.34 0.06 19.34 0.09 0 4.39 0 4.39 -14.50 -0.03 c-7.97 -0.03 -15 -0.12 -15.59 -0.26 -0.97 -0.18 -1.20 -0.12 -1.99 0.67 -1.70 1.73 -0.73 4.16 1.70 4.16 0.62 0 1.26 -0.15 1.41 -0.29 0.21 -0.21 5.27 -0.26 14.65 -0.23 l14.33 0.09 0.09 1.99 c0.06 1.23 -0.06 2.17 -0.26 2.43 -0.26 0.32 -1.70 0.41 -7.62 0.41 -7.12 0 -7.27 0 -8.03 0.67 -1.03 0.88 -1.29 2.29 -1.32 6.59 l0 3.57 -14.27 0 -14.30 -0.03 -1.03 -1.61 c-0.56 -0.88 -1.52 -1.96 -2.17 -2.40 -1.05 -0.73 -1.38 -0.79 -3.96 -0.79 -2.70 0 -2.87 0.03 -4.19 0.94 -2.02 1.41 -2.99 3.52 -2.81 6.21 0.15 2.58 1.23 4.45 3.28 5.74 1.29 0.79 1.70 0.88 3.69 0.88 1.99 0 2.40 -0.09 3.69 -0.88 0.88 -0.56 1.88 -1.55 2.58 -2.58 l1.17 -1.67 13.83 0 c12.19 0 13.89 0.06 14.30 0.47 0.38 0.35 0.47 1.17 0.47 3.96 0 1.96 0.15 3.78 0.32 4.13 0.70 1.29 1.70 1.41 11.95 1.41 l9.64 0 0.12 3.25 c0.09 3.19 0.12 3.25 0.94 3.93 0.47 0.38 1.26 0.79 1.76 0.94 l0.91 0.26 0 4.07 c0 2.26 -0.12 4.45 -0.23 4.89 -0.26 1.03 -1.17 1.49 -4.80 2.49 -2.75 0.76 -3.16 0.79 -9.90 0.79 -6.59 0.03 -7.24 -0.03 -10.25 -0.76 -8.99 -2.14 -16.35 -6.24 -23.26 -13.04 -1.85 -1.82 -3.46 -3.31 -3.60 -3.31 -0.41 0 -0.26 0.97 0.62 4.13 4.92 17.49 14.77 30.53 29.71 39.26 1.96 1.17 3.81 2.31 4.10 2.55 0.59 0.50 0.64 1.55 0.15 2.05 -0.50 0.50 -96.06 0.50 -96.56 0z"/>
  <path d="M219.93 199.92 c-0.12 -0.12 -0.21 -3.02 -0.21 -6.45 l0 -6.21 5.65 -0.21 c3.08 -0.12 5.95 -0.18 6.36 -0.12 l0.73 0.12 0 6.45 0 6.45 -6.18 0.09 c-3.37 0.03 -6.24 -0.03 -6.36 -0.12z"/>
  <path d="M197.61 192.01 c-0.41 -0.41 -0.44 -1.49 -0.41 -8.58 0.03 -4.45 0.12 -8.26 0.18 -8.44 0.12 -0.29 2.20 -0.38 9.05 -0.38 l8.88 0 0.09 8.29 c0.06 4.54 0 8.55 -0.12 8.94 l-0.23 0.64 -8.47 0 c-7.38 0 -8.55 -0.06 -8.96 -0.47z"/>
  <path d="M155.63 186.74 c-2.05 -1.44 -1.93 -4.72 0.23 -5.83 3.63 -1.88 6.97 2.58 4.10 5.48 -0.67 0.67 -1.08 0.82 -2.26 0.82 -0.82 0 -1.70 -0.21 -2.08 -0.47z"/>
  <path d="M219.73 177.54 c0 -4.78 0.03 -4.98 0.59 -4.98 1.14 0 1.67 0.97 2.29 4.42 0.35 1.85 0.67 3.81 0.70 4.37 l0.09 1.03 -1.82 0.09 -1.85 0.09 0 -5.01z"/>
  <path d="M236.72 176.07 l0 -4.42 4.34 0.09 4.31 0.09 0.09 3.66 c0.12 5.45 0.53 4.98 -4.48 4.98 l-4.25 0 0 -4.39z"/>
  <path d="M122.58 167.46 c-0.82 -0.82 -1 -1.23 -1 -2.23 0 -1 0.18 -1.41 1 -2.23 0.85 -0.85 1.20 -1 2.37 -1 1.85 0 3.08 1.14 3.08 2.90 0 2.31 -1.17 3.54 -3.40 3.54 -0.82 0 -1.29 -0.23 -2.05 -1z"/>
  <path d="M214.95 168.25 c-0.12 -0.09 -0.21 -4.10 -0.21 -8.91 l0 -8.70 4.19 -0.21 c2.29 -0.09 6.33 -0.15 8.99 -0.09 l4.83 0.09 0.09 9.02 0.06 8.99 -8.88 0 c-4.89 0 -8.99 -0.09 -9.08 -0.21z"/>
  <path d="M237.89 144.29 l0 -6.30 6.01 0 6.01 0 0 6.30 0 6.30 -6.01 0 -6.01 0 0 -6.30z"/>
  <path d="M206.10 141.15 c-0.09 -0.53 -0.15 -4.45 -0.09 -8.73 l0.09 -7.76 8.88 -0.09 8.85 -0.06 0 8.79 0 8.79 -8.79 0 -8.76 0 -0.18 -0.94z"/>
  <path d="M299.44 134.12 c-1.88 -19.25 -8.58 -40.20 -18.57 -57.95 -6.47 -11.51 -14.50 -21.94 -24.79 -32.23 -22.06 -22.03 -49.34 -36.27 -80.01 -41.72 -4.34 -0.79 -11.10 -1.64 -12.80 -1.64 -0.53 0 -0.97 -0.12 -0.97 -0.29 0 -0.21 23.14 -0.29 68.85 -0.29 l68.85 0 0 68.99 c0 37.94 -0.03 68.99 -0.09 68.99 -0.06 0 -0.26 -1.76 -0.47 -3.87z"/>
  <path d="M228.52 119.38 l0 -4.54 4.39 0 4.42 0 -0.09 4.48 -0.09 4.45 -4.31 0.09 -4.34 0.09 0 -4.57z"/>
 </g>
</svg>
