<svg id="Layer_1" data-name="Layer 1" xmlns="http://www.w3.org/2000/svg" viewBox="0 0 551.67 676.71"><defs><style>.cls-1{fill:#46beae;}.cls-2{fill:#fff;}</style></defs><title>liquid_new</title><g id="ToW2Wx"><path class="cls-1" d="M258.53,664.27c-105.37-4.62-203.09-78.48-233-179C2.35,407.53,14.81,332.9,52.26,261.86c27.26-51.72,66.58-93.9,107.61-134.61,35.79-35.52,73.27-69.38,106.25-107.69,5.26-6.11,9.72-13,18.3-2.81C326,66.39,375.86,108,420.21,155c41.29,43.77,77.72,90.73,99,147.76,47.85,128.54,7.52,267.52-123.6,335C353.25,659.54,314.34,667.66,258.53,664.27Z"/></g><path class="cls-2" d="M387.2,364.45c4-27.7-15.13-57-52.21-69.69l9.73-39.24-29.37-7.28-9.41,38c-7.72-1.91-15.65-3.72-23.53-5.5l9.5-38.29-29.35-7.28-9.74,39.23L199.6,261.3l-7.77,31.36s21.79,5,21.33,5.27c11.89,3,14.05,10.82,13.7,17.06L194.08,447.12c-1.45,3.61-5.13,9-13.44,7,.29.42-21.35-5.3-21.35-5.3l-14.53,33.62,53.15,13.37-10.6,42.79,29.33,7.28,10.49-42.28q12,3.25,23.4,6l-10.45,42.06L269.45,559l10.6-42.71c50.07,9.41,88.15-3.57,97.5-41.24,7.63-30.74.75-53.21-21.06-69.67C370.77,400.84,384,386.07,387.2,364.45ZM327,456.34c-9,36.46-70.43,16.83-90.34,11.92l16-64.65C272.57,408.55,336.39,418.31,327,456.34Zm9-94.6c-8.28,33.17-59.39,16.39-76,12.27l14.54-58.63c16.61,4.12,70,11.76,61.46,46.36Z"/></svg>