<?xml version="1.0" encoding="UTF-8"?>
<svg width="22px" height="22px" viewBox="0 0 22 22" version="1.1" xmlns="http://www.w3.org/2000/svg" xmlns:xlink="http://www.w3.org/1999/xlink">
    <!-- Generator: Sketch 51.1 (57501) - http://www.bohemiancoding.com/sketch -->
    <title>search_liquid</title>
    <desc>Created with Sketch.</desc>
    <defs></defs>
    <g id="search_liquid" stroke="none" stroke-width="1" fill="none" fill-rule="evenodd">
        <path d="M3.7179999,13.6023 C0.993666641,10.8779289 0.993666641,6.44364505 3.7179999,3.71927388 C6.44233317,0.993680468 10.8765553,0.993680468 13.6008885,3.71927388 C16.326444,6.44364505 16.326444,10.8779289 13.6008885,13.6023 C10.8765553,16.3266712 6.44233317,16.3266712 3.7179999,13.6023 M21.6308883,19.8552758 L15.6028885,13.827192 C18.1279995,10.4367005 17.8627773,5.60885568 14.7864441,2.53370186 C11.4082219,-0.844567286 5.91188874,-0.844567286 2.5336666,2.53370186 C-0.844555534,5.911971 -0.844555534,11.4083807 2.5336666,14.7866498 C5.60877763,17.8618036 10.4353331,18.1282518 13.8257774,15.6031056 L19.8549995,21.6324116 C20.3451106,22.1225295 21.1407772,22.1225295 21.6321106,21.6324116 C22.1234439,21.1410714 22.1222216,20.3466159 21.6308883,19.8552758" id="Fill-17" fill="#48B7A9"></path>
    </g>
</svg>