<svg xmlns="http://www.w3.org/2000/svg" width="167" height="32" viewBox="0 0 167 32" fill="none">
  <g clip-path="url(#clip0_663_31)">
    <path fill-rule="evenodd" clip-rule="evenodd" d="M0.0791016 22.1763L18.7505 0.75L37.4243 22.1763L26.0316 31.75H11.484L0.0791016 22.1763ZM18.7529 27.9525H18.955C22.699 27.8467 25.9391 24.9648 25.9318 21.278C25.9318 20.0475 25.3524 18.3346 24.7657 17.3403C24.4428 16.7201 22.4921 13.2557 18.9136 6.94705C18.86 6.79446 18.6361 6.79446 18.5849 6.94705C18.5849 6.94705 13.3462 16.1639 12.7328 17.3477C12.1461 18.3419 11.5667 20.0549 11.5667 21.2854C11.5667 24.9648 14.8069 27.8492 18.5557 27.955H18.7505L18.7529 27.9525Z" fill="white"/>
    <path d="M76.5199 28.7376H71.1424L63.4645 13.8086L55.7866 28.7376H50.4019L63.467 3.71069L76.5223 28.7376H76.5199Z" fill="white"/>
    <path d="M102.497 25.1322C103.283 24.3692 103.96 23.5004 104.529 22.5259C105.654 20.6013 106.216 18.4552 106.216 16.0876C106.216 13.72 105.649 11.569 104.512 9.63215C103.375 7.69527 101.827 6.16939 99.8652 5.05451C97.9031 3.93963 95.7049 3.38342 93.273 3.38342C90.8411 3.38342 88.6721 3.93963 86.6978 5.05451C84.7236 6.16693 83.1705 7.69281 82.0336 9.63215C80.8968 11.569 80.3296 13.7225 80.3296 16.0876C80.3296 18.4527 80.8968 20.6013 82.0336 22.5259C83.1705 24.4529 84.7236 25.9665 86.6978 27.0666C88.638 28.1495 90.8021 28.7007 93.1878 28.718L108.071 28.7352V25.1297H102.499L102.497 25.1322ZM100.148 20.0131C99.4538 21.1919 98.5019 22.1173 97.2945 22.7916C96.1065 23.4537 94.7847 23.7909 93.3241 23.8007H93.2194C91.7612 23.7884 90.437 23.4537 89.249 22.7892C88.0416 22.1148 87.0897 21.1895 86.396 20.0106C85.7022 18.8317 85.3541 17.52 85.3541 16.0728C85.3541 14.6257 85.7022 13.309 86.396 12.1228C87.0897 10.939 88.0416 10.0038 89.249 9.32205C90.4564 8.64033 91.7978 8.3007 93.2705 8.3007C94.7457 8.3007 96.0846 8.64033 97.2921 9.32205C98.4995 10.0038 99.4513 10.9365 100.145 12.1228C100.839 13.309 101.187 14.6233 101.187 16.0728C101.187 17.5224 100.839 18.8342 100.145 20.0106L100.148 20.0131Z" fill="white"/>
    <path d="M135.767 3.75757V18.3839C135.767 20.4857 135.317 22.3512 134.418 23.9804C133.52 25.6097 132.252 26.8722 130.618 27.7705C128.982 28.6688 127.127 29.1167 125.048 29.1167C122.97 29.1167 121.083 28.6688 119.462 27.7705C117.838 26.8747 116.577 25.6047 115.679 23.9632C114.78 22.3216 114.33 20.4635 114.33 18.3863V3.75757H119.445V18.3839C119.445 19.5652 119.678 20.6087 120.146 21.5193C120.613 22.4275 121.268 23.1313 122.108 23.626C122.948 24.1207 123.929 24.3693 125.051 24.3693C126.173 24.3693 127.123 24.1207 127.977 23.626C128.829 23.1289 129.489 22.4275 129.956 21.5193C130.424 20.6112 130.657 19.5652 130.657 18.3839V3.75757H135.772H135.767Z" fill="white"/>
    <path d="M166.079 28.7376H160.702L153.024 13.8086L145.346 28.7376H139.961L153.027 3.71069L166.082 28.7376H166.079Z" fill="white"/>
  </g>
  <defs>
    <clipPath id="clip0_663_31">
      <rect width="166" height="31" fill="white" transform="translate(0.0791016 0.75)"/>
    </clipPath>
  </defs>
</svg>