<svg width="167" height="31" viewBox="0 0 167 31" fill="none" xmlns="http://www.w3.org/2000/svg">
<g clip-path="url(#clip0_1144_1596)">
<path fill-rule="evenodd" clip-rule="evenodd" d="M0.98291 21.4263L19.6543 0L38.3281 21.4263L26.9354 31H12.3878L0.98291 21.4263ZM19.6567 27.2025H19.8588C23.6028 27.0967 26.8429 24.2148 26.8356 20.528C26.8356 19.2975 26.2562 17.5846 25.6695 16.5903C25.3466 15.9701 23.3959 12.5057 19.8174 6.19705C19.7638 6.04446 19.5399 6.04446 19.4888 6.19705C19.4888 6.19705 14.2501 15.4139 13.6366 16.5977C13.0499 17.5919 12.4706 19.3049 12.4706 20.5354C12.4706 24.2148 15.7107 27.0992 19.4595 27.205H19.6543L19.6567 27.2025Z" fill="#0C0C0F"/>
<path d="M77.4237 27.9876H72.0462L64.3683 13.0586L56.6904 27.9876H51.3057L64.3708 2.96069L77.4261 27.9876H77.4237Z" fill="#0C0C0F"/>
<path d="M103.4 24.382C104.187 23.6191 104.864 22.7503 105.433 21.7757C106.558 19.8511 107.12 17.7051 107.12 15.3375C107.12 12.9699 106.553 10.8189 105.416 8.88203C104.279 6.94515 102.731 5.41926 100.769 4.30439C98.8069 3.18951 96.6087 2.6333 94.1768 2.6333C91.7449 2.6333 89.5759 3.18951 87.6016 4.30439C85.6274 5.4168 84.0743 6.94268 82.9374 8.88203C81.8006 10.8189 81.2334 12.9724 81.2334 15.3375C81.2334 17.7026 81.8006 19.8511 82.9374 21.7757C84.0743 23.7028 85.6274 25.2163 87.6016 26.3165C89.5418 27.3993 91.7059 27.9506 94.0916 27.9679L108.975 27.9851V24.3796H103.403L103.4 24.382ZM101.051 19.2629C100.358 20.4418 99.4057 21.3672 98.1983 22.0415C97.0103 22.7036 95.6885 23.0407 94.2279 23.0506H94.1232C92.665 23.0383 91.3408 22.7036 90.1528 22.0391C88.9454 21.3647 87.9936 20.4394 87.2998 19.2605C86.606 18.0816 86.2579 16.7699 86.2579 15.3227C86.2579 13.8756 86.606 12.5589 87.2998 11.3727C87.9936 10.1889 88.9454 9.25366 90.1528 8.57193C91.3602 7.89021 92.7016 7.55058 94.1743 7.55058C95.6496 7.55058 96.9884 7.89021 98.1959 8.57193C99.4033 9.25366 100.355 10.1864 101.049 11.3727C101.743 12.5589 102.091 13.8731 102.091 15.3227C102.091 16.7723 101.743 18.0841 101.049 19.2605L101.051 19.2629Z" fill="#0C0C0F"/>
<path d="M136.671 3.00732V17.6336C136.671 19.7354 136.22 21.6009 135.322 23.2302C134.424 24.8594 133.155 26.122 131.522 27.0203C129.886 27.9186 128.031 28.3665 125.952 28.3665C123.873 28.3665 121.987 27.9186 120.365 27.0203C118.742 26.1244 117.481 24.8545 116.583 23.2129C115.684 21.5714 115.234 19.7133 115.234 17.6361V3.00732H120.348V17.6336C120.348 18.815 120.582 19.8585 121.05 20.7691C121.517 21.6772 122.172 22.3811 123.012 22.8758C123.851 23.3705 124.832 23.619 125.955 23.619C127.077 23.619 128.026 23.3705 128.881 22.8758C129.733 22.3786 130.393 21.6772 130.86 20.7691C131.327 19.8609 131.561 18.815 131.561 17.6336V3.00732H136.676H136.671Z" fill="#0C0C0F"/>
<path d="M166.983 27.9876H161.606L153.928 13.0586L146.25 27.9876H140.865L153.93 2.96069L166.985 27.9876H166.983Z" fill="#0C0C0F"/>
</g>
<defs>
<clipPath id="clip0_1144_1596">
<rect width="166" height="31" fill="white" transform="translate(0.98291)"/>
</clipPath>
</defs>
</svg>
