<svg width="153" height="51" viewBox="0 0 153 51" fill="none" xmlns="http://www.w3.org/2000/svg">
<path d="M108.895 43.6279H99.9416H99.8675V43.5718V38.7863V38.7115H99.9416H107.56V35.4401H99.9416H99.8675V35.3653V30.7667V30.6919H99.9416H108.895V27.4019H96.1973V46.918H108.895V43.6279Z" fill="#151518"/>
<path d="M130.137 43.6279H121.165H121.091V43.5718V38.7863V38.7115H121.165H128.802V35.4401H121.165H121.091V35.3653V30.7667V30.6919H121.165H130.137V27.4019H117.421V46.918H130.137V43.6279Z" fill="#151518"/>
<path d="M152.399 46.8248V27.4021H148.729V37.7584V37.9266L148.618 37.8144L137.626 27.4956V46.9182H141.296V36.5246V36.375L141.407 36.4685L152.399 46.8248Z" fill="#151518"/>
<path d="M57.0669 46.8619C57.3079 46.918 57.5488 46.9554 57.8083 46.9928L57.864 47.0115C58.2532 47.0676 58.6054 47.0863 58.9205 47.0863C59.1986 47.0863 59.4952 47.0676 59.7917 47.0489C59.8103 47.0489 59.8103 47.0489 59.8288 47.0489C59.8474 47.0489 59.8474 47.0489 59.8474 47.0489C59.8659 47.0489 59.8844 47.0489 59.8844 47.0302C59.903 47.0302 59.9215 47.0115 59.9586 47.0115C61.9605 46.8432 63.6659 46.0768 64.9634 44.7496C66.2795 43.4036 66.7985 41.7399 66.7985 38.805V36.0009H59.5693V39.0667H63.0912H63.1654V39.1415V39.8892C63.1654 41.0482 62.8688 41.9455 62.2756 42.5624C61.5156 43.3475 60.6259 43.5719 59.9215 43.684C59.6435 43.7214 59.3654 43.7588 59.1059 43.7588C56.6962 43.7588 54.2864 41.7212 54.2864 37.16C54.2864 33.8699 55.7323 30.5424 58.9761 30.5424C59.1986 30.5424 59.4396 30.5611 59.6805 30.5798C60.9966 30.8041 62.5351 31.6827 63.0356 33.1595L66.1127 31.3462C65.7605 30.6359 64.0551 27.7197 59.8659 27.2897L59.8103 27.271H59.7917C59.4581 27.2336 59.18 27.2336 58.8835 27.2336C58.2718 27.2336 57.623 27.3084 57.0298 27.458L56.9371 27.4767L56.9001 27.4954C56.7703 27.5327 56.6591 27.5701 56.5479 27.5888C52.785 28.6731 50.505 32.337 50.5977 37.1786C50.5977 42.0764 52.9333 45.7403 56.6962 46.7685V46.8059H56.7147L56.7332 46.7685C56.863 46.8059 56.9742 46.8246 57.0669 46.8619Z" fill="#151518"/>
<path d="M84.1671 46.9181H88.3007L83.4071 38.7303L83.5369 38.6929C83.9632 38.5995 84.3339 38.506 84.6861 38.3938C86.8734 37.59 88.1895 35.702 88.1895 33.3092C88.1895 29.8135 85.6315 27.3833 81.9427 27.3833H74.3799V46.8994H77.9945V39.0294H79.5701L84.1671 46.9181ZM78.0316 30.636H81.7388C83.4256 30.636 84.612 31.7576 84.612 33.3466C84.612 34.9355 83.4256 36.0571 81.7388 36.0571H78.0316V30.636Z" fill="#151518"/>
<path d="M57.4562 15.0829C57.8825 15.4568 58.0864 16.0176 58.0864 16.7654C58.0864 17.8122 57.7157 18.56 56.9928 18.9899C56.2513 19.4386 55.2504 19.6442 53.9157 19.6442H50.9128V9.60571H53.5265C56.2699 9.60571 57.6416 10.4656 57.6416 12.1667C57.6601 12.7089 57.4747 13.2323 57.104 13.6061C56.7518 13.98 56.2884 14.223 55.7879 14.3165C56.4181 14.4474 56.9928 14.7091 57.4562 15.0829ZM52.8221 13.7557H53.9899C54.4348 13.7744 54.8796 13.6622 55.2504 13.4005C55.5655 13.1575 55.7323 12.7462 55.7138 12.335C55.7508 11.9424 55.5655 11.5312 55.2318 11.3255C54.7499 11.1012 54.2309 11.0077 53.7118 11.0451H52.8221V13.7557ZM55.5469 17.9057C55.9177 17.6814 56.103 17.2888 56.103 16.6906C56.1401 16.2046 55.9362 15.7372 55.5655 15.4568C55.1391 15.1764 54.6387 15.0456 54.1382 15.0829H52.8221V18.2235H53.9343C54.4718 18.2609 55.0279 18.1674 55.5469 17.9057Z" fill="#0C0C0F"/>
<path d="M61.5713 18.2609C61.6454 18.3544 61.7752 18.4105 61.9049 18.3918C62.0532 18.3918 62.2015 18.3731 62.3313 18.317L62.7205 19.6256C62.2942 19.7938 61.8679 19.8873 61.4044 19.8873C60.904 19.9247 60.4406 19.7377 60.0884 19.3825C59.7547 18.9713 59.5879 18.4479 59.625 17.9244V8.91413L61.4786 8.7085V17.8123C61.4601 17.9618 61.4971 18.1114 61.5713 18.2609Z" fill="#0C0C0F"/>
<path d="M69.542 12.8399C70.1723 13.5502 70.4874 14.541 70.4874 15.8122C70.5059 16.5412 70.3576 17.2703 70.061 17.9432C69.783 18.5414 69.3566 19.0275 68.8191 19.3826C68.2445 19.7378 67.5772 19.9061 66.8913 19.8874C65.7606 19.8874 64.8894 19.5322 64.2591 18.8031C63.6289 18.0928 63.2952 17.0833 63.2952 15.8122C63.2767 15.0831 63.425 14.3541 63.7216 13.6998C63.9996 13.1016 64.426 12.6156 64.9635 12.2791C65.5567 11.9239 66.224 11.7557 66.8913 11.7744C68.0406 11.7744 68.9118 12.1108 69.542 12.8399ZM65.2416 15.8122C65.2416 16.7282 65.3713 17.4011 65.6494 17.8311C65.9274 18.261 66.3908 18.5041 66.8728 18.4854C67.3733 18.5041 67.8367 18.261 68.0962 17.8311C68.3742 17.4011 68.5225 16.7282 68.5225 15.8309C68.5225 14.9336 68.3928 14.2606 68.0962 13.8306C67.8367 13.4007 67.3733 13.1577 66.8728 13.1764C65.7977 13.1764 65.2416 14.055 65.2416 15.8122Z" fill="#0C0C0F"/>
<path d="M76.6415 11.9796C77.0678 12.1478 77.4385 12.3722 77.7722 12.6713L76.9381 13.8116C76.7156 13.6246 76.4561 13.4938 76.1966 13.3816C75.9556 13.2881 75.6776 13.2508 75.3995 13.2508C74.2503 13.2508 73.6757 14.1294 73.6757 15.8866C73.6757 16.7652 73.8239 17.4194 74.1205 17.812C74.4171 18.2046 74.8991 18.4102 75.3995 18.3915C75.659 18.3915 75.9186 18.3541 76.1595 18.2606C76.4376 18.1298 76.6785 17.9802 76.9195 17.812L77.7722 19.0271C77.0864 19.6066 76.1966 19.9244 75.3069 19.9057C74.6395 19.9244 73.9908 19.7561 73.3976 19.4196C72.8601 19.0832 72.4337 18.6158 72.1557 18.0363C71.8591 17.3633 71.7108 16.653 71.7293 15.9052C71.7108 15.1575 71.8591 14.4284 72.1557 13.7555C72.4152 13.1573 72.8415 12.6713 73.3976 12.3161C73.9537 11.9609 74.621 11.774 75.2883 11.8113C75.7517 11.7553 76.1966 11.83 76.6415 11.9796Z" fill="#0C0C0F"/>
<path d="M79.1067 19.6628V8.89533L80.9603 8.6897V19.6815H79.1067V19.6628ZM85.7798 19.6628H83.6666L81.0345 15.4568L83.5925 11.9798H85.5388L82.9993 15.3633L85.7798 19.6628Z" fill="#0C0C0F"/>
<path d="M91.9338 12.6717L91.2109 13.7933C90.6733 13.382 90.006 13.1577 89.3387 13.139C89.0421 13.1203 88.727 13.1951 88.4675 13.3633C88.2821 13.4755 88.1523 13.6998 88.1709 13.9241C88.1709 14.0924 88.208 14.2232 88.3006 14.3541C88.4304 14.5036 88.5972 14.6158 88.7826 14.6906C89.1162 14.8214 89.4314 14.9336 89.7835 15.027C90.4694 15.1766 91.0811 15.4757 91.6186 15.9056C92.0264 16.2982 92.2489 16.8777 92.2118 17.4572C92.2304 18.1676 91.8782 18.8592 91.285 19.2518C90.5991 19.7005 89.8021 19.9435 88.9865 19.9061C88.3933 19.9248 87.8187 19.8126 87.2626 19.6257C86.7806 19.4387 86.3172 19.177 85.928 18.8219L86.8733 17.7563C87.448 18.2424 88.1709 18.5228 88.9309 18.5228C89.2831 18.5414 89.6167 18.448 89.9318 18.2797C90.1543 18.1489 90.3026 17.8872 90.3026 17.6255C90.3211 17.4385 90.2655 17.2516 90.1728 17.0833C90.0431 16.9151 89.8762 16.8029 89.6909 16.7282C89.3387 16.5786 88.9494 16.4478 88.5787 16.3543C87.9299 16.2234 87.3367 15.9056 86.8548 15.457C86.4841 15.0644 86.2987 14.541 86.2987 14.0176C86.2802 13.5876 86.4285 13.1951 86.6694 12.8586C86.9475 12.5034 87.2811 12.223 87.7075 12.0548C88.1894 11.8491 88.7084 11.7557 89.246 11.7744C90.1913 11.7183 91.1552 12.0548 91.9338 12.6717Z" fill="#0C0C0F"/>
<path d="M97.124 19.7379C96.7903 19.8313 96.4566 19.8874 96.1045 19.8874C95.4557 19.9248 94.844 19.7005 94.3806 19.2331C93.9913 18.8032 93.8059 18.1863 93.8059 17.3638V13.3073H92.6011V11.9613H93.8059V10.2602L95.6596 10.0359V11.9426H97.4391L97.2537 13.2886H95.6596V17.3077C95.641 17.5881 95.6966 17.8685 95.8449 18.1115C96.0118 18.2985 96.2342 18.3919 96.4566 18.3545C96.7903 18.3359 97.0869 18.2424 97.3649 18.0741L98.0137 19.2892C97.7542 19.4949 97.4576 19.6444 97.124 19.7379Z" fill="#0C0C0F"/>
<path d="M103.612 11.8675L103.297 13.6621C103.074 13.606 102.852 13.5687 102.611 13.5687C102.203 13.55 101.814 13.7369 101.554 14.0547C101.239 14.5033 101.017 15.0268 100.943 15.5502V19.6441H99.0889V11.961H100.683L100.85 13.4752C100.998 12.9891 101.276 12.5405 101.647 12.204C101.981 11.9236 102.407 11.7554 102.852 11.7554C103.093 11.7554 103.352 11.7928 103.612 11.8675Z" fill="#0C0C0F"/>
<path d="M110.823 16.3914H106.04C106.114 17.1391 106.3 17.6626 106.615 17.9803C106.967 18.3168 107.43 18.4851 107.894 18.4664C108.227 18.4664 108.543 18.4103 108.839 18.2981C109.173 18.1673 109.488 17.999 109.785 17.7934L110.545 18.8589C109.747 19.5319 108.746 19.8871 107.727 19.8871C106.559 19.8871 105.669 19.5319 105.039 18.8216C104.409 18.1112 104.094 17.1204 104.094 15.8867C104.075 15.1576 104.224 14.4473 104.502 13.7743C104.743 13.1761 105.15 12.6714 105.669 12.2975C106.207 11.9423 106.837 11.7554 107.486 11.7554C108.561 11.7554 109.377 12.0919 109.97 12.7835C110.563 13.4752 110.841 14.4286 110.841 15.6436C110.878 15.7184 110.878 15.9801 110.823 16.3914ZM109.043 15.0828C109.043 13.7369 108.543 13.0639 107.56 13.0639C107.134 13.0452 106.745 13.2322 106.504 13.5687C106.244 13.9051 106.096 14.4286 106.059 15.1763H109.062V15.0828H109.043Z" fill="#0C0C0F"/>
<path d="M118.348 18.2794C118.441 18.4477 118.608 18.5598 118.793 18.6159L118.404 19.8497C118.033 19.831 117.662 19.7188 117.347 19.5506C117.051 19.3636 116.847 19.0645 116.717 18.7467C116.476 19.1206 116.142 19.4197 115.753 19.6067C115.345 19.7936 114.901 19.9058 114.437 19.8871C113.77 19.9244 113.121 19.6814 112.639 19.2328C112.194 18.7841 111.953 18.1672 111.972 17.513C111.935 16.7652 112.268 16.0362 112.88 15.6062C113.473 15.1576 114.344 14.9519 115.457 14.9519H116.402V14.522C116.439 14.1481 116.328 13.7556 116.068 13.4938C115.753 13.2695 115.364 13.1574 114.975 13.2134C114.289 13.2321 113.603 13.3817 112.954 13.6247L112.528 12.3535C113.399 11.9984 114.344 11.8114 115.29 11.7927C117.236 11.7927 118.219 12.6713 118.219 14.4285V17.6625C118.181 17.8495 118.237 18.0738 118.348 18.2794ZM116.383 17.5691V15.9988H115.623C114.437 15.9988 113.844 16.4474 113.844 17.3447C113.825 17.6625 113.918 17.9616 114.122 18.2046C114.344 18.429 114.622 18.5411 114.938 18.5037C115.549 18.5224 116.124 18.1486 116.383 17.5691Z" fill="#0C0C0F"/>
<path d="M130.008 12.3725C130.397 12.8585 130.601 13.4567 130.564 14.0736V19.6443H128.71V14.354C128.71 13.5315 128.432 13.1202 127.876 13.1202C127.598 13.1202 127.32 13.2137 127.116 13.4007C126.838 13.6437 126.615 13.9428 126.449 14.2606V19.6256H124.595V14.354C124.595 13.5315 124.317 13.1202 123.761 13.1202C123.464 13.1202 123.205 13.2137 122.964 13.4007C122.686 13.6437 122.482 13.9428 122.297 14.2606V19.6256H120.443V11.9612H122.037L122.185 12.9707C122.667 12.2043 123.501 11.7556 124.391 11.7556C124.799 11.7369 125.207 11.8491 125.54 12.0921C125.874 12.3351 126.134 12.6529 126.245 13.0455C126.504 12.6529 126.838 12.3351 127.246 12.0734C127.635 11.8491 128.08 11.7369 128.525 11.7369C129.081 11.7182 129.637 11.9426 130.008 12.3725Z" fill="#0C0C0F"/>
<path d="M24.7764 9.79272H9.24292V32.5802C9.24292 39.8894 17.436 45.0115 24.6467 50.1896C31.8759 45.0115 40.0504 39.9081 40.0504 32.5802V9.79272H24.7764ZM35.4534 32.5802C35.4534 36.6554 30.0964 40.6372 24.6652 44.4881C19.234 40.6372 13.877 36.6554 13.877 32.5802V14.4474H35.4534V32.5802Z" fill="#0C0C0F"/>
<path d="M4.68312 27.9068V5.19408H30.8194V0.4646H-0.0065918V23.2521C-0.0065918 27.832 3.18167 31.5334 7.35236 34.9356C5.70262 32.8232 4.68312 30.5052 4.68312 27.9068Z" fill="#151518"/>
</svg>
