<svg xmlns="http://www.w3.org/2000/svg" width="153" height="51" viewBox="0 0 153 51" fill="none">
  <path d="M109.322 43.551H100.369H100.295V43.4949V38.7094V38.6346H100.369H107.988V35.3632H100.369H100.295V35.2884V30.6898V30.615H100.369H109.322V27.325H96.625V46.8411H109.322V43.551Z" fill="#949494"/>
  <path d="M130.565 43.551H121.593H121.519V43.4949V38.7094V38.6346H121.593H129.23V35.3632H121.593H121.519V35.2884V30.6898V30.615H121.593H130.565V27.325H117.849V46.8411H130.565V43.551Z" fill="#949494"/>
  <path d="M152.827 46.7477V27.3251H149.157V37.6813V37.8496L149.046 37.7374L138.054 27.4185V46.8412H141.724V36.4476V36.298L141.835 36.3915L152.827 46.7477Z" fill="#949494"/>
  <path d="M57.4944 46.7848C57.7354 46.8409 57.9763 46.8783 58.2358 46.9156L58.2915 46.9343C58.6807 46.9904 59.0329 47.0091 59.348 47.0091C59.6261 47.0091 59.9227 46.9904 60.2192 46.9717C60.2378 46.9717 60.2378 46.9717 60.2563 46.9717C60.2748 46.9717 60.2748 46.9717 60.2748 46.9717C60.2934 46.9717 60.3119 46.9717 60.3119 46.953C60.3305 46.953 60.349 46.9343 60.3861 46.9343C62.388 46.7661 64.0933 45.9997 65.3909 44.6724C66.707 43.3265 67.226 41.6627 67.226 38.7278V35.9238H59.9968V38.9896H63.5187H63.5929V39.0643V39.8121C63.5929 40.9711 63.2963 41.8684 62.7031 42.4853C61.9431 43.2704 61.0534 43.4947 60.349 43.6069C60.0709 43.6443 59.7929 43.6817 59.5334 43.6817C57.1237 43.6817 54.7139 41.644 54.7139 37.0828C54.7139 33.7927 56.1598 30.4653 59.4036 30.4653C59.6261 30.4653 59.867 30.484 60.108 30.5027C61.4241 30.727 62.9626 31.6056 63.4631 33.0824L66.5401 31.2691C66.188 30.5587 64.4826 27.6425 60.2934 27.2126L60.2378 27.1939H60.2192C59.8856 27.1565 59.6075 27.1565 59.311 27.1565C58.6993 27.1565 58.0505 27.2313 57.4573 27.3808L57.3646 27.3995L57.3276 27.4182C57.1978 27.4556 57.0866 27.493 56.9754 27.5117C53.2125 28.5959 50.9325 32.2599 51.0252 37.1015C51.0252 41.9992 53.3608 45.6632 57.1237 46.6913V46.7287H57.1422L57.1607 46.6913C57.2905 46.7287 57.4017 46.7474 57.4944 46.7848Z" fill="#949494"/>
  <path d="M84.5948 46.841H88.7284L83.8348 38.6532L83.9646 38.6158C84.3909 38.5223 84.7617 38.4289 85.1139 38.3167C87.3011 37.5129 88.6172 35.6248 88.6172 33.232C88.6172 29.7363 86.0592 27.3062 82.3705 27.3062H74.8076V46.8223H78.4222V38.9523H79.9978L84.5948 46.841ZM78.4593 30.5588H82.1666C83.8534 30.5588 85.0397 31.6805 85.0397 33.2694C85.0397 34.8584 83.8534 35.98 82.1666 35.98H78.4593V30.5588Z" fill="#949494"/>
  <path d="M57.8837 15.0057C58.31 15.3795 58.5139 15.9404 58.5139 16.6881C58.5139 17.7349 58.1432 18.4827 57.4203 18.9126C56.6788 19.3613 55.6778 19.5669 54.3432 19.5669H51.3403V9.52844H53.954C56.6973 9.52844 58.069 10.3883 58.069 12.0895C58.0876 12.6316 57.9022 13.155 57.5315 13.5289C57.1793 13.9027 56.7159 14.1458 56.2154 14.2392C56.8456 14.3701 57.4203 14.6318 57.8837 15.0057ZM53.2496 13.6784H54.4174C54.8622 13.6971 55.3071 13.585 55.6778 13.3232C55.993 13.0802 56.1598 12.669 56.1413 12.2577C56.1783 11.8651 55.993 11.4539 55.6593 11.2483C55.1774 11.0239 54.6583 10.9305 54.1393 10.9678H53.2496V13.6784ZM55.9744 17.8284C56.3452 17.6041 56.5305 17.2115 56.5305 16.6133C56.5676 16.1273 56.3637 15.6599 55.993 15.3795C55.5666 15.0991 55.0661 14.9683 54.5657 15.0057H53.2496V18.1462H54.3618C54.8993 18.1836 55.4554 18.0901 55.9744 17.8284Z" fill="white"/>
  <path d="M61.9988 18.1837C62.0729 18.2771 62.2027 18.3332 62.3324 18.3145C62.4807 18.3145 62.629 18.2958 62.7588 18.2397L63.148 19.5483C62.7217 19.7165 62.2953 19.81 61.8319 19.81C61.3315 19.8474 60.868 19.6605 60.5159 19.3053C60.1822 18.894 60.0154 18.3706 60.0524 17.8472V8.83686L61.9061 8.63123V17.735C61.8876 17.8846 61.9246 18.0341 61.9988 18.1837Z" fill="white"/>
  <path d="M69.9695 12.7625C70.5997 13.4729 70.9149 14.4636 70.9149 15.7348C70.9334 16.4638 70.7851 17.1929 70.4885 17.8658C70.2105 18.464 69.7841 18.9501 69.2466 19.3053C68.672 19.6604 68.0046 19.8287 67.3188 19.81C66.1881 19.81 65.3169 19.4548 64.6866 18.7258C64.0564 18.0154 63.7227 17.0059 63.7227 15.7348C63.7042 15.0057 63.8525 14.2767 64.1491 13.6224C64.4271 13.0242 64.8535 12.5382 65.391 12.2017C65.9842 11.8465 66.6515 11.6783 67.3188 11.697C68.4681 11.697 69.3393 12.0334 69.9695 12.7625ZM65.6691 15.7348C65.6691 16.6508 65.7988 17.3237 66.0769 17.7537C66.3549 18.1836 66.8183 18.4267 67.3003 18.408C67.8007 18.4267 68.2642 18.1836 68.5237 17.7537C68.8017 17.3237 68.95 16.6508 68.95 15.7535C68.95 14.8562 68.8202 14.1832 68.5237 13.7533C68.2642 13.3233 67.8007 13.0803 67.3003 13.099C66.2252 13.099 65.6691 13.9776 65.6691 15.7348Z" fill="white"/>
  <path d="M77.069 11.9024C77.4953 12.0707 77.866 12.295 78.1997 12.5941L77.3655 13.7344C77.1431 13.5475 76.8836 13.4166 76.6241 13.3045C76.3831 13.211 76.1051 13.1736 75.827 13.1736C74.6778 13.1736 74.1031 14.0522 74.1031 15.8094C74.1031 16.688 74.2514 17.3423 74.548 17.7348C74.8446 18.1274 75.3265 18.333 75.827 18.3143C76.0865 18.3143 76.346 18.277 76.587 18.1835C76.8651 18.0526 77.106 17.9031 77.347 17.7348L78.1997 18.9499C77.5138 19.5294 76.6241 19.8472 75.7343 19.8285C75.067 19.8472 74.4183 19.679 73.8251 19.3425C73.2875 19.006 72.8612 18.5387 72.5832 17.9592C72.2866 17.2862 72.1383 16.5758 72.1568 15.8281C72.1383 15.0804 72.2866 14.3513 72.5832 13.6783C72.8427 13.0801 73.269 12.5941 73.8251 12.2389C74.3812 11.8837 75.0485 11.6968 75.7158 11.7342C76.1792 11.6781 76.6241 11.7529 77.069 11.9024Z" fill="white"/>
  <path d="M79.5342 19.5855V8.81793L81.3878 8.6123V19.6041H79.5342V19.5855ZM86.2073 19.5855H84.0941L81.462 15.3794L84.02 11.9024H85.9663L83.4268 15.2859L86.2073 19.5855Z" fill="white"/>
  <path d="M92.3613 12.5943L91.6383 13.7159C91.1008 13.3046 90.4335 13.0803 89.7662 13.0616C89.4696 13.0429 89.1545 13.1177 88.895 13.2859C88.7096 13.3981 88.5798 13.6224 88.5984 13.8467C88.5984 14.015 88.6354 14.1458 88.7281 14.2767C88.8579 14.4262 89.0247 14.5384 89.2101 14.6132C89.5437 14.744 89.8588 14.8562 90.211 14.9497C90.8969 15.0992 91.5086 15.3983 92.0461 15.8283C92.4539 16.2208 92.6764 16.8003 92.6393 17.3798C92.6578 18.0902 92.3056 18.7818 91.7125 19.1744C91.0266 19.6231 90.2296 19.8661 89.414 19.8287C88.8208 19.8474 88.2462 19.7352 87.6901 19.5483C87.2081 19.3613 86.7447 19.0996 86.3555 18.7445L87.3008 17.6789C87.8755 18.165 88.5984 18.4454 89.3584 18.4454C89.7106 18.4641 90.0442 18.3706 90.3593 18.2023C90.5818 18.0715 90.7301 17.8098 90.7301 17.5481C90.7486 17.3611 90.693 17.1742 90.6003 17.006C90.4705 16.8377 90.3037 16.7256 90.1184 16.6508C89.7662 16.5012 89.3769 16.3704 89.0062 16.2769C88.3574 16.146 87.7642 15.8283 87.2823 15.3796C86.9116 14.987 86.7262 14.4636 86.7262 13.9402C86.7077 13.5102 86.856 13.1177 87.0969 12.7812C87.375 12.426 87.7086 12.1456 88.135 11.9774C88.6169 11.7717 89.1359 11.6783 89.6735 11.697C90.6188 11.6409 91.5827 11.9774 92.3613 12.5943Z" fill="white"/>
  <path d="M97.5517 19.6606C97.218 19.7541 96.8844 19.8102 96.5322 19.8102C95.8834 19.8475 95.2717 19.6232 94.8083 19.1559C94.419 18.7259 94.2337 18.109 94.2337 17.2865V13.23H93.0288V11.8841H94.2337V10.1829L96.0873 9.95862V11.8654H97.8668L97.6814 13.2113H96.0873V17.2304C96.0688 17.5108 96.1244 17.7912 96.2727 18.0343C96.4395 18.2212 96.6619 18.3147 96.8844 18.2773C97.218 18.2586 97.5146 18.1651 97.7927 17.9969L98.4414 19.212C98.1819 19.4176 97.8853 19.5671 97.5517 19.6606Z" fill="white"/>
  <path d="M104.039 11.7904L103.724 13.585C103.502 13.5289 103.279 13.4915 103.039 13.4915C102.631 13.4728 102.241 13.6597 101.982 13.9775C101.667 14.4262 101.444 14.9496 101.37 15.473V19.5669H99.5166V11.8839H101.111L101.278 13.398C101.426 12.912 101.704 12.4634 102.075 12.1269C102.408 11.8465 102.835 11.6782 103.279 11.6782C103.52 11.6782 103.78 11.7156 104.039 11.7904Z" fill="white"/>
  <path d="M111.25 16.3142H106.467C106.542 17.062 106.727 17.5854 107.042 17.9032C107.394 18.2397 107.858 18.4079 108.321 18.3892C108.655 18.3892 108.97 18.3331 109.266 18.221C109.6 18.0901 109.915 17.9219 110.212 17.7163L110.972 18.7818C110.175 19.4548 109.174 19.8099 108.154 19.8099C106.986 19.8099 106.097 19.4548 105.466 18.7444C104.836 18.034 104.521 17.0433 104.521 15.8095C104.503 15.0805 104.651 14.3701 104.929 13.6971C105.17 13.0989 105.578 12.5942 106.097 12.2203C106.634 11.8652 107.264 11.6782 107.913 11.6782C108.988 11.6782 109.804 12.0147 110.397 12.7064C110.99 13.398 111.268 14.3514 111.268 15.5665C111.305 15.6413 111.305 15.903 111.25 16.3142ZM109.47 15.0057C109.47 13.6597 108.97 12.9868 107.987 12.9868C107.561 12.9681 107.172 13.155 106.931 13.4915C106.671 13.828 106.523 14.3514 106.486 15.0992H109.489V15.0057H109.47Z" fill="white"/>
  <path d="M118.776 18.2023C118.868 18.3705 119.035 18.4827 119.221 18.5387L118.831 19.7725C118.461 19.7538 118.09 19.6417 117.775 19.4734C117.478 19.2865 117.274 18.9874 117.145 18.6696C116.904 19.0435 116.57 19.3426 116.181 19.5295C115.773 19.7164 115.328 19.8286 114.865 19.8099C114.197 19.8473 113.549 19.6043 113.067 19.1556C112.622 18.707 112.381 18.0901 112.399 17.4358C112.362 16.6881 112.696 15.959 113.308 15.5291C113.901 15.0804 114.772 14.8748 115.884 14.8748H116.829V14.4448C116.867 14.071 116.755 13.6784 116.496 13.4167C116.181 13.1924 115.791 13.0802 115.402 13.1363C114.716 13.155 114.03 13.3045 113.382 13.5476L112.955 12.2764C113.827 11.9212 114.772 11.7343 115.717 11.7156C117.664 11.7156 118.646 12.5942 118.646 14.3514V17.5854C118.609 17.7723 118.665 17.9966 118.776 18.2023ZM116.811 17.4919V15.9216H116.051C114.865 15.9216 114.271 16.3703 114.271 17.2676C114.253 17.5854 114.346 17.8845 114.55 18.1275C114.772 18.3518 115.05 18.464 115.365 18.4266C115.977 18.4453 116.551 18.0714 116.811 17.4919Z" fill="white"/>
  <path d="M130.435 12.2954C130.824 12.7814 131.028 13.3796 130.991 13.9965V19.5672H129.137V14.2769C129.137 13.4544 128.859 13.0431 128.303 13.0431C128.025 13.0431 127.747 13.1366 127.543 13.3235C127.265 13.5665 127.043 13.8656 126.876 14.1834V19.5485H125.022V14.2769C125.022 13.4544 124.744 13.0431 124.188 13.0431C123.892 13.0431 123.632 13.1366 123.391 13.3235C123.113 13.5665 122.909 13.8656 122.724 14.1834V19.5485H120.87V11.8841H122.464L122.613 12.8936C123.094 12.1271 123.929 11.6785 124.818 11.6785C125.226 11.6598 125.634 11.7719 125.968 12.015C126.301 12.258 126.561 12.5758 126.672 12.9683C126.932 12.5758 127.265 12.258 127.673 11.9963C128.062 11.7719 128.507 11.6598 128.952 11.6598C129.508 11.6411 130.064 11.8654 130.435 12.2954Z" fill="white"/>
  <path d="M25.2039 9.71545H9.67041V32.503C9.67041 39.8122 17.8635 44.9342 25.0742 50.1124C32.3033 44.9342 40.4779 39.8309 40.4779 32.503V9.71545H25.2039ZM35.8809 32.503C35.8809 36.5782 30.5239 40.5599 25.0927 44.4108C19.6615 40.5599 14.3045 36.5782 14.3045 32.503V14.3702H35.8809V32.503Z" fill="white"/>
  <path d="M5.11061 27.8297V5.11693H31.2469V0.387451H0.420898V23.175C0.420898 27.7549 3.60916 31.4562 7.77985 34.8585C6.13011 32.7461 5.11061 30.4281 5.11061 27.8297Z" fill="#949494"/>
</svg>