<svg xmlns="http://www.w3.org/2000/svg" width="201" height="41" viewBox="0 0 201 41" fill="none">
  <g clip-path="url(#clip0_480_87)">
    <mask id="mask0_480_87" style="mask-type:luminance" maskUnits="userSpaceOnUse" x="0" y="0" width="201" height="41">
      <path d="M200.421 0.25H0.420898V40.25H200.421V0.25Z" fill="white"/>
    </mask>
    <g mask="url(#mask0_480_87)">
      <path fill-rule="evenodd" clip-rule="evenodd" d="M66.4959 23.6875V23.4875C67.503 23.3453 68.4243 22.8424 69.0886 22.0723C69.753 21.3021 70.1154 20.3171 70.1084 19.3C70.1084 16.375 67.8584 14.4 63.5084 14.4H55.4209V33.7625H64.1709C68.4584 33.7625 70.9209 31.4625 70.9209 28.3375C70.9427 27.7399 70.8446 27.144 70.6328 26.5848C70.4209 26.0255 70.0994 25.5143 69.6871 25.0812C69.2749 24.6479 68.7803 24.3015 68.2323 24.0621C67.6841 23.8229 67.0939 23.6955 66.4959 23.6875ZM60.1209 18.1125H62.7834C64.3459 18.1125 65.2834 18.925 65.2834 20.2C65.2834 21.475 64.1959 22.3625 62.6584 22.3625H60.0709L60.1209 18.1125ZM63.0084 29.9875H60.1209V25.375H63.0959C64.8834 25.375 65.9834 26.3125 65.9834 27.8C65.9834 29.2875 65.0334 29.9875 63.0084 29.9875Z" fill="white"/>
      <path fill-rule="evenodd" clip-rule="evenodd" d="M82.4836 27.4876C82.5181 27.8307 82.4782 28.1772 82.3667 28.5035C82.2552 28.8299 82.0747 29.1284 81.8375 29.3787C81.6002 29.629 81.3118 29.8253 80.992 29.9541C80.672 30.0828 80.3281 30.1412 79.9836 30.125C79.6617 30.1342 79.3416 30.0742 79.0448 29.9489C78.7481 29.8238 78.4817 29.6363 78.2637 29.3993C78.0457 29.1623 77.8811 28.8813 77.781 28.5752C77.6808 28.2691 77.6477 27.945 77.6836 27.625V19.2375H73.0586V28.4875C73.0586 31.775 75.0711 33.95 78.0586 33.95C79.0111 34.0045 79.956 33.7523 80.7546 33.2304C81.5532 32.7084 82.1636 31.9443 82.4961 31.05H82.6461V33.7625H87.0461V19.2375H82.4336L82.4836 27.4876Z" fill="white"/>
      <path d="M94.6582 14.4H90.0332V33.7625H94.6582V14.4Z" fill="white"/>
      <path d="M102.208 14.4H97.5835V33.7625H102.208V14.4Z" fill="white"/>
      <path fill-rule="evenodd" clip-rule="evenodd" d="M121.908 23.6875V23.4875C122.917 23.3455 123.839 22.8431 124.506 22.0733C125.172 21.3034 125.537 20.3183 125.533 19.3C125.533 16.375 123.283 14.4 118.933 14.4H110.858V33.7625H119.546C123.833 33.7625 126.283 31.4625 126.283 28.3375C126.305 27.744 126.208 27.1522 126 26.5962C125.791 26.0402 125.475 25.5312 125.067 25.0986C124.66 24.6662 124.171 24.3187 123.629 24.0764C123.087 23.8343 122.502 23.702 121.908 23.6875ZM115.533 18.1125H118.208C119.758 18.1125 120.708 18.925 120.708 20.2C120.708 21.475 119.608 22.3625 118.083 22.3625H115.483L115.533 18.1125ZM118.433 29.9875H115.533V25.375H118.521C120.308 25.375 121.396 26.3125 121.396 27.8C121.396 29.2875 120.421 29.9875 118.433 29.9875Z" fill="white"/>
      <path d="M133.158 19.2375H128.533V33.75H133.158V19.2375Z" fill="white"/>
      <path fill-rule="evenodd" clip-rule="evenodd" d="M130.846 13.1375C130.416 13.1691 130.005 13.3256 129.663 13.5877C129.321 13.8497 129.062 14.206 128.92 14.6127C128.778 15.0195 128.757 15.459 128.861 15.8772C128.965 16.2955 129.188 16.6742 129.505 16.9671C129.821 17.26 130.216 17.4541 130.641 17.5257C131.066 17.5974 131.502 17.5432 131.897 17.3702C132.292 17.1971 132.627 16.9126 132.862 16.5515C133.097 16.1904 133.222 15.7684 133.221 15.3375C133.21 15.037 133.14 14.7417 133.013 14.4685C132.888 14.1952 132.71 13.9494 132.49 13.7451C132.268 13.5407 132.01 13.3819 131.728 13.2776C131.446 13.1734 131.146 13.1257 130.846 13.1375Z" fill="white"/>
      <path fill-rule="evenodd" clip-rule="evenodd" d="M142.833 30.35C142.083 30.35 141.658 30.05 141.658 29.1875V22.6375H144.283V19.2375H141.671V15.7625H137.046V19.2375H135.133V22.6375H137.046V29.7C137.046 32.6375 138.933 34.1124 142.196 33.9625C142.998 33.9282 143.792 33.7894 144.558 33.5499L143.846 30.25C143.512 30.3176 143.173 30.3511 142.833 30.35Z" fill="white"/>
      <path fill-rule="evenodd" clip-rule="evenodd" d="M153.321 22.5625C153.634 22.5625 153.942 22.6244 154.231 22.7447C154.52 22.865 154.781 23.0413 155.001 23.2633C155.22 23.4853 155.394 23.7487 155.511 24.0383C155.629 24.3278 155.687 24.6377 155.684 24.95H160.009C159.909 21.375 157.296 19.05 153.259 19.05C148.696 19.05 145.934 22.1 145.934 26.55C145.934 31 148.671 34.05 153.271 34.05C157.346 34.05 159.884 31.675 160.009 28.075H155.684C155.689 28.3878 155.631 28.6984 155.515 28.9888C155.397 29.279 155.225 29.5432 155.005 29.7654C154.785 29.9878 154.522 30.164 154.234 30.2838C153.944 30.4034 153.634 30.4642 153.321 30.4625C151.696 30.4625 150.646 29.0875 150.646 26.5125C150.646 23.9375 151.671 22.5625 153.321 22.5625Z" fill="white"/>
      <path fill-rule="evenodd" clip-rule="evenodd" d="M169.171 19C164.608 19 161.833 22.0125 161.833 26.5C161.833 30.9875 164.608 34 169.171 34C173.733 34 176.496 30.975 176.496 26.5C176.496 22.025 173.721 19 169.171 19ZM169.171 30.5C167.458 30.5 166.521 28.8625 166.521 26.4625C166.521 24.0625 167.458 22.425 169.171 22.425C170.883 22.425 171.771 24.0625 171.771 26.4625C171.771 28.8625 170.833 30.55 169.171 30.55V30.5Z" fill="white"/>
      <path fill-rule="evenodd" clip-rule="evenodd" d="M181.183 13.1375C180.753 13.1668 180.341 13.3213 179.997 13.582C179.652 13.8428 179.392 14.1984 179.248 14.605C179.104 15.0118 179.082 15.4518 179.184 15.8709C179.287 16.29 179.509 16.67 179.826 16.964C180.141 17.2581 180.536 17.4535 180.962 17.526C181.387 17.5985 181.824 17.545 182.219 17.3721C182.614 17.1993 182.951 16.9145 183.187 16.553C183.422 16.1915 183.547 15.769 183.546 15.3375C183.523 14.7329 183.262 14.162 182.818 13.7496C182.376 13.3374 181.788 13.1173 181.183 13.1375Z" fill="white"/>
      <path d="M183.483 19.2375H178.858V33.75H183.483V19.2375Z" fill="white"/>
      <path fill-rule="evenodd" clip-rule="evenodd" d="M195.421 18.9999C194.477 18.9414 193.54 19.1866 192.746 19.6994C191.952 20.2123 191.343 20.9659 191.008 21.8499H190.846V19.2374H186.446V33.7624H191.071V25.4749C191.033 25.1364 191.068 24.7937 191.175 24.4701C191.281 24.1464 191.456 23.8494 191.687 23.5993C191.918 23.3491 192.201 23.1516 192.515 23.0202C192.83 22.8887 193.168 22.8264 193.508 22.8374C193.84 22.8229 194.17 22.8817 194.476 23.0096C194.781 23.1376 195.055 23.3314 195.277 23.5774C195.5 23.8234 195.665 24.1156 195.761 24.4327C195.857 24.7499 195.882 25.0846 195.833 25.4124V33.7624H200.421V24.4999C200.421 21.2374 198.433 18.9999 195.421 18.9999Z" fill="white"/>
      <path fill-rule="evenodd" clip-rule="evenodd" d="M27.8208 18.4875C27.8208 18.0962 27.6654 17.7211 27.3888 17.4445C27.1122 17.1678 26.7369 17.0125 26.3458 17.0125H24.0708V19.9625H26.3458C26.7369 19.9625 27.1122 19.8071 27.3888 19.5305C27.6654 19.2538 27.8208 18.8786 27.8208 18.4875Z" fill="white"/>
      <path fill-rule="evenodd" clip-rule="evenodd" d="M26.6709 21.5876H24.1709V24.6501H26.6709C26.8836 24.6693 27.098 24.6441 27.3004 24.5758C27.5028 24.5076 27.6888 24.3979 27.8464 24.2539C28.0041 24.1098 28.13 23.9346 28.2163 23.7391C28.3024 23.5437 28.3469 23.3324 28.3469 23.1188C28.3469 22.9052 28.3024 22.6939 28.2163 22.4986C28.13 22.3032 28.0041 22.1278 27.8464 21.9837C27.6888 21.8397 27.5028 21.7301 27.3004 21.6618C27.098 21.5936 26.8836 21.5683 26.6709 21.5876Z" fill="white"/>
      <path fill-rule="evenodd" clip-rule="evenodd" d="M45.9584 0.25L44.1709 7.2375L34.1709 10.5375L31.1334 6.025L25.2084 8.5875L19.2834 6.025L16.2459 10.5375L6.2459 7.2375L4.43341 0.25L0.420898 10.075L10.2834 17.4L3.3334 22.4L10.2834 23.8L13.6459 23.1875V27.15L18.1334 32.625L18.9834 36.6125L25.2334 40.2L31.4834 36.6125L32.3334 32.625L36.8209 27.15V23.1875L40.1959 23.8L47.1459 22.4L40.1959 17.4L50.0584 10.075L45.9584 0.25ZM31.2834 23.3125C31.2834 24.1412 30.9541 24.9361 30.3681 25.5222C29.782 26.1082 28.9871 26.4375 28.1584 26.4375H26.7709V28.3875H25.1959V26.5H24.0709V28.45H22.4834V26.5H19.5459V24.725H20.3459C20.6443 24.725 20.9304 24.6065 21.1414 24.3955C21.3524 24.1845 21.4709 23.8984 21.4709 23.6V18.125C21.4725 17.9762 21.4446 17.8286 21.3889 17.6906C21.333 17.5527 21.2505 17.4272 21.1459 17.3214C21.0413 17.2156 20.9166 17.1316 20.7793 17.0744C20.642 17.017 20.4946 16.9875 20.3459 16.9875H19.5459V15.25H22.4834V13.375H24.0709V15.25H25.1959V13.375H26.7709V15.25H27.6209C27.9946 15.2549 28.3636 15.3335 28.7069 15.4815C29.0501 15.6294 29.3606 15.8436 29.6209 16.112C29.881 16.3802 30.0856 16.6972 30.2229 17.0449C30.3603 17.3925 30.4275 17.7639 30.4209 18.1375C30.4219 18.5805 30.3183 19.0174 30.1184 19.4127C29.9186 19.8081 29.6281 20.1506 29.2709 20.4125C29.8505 20.6455 30.3479 21.0456 30.6995 21.5621C31.0513 22.0785 31.2414 22.6877 31.2459 23.3125H31.2834Z" fill="white"/>
    </g>
  </g>
  <defs>
    <clipPath id="clip0_480_87">
      <rect width="200" height="40" fill="white" transform="translate(0.420898 0.25)"/>
    </clipPath>
  </defs>
</svg>