<svg width="90" height="41" viewBox="0 0 90 41" fill="none" xmlns="http://www.w3.org/2000/svg">
<g clip-path="url(#clip0_1144_1586)">
<path d="M18.4552 40.4793C17.6562 40.5446 16.9347 40.2968 16.2511 39.9186C15.6166 39.5678 14.9934 39.1971 14.3656 38.835C13.6072 38.3971 12.8536 37.9499 12.0877 37.5244C11.8475 37.391 11.7501 37.2379 11.7558 36.9551C11.787 35.3391 11.8031 33.7231 11.8135 32.1062C11.8286 29.6883 11.8352 27.2705 11.8456 24.8536C11.8456 24.7931 11.8399 24.7316 11.8466 24.672C11.8702 24.4687 11.7927 24.3373 11.6083 24.2361C11.1175 23.9685 10.6372 23.6839 10.1521 23.4059C7.07231 21.6405 3.9935 19.8751 0.913735 18.1106C0.535503 17.8932 0.565761 17.948 0.565761 17.5149C0.565761 15.8828 0.566707 14.2508 0.566707 12.6187C0.566707 11.9398 0.746367 11.3062 1.04801 10.7039C1.0811 10.6386 1.13595 10.5847 1.18039 10.5261C1.43002 10.668 1.67966 10.8079 1.92834 10.9507C7.49499 14.1392 13.0626 17.3286 18.6292 20.5171C18.6273 21.9213 18.6264 23.3255 18.6245 24.7297C18.6245 24.8659 18.6424 25.0077 18.6084 25.1354C18.5403 25.3888 18.5517 25.6441 18.5517 25.8994C18.5451 29.9465 18.5403 33.9936 18.5337 38.0397C18.5337 38.1759 18.5545 38.3177 18.5214 38.4454C18.441 38.7584 18.4647 39.0751 18.4609 39.391C18.4562 39.7531 18.4571 40.1153 18.4552 40.4784V40.4793Z" fill="#151518" fill-opacity="0.5"/>
<path d="M18.63 20.517C13.0633 17.3285 7.49669 14.1391 1.92911 10.9506C1.68042 10.8078 1.43079 10.6679 1.18115 10.526C1.27855 10.231 1.48658 10.0078 1.68137 9.77901C2.01799 9.3847 2.42648 9.07644 2.87563 8.8183C5.24337 7.45477 7.60922 6.08746 9.97601 4.72109C12.0421 3.52871 14.1073 2.33634 16.1724 1.14207C16.58 0.90567 17.0074 0.725064 17.4697 0.622941C18.5439 0.384655 19.585 0.482995 20.5457 1.0163C22.0379 1.84369 23.5054 2.71362 24.9824 3.56654C25.0316 3.5949 25.0703 3.64124 25.1375 3.69986C21.4213 5.84633 17.7241 7.98146 14.0307 10.1156C14.0836 10.2925 14.233 10.3189 14.3455 10.3832C15.4963 11.047 16.6499 11.7061 17.8026 12.3671C20.1599 13.7183 22.5182 15.0695 24.8746 16.4227C25.0022 16.4964 25.1583 16.5342 25.233 16.6827C25.1526 16.7234 25.0703 16.7593 24.9928 16.8047C23.8988 17.4401 22.8047 18.0765 21.7107 18.7148C20.6828 19.3143 19.6559 19.9166 18.629 20.518L18.63 20.517Z" fill="#0C0C0F"/>
<path d="M18.63 20.5169C19.6569 19.9155 20.6838 19.3132 21.7117 18.7137C22.8048 18.0754 23.8988 17.44 24.9938 16.8036C25.0713 16.7582 25.1536 16.7223 25.234 16.6816C25.2434 16.8169 25.2605 16.9521 25.2595 17.0863C25.2434 19.838 25.2255 22.5887 25.2066 25.3403C25.1981 26.5951 25.1858 27.8499 25.1754 29.1047C25.1754 29.135 25.1754 29.1652 25.1754 29.1955C25.1754 29.6872 25.1763 29.6881 25.5857 29.4536C26.4765 28.9411 27.3663 28.4277 28.2561 27.9142C30.8205 26.4334 33.3849 24.9526 35.9503 23.4738C36.0779 23.4 36.1952 23.2998 36.3569 23.279C36.4505 23.3641 36.4098 23.4747 36.4108 23.5711C36.4136 25.1134 36.4278 26.6556 36.4089 28.1969C36.3871 29.9557 35.6203 31.307 34.0931 32.192C30.1586 34.4728 26.2183 36.7422 22.279 39.0163C21.7429 39.3264 21.2077 39.6385 20.6678 39.943C20.0522 40.29 19.3912 40.4838 18.6811 40.4999C18.6064 40.5018 18.5317 40.4867 18.4561 40.48C18.4579 40.1179 18.457 39.7548 18.4617 39.3926C18.4655 39.0768 18.4419 38.761 18.5222 38.447C18.5553 38.3194 18.5345 38.1766 18.5345 38.0414C18.5402 33.9943 18.5459 29.9472 18.5525 25.9011C18.5525 25.6458 18.5412 25.3904 18.6092 25.137C18.6433 25.0094 18.6253 24.8666 18.6253 24.7314C18.6272 23.3272 18.6291 21.923 18.63 20.5188V20.5169Z" fill="#2B2B31" fill-opacity="0.8"/>
<path d="M72.6123 28.0457C72.513 28.0523 72.4535 28.0608 72.3948 28.0608C71.2913 28.0608 70.1878 28.0608 69.0834 28.0608C69.038 28.0608 68.9926 28.0627 68.9472 28.0599C68.8026 28.0514 68.7695 28.0249 68.7421 27.8717C68.6749 27.5001 68.6125 27.1276 68.5473 26.7559C68.1917 24.7324 67.8352 22.7098 67.4797 20.6872C67.3199 19.7794 67.162 18.8717 67.0031 17.9649C66.9927 17.9062 66.9785 17.8476 66.9625 17.7899C66.9473 17.736 66.8934 17.7247 66.8566 17.7323C66.8197 17.7398 66.78 17.7748 66.7601 17.8088C66.7384 17.8457 66.7355 17.8949 66.728 17.9393C66.5455 18.9804 66.363 20.0225 66.1795 21.0635C65.9261 22.5065 65.6736 23.9495 65.4193 25.3924C65.2831 26.1659 65.1451 26.9394 65.008 27.7129C65.0004 27.7573 64.9975 27.8027 64.99 27.8481C64.9541 28.0372 64.937 28.0542 64.7612 28.0627C64.7158 28.0646 64.6704 28.0627 64.625 28.0627C63.5366 28.0627 62.4483 28.0627 61.3589 28.0627C61.2852 28.0627 61.2114 28.0542 61.1159 28.0476C61.0895 27.7819 61.0573 27.5304 61.0393 27.2788C60.9656 26.2538 60.8975 25.2279 60.8247 24.2029C60.7481 23.1325 60.6658 22.0621 60.5892 20.9917C60.5164 19.9818 60.4484 18.971 60.3755 17.9611C60.2971 16.8604 60.2138 15.7598 60.1354 14.6591C60.0626 13.6492 59.9935 12.6384 59.9226 11.6285C59.8952 11.2361 59.8612 10.8446 59.8385 10.4522C59.8233 10.2007 59.8375 10.1875 60.0739 10.1856C60.6337 10.1827 61.1925 10.1846 61.7523 10.1846C61.8885 10.1846 62.0246 10.1818 62.1608 10.1865C62.3064 10.1922 62.3376 10.2253 62.3537 10.3775C62.3584 10.4229 62.3594 10.4683 62.3622 10.5137C62.4615 12.1883 62.5589 13.8639 62.662 15.5385C62.765 17.2131 62.8776 18.8878 62.9816 20.5624C63.0582 21.7992 63.1253 23.037 63.2009 24.2747C63.217 24.5461 63.2463 24.8166 63.2747 25.086C63.2794 25.1314 63.3295 25.156 63.3778 25.1466C63.4052 25.1409 63.4449 25.1248 63.4515 25.104C63.4837 25.0038 63.5111 24.9007 63.531 24.7976C63.9347 22.6606 64.3356 20.5236 64.7404 18.3866C64.9739 17.1545 65.2122 15.9243 65.4495 14.6932C65.458 14.6497 65.4722 14.6071 65.4836 14.5655C65.8107 14.5107 67.752 14.4993 68.3109 14.5494C68.4291 14.8794 68.465 15.2388 68.5321 15.5886C68.9246 17.6197 69.3085 19.6527 69.6933 21.6857C69.8872 22.7098 70.0782 23.7339 70.272 24.7579C70.2919 24.8619 70.3212 24.9631 70.3429 25.0662C70.3543 25.1201 70.3949 25.1428 70.4375 25.1466C70.5103 25.1541 70.5415 25.1031 70.5472 25.0378C70.568 24.7967 70.5916 24.5556 70.6058 24.3144C70.6786 23.0918 70.7457 21.8692 70.8223 20.6475C70.8951 19.4854 70.9765 18.3251 71.054 17.163C71.0899 16.6202 71.1249 16.0765 71.159 15.5338C71.2611 13.8894 71.3623 12.2441 71.4634 10.5997C71.4682 10.5241 71.471 10.4484 71.4805 10.3737C71.4994 10.2215 71.5315 10.1875 71.6771 10.1846C71.8889 10.1799 72.1008 10.1827 72.3116 10.1827C72.7806 10.1827 73.2487 10.1808 73.7177 10.1846C73.8709 10.1856 73.903 10.2187 73.8936 10.3775C73.8586 10.9505 73.8198 11.5236 73.7773 12.0966C73.7357 12.6696 73.6837 13.2417 73.644 13.8147C73.539 15.3078 73.4388 16.8009 73.3338 18.2939C73.2147 19.9827 73.0936 21.6715 72.9707 23.3594C72.862 24.8515 72.7494 26.3446 72.6388 27.8367C72.6341 27.8973 72.6256 27.9568 72.6152 28.0467L72.6123 28.0457Z" fill="#0C0C0F"/>
<path d="M89.6415 10.1817C89.4902 10.3831 89.4023 10.5051 89.3105 10.6223C87.5603 12.8605 85.8072 15.0968 84.0607 17.3369C83.6909 17.8107 83.7146 17.631 84.0153 18.1416C85.8715 21.2894 87.7361 24.4335 89.5952 27.5795C89.6774 27.7185 89.7881 27.8471 89.8183 28.0059C89.7446 28.0806 89.6661 28.0579 89.5961 28.0579C88.6893 28.0598 87.7825 28.0522 86.8757 28.0636C86.6657 28.0664 86.5494 27.9955 86.4464 27.8159C85.5641 26.285 84.6725 24.7597 83.7836 23.2326C83.2134 22.2539 82.6432 21.2753 82.0721 20.2966C81.9965 20.168 81.918 20.0413 81.8442 19.9174C81.7062 19.9269 81.6627 20.0356 81.5993 20.1141C81.0216 20.8327 80.4533 21.558 79.868 22.27C79.7233 22.4459 79.6656 22.6208 79.6665 22.8459C79.6741 24.4184 79.6713 25.9899 79.6703 27.5624C79.6703 28.108 79.7233 28.056 79.1956 28.057C78.5309 28.0579 77.8652 28.057 77.2005 28.057C76.7532 28.057 76.7995 28.0872 76.7967 27.6334C76.7967 27.588 76.7967 27.5426 76.7967 27.4972C76.7967 21.9041 76.7967 16.31 76.7967 10.7169C76.7967 10.0994 76.7248 10.1826 77.3149 10.1789C77.9342 10.1751 78.5545 10.1779 79.1739 10.1789C79.2798 10.1789 79.3857 10.1798 79.4916 10.1798C79.5985 10.1798 79.6628 10.2261 79.6656 10.3377C79.6694 10.4739 79.6694 10.61 79.6694 10.7453C79.6694 13.2397 79.6694 15.7342 79.6694 18.2286C79.6694 18.3638 79.6779 18.5 79.6817 18.6352C79.6826 18.6721 79.7015 18.6948 79.7394 18.6919C79.7668 18.69 79.8027 18.6872 79.8178 18.6702C79.8954 18.5785 79.972 18.4839 80.041 18.3865C81.9757 15.6613 84.089 13.0742 86.1353 10.4351C86.2781 10.2517 86.4208 10.1685 86.6629 10.1722C87.5546 10.1883 88.4463 10.1789 89.338 10.1789H89.6415V10.1817Z" fill="#0C0C0F"/>
<path d="M28.2485 14.905C25.5262 13.342 22.8038 11.7789 20.0825 10.214C20.0607 10.2017 20.0541 10.162 20.0361 10.1251C20.1383 10.0636 20.2394 9.99933 20.3434 9.93976C22.8407 8.49869 25.339 7.05857 27.8362 5.61561C28.2542 5.37449 28.1653 5.4038 28.5208 5.60899C30.3789 6.67844 32.2341 7.75262 34.0932 8.82019C34.7484 9.19653 35.2865 9.69107 35.694 10.3265C35.7337 10.388 35.7555 10.4617 35.7848 10.5298C35.1078 10.9222 34.4307 11.3137 33.7537 11.707C31.9183 12.7727 30.0839 13.8384 28.2485 14.905Z" fill="#0C0C0F"/>
<path d="M28.2484 14.905C30.0838 13.8393 31.9182 12.7727 33.7536 11.707C34.4306 11.3137 35.1077 10.9222 35.7847 10.5298C36.0816 10.925 36.214 11.3884 36.3152 11.8602C36.3852 12.1846 36.4145 12.5155 36.4135 12.8502C36.4097 15.01 36.4116 17.1697 36.4116 19.3294C36.4116 19.3899 36.4079 19.4504 36.4116 19.5109C36.4211 19.6452 36.3729 19.7407 36.2509 19.8069C36.0778 19.8996 35.9114 20.0036 35.7412 20.1019C33.3754 21.4683 31.0095 22.8346 28.6427 24.1991C28.5151 24.2729 28.3969 24.3722 28.2172 24.3958C28.1491 24.2908 28.1803 24.1698 28.1813 24.0582C28.1983 21.838 28.2191 19.6187 28.2371 17.3985C28.2437 16.5683 28.2446 15.7371 28.2484 14.9069V14.905Z" fill="#2B2B31" fill-opacity="0.8"/>
<path d="M0.583702 21.4702C0.734995 21.4465 0.806859 21.5108 0.882506 21.5543C3.37411 22.9803 5.86761 24.4043 8.35449 25.8397C8.92184 26.1669 8.8339 25.9844 8.83107 26.6746C8.82256 29.0178 8.81121 31.3609 8.79608 33.7041C8.7923 34.2629 8.7696 34.8218 8.75353 35.3806C8.75069 35.4667 8.67221 35.5187 8.60035 35.4856C8.51808 35.4477 8.43865 35.4052 8.36017 35.3598C6.50115 34.2875 4.6393 33.2209 2.78596 32.1401C1.54536 31.4167 0.841846 30.317 0.598831 28.9119C0.5733 28.7644 0.570464 28.6102 0.570464 28.4599C0.567627 26.2075 0.567627 23.9542 0.567627 21.7018C0.567627 21.6271 0.578028 21.5524 0.584647 21.4692L0.583702 21.4702Z" fill="#151518" fill-opacity="0.5"/>
<path d="M46.6448 19.1621C46.6448 16.3357 46.6448 13.5094 46.6448 10.6821C46.6448 10.1062 46.5861 10.1866 47.1573 10.1838C47.8674 10.18 48.5775 10.1819 49.2886 10.1838C49.4777 10.1838 49.4995 10.2074 49.5052 10.3861C49.5089 10.5072 49.507 10.6282 49.507 10.7492C49.507 15.5102 49.507 20.2712 49.507 25.0332C49.507 25.1391 49.5052 25.245 49.507 25.3509C49.5118 25.6336 49.5212 25.6469 49.8238 25.6469C51.9552 25.6488 54.0855 25.6469 56.2169 25.6478C56.6396 25.6478 57.0632 25.6488 57.4859 25.6516C57.5918 25.6516 57.6504 25.7046 57.6504 25.8171C57.6504 26.5121 57.6504 27.208 57.6504 27.903C57.6504 28.0193 57.5842 28.0591 57.4792 28.0591C57.3885 28.0591 57.2977 28.0591 57.2069 28.0591C53.8217 28.0591 50.4356 28.0591 47.0504 28.0591C46.5984 28.0591 46.6448 28.0969 46.6448 27.6402C46.6438 24.8138 46.6448 21.9875 46.6448 19.1602V19.1621Z" fill="#0C0C0F"/>
</g>
<defs>
<clipPath id="clip0_1144_1586">
<rect width="89.2516" height="40" fill="white" transform="translate(0.565674 0.5)"/>
</clipPath>
</defs>
</svg>
