<svg xmlns="http://www.w3.org/2000/svg" width="90" height="41" viewBox="0 0 90 41" fill="none">
  <g clip-path="url(#clip0_480_149)">
    <path d="M18.2167 40.2292C17.4177 40.2944 16.6962 40.0467 16.0125 39.6685C15.3781 39.3177 14.7549 38.947 14.1271 38.5848C13.3687 38.147 12.6151 37.6998 11.8492 37.2743C11.609 37.1409 11.5116 36.9877 11.5173 36.705C11.5485 35.089 11.5645 33.473 11.5749 31.8561C11.5901 29.4382 11.5967 27.0204 11.6071 24.6035C11.6071 24.5429 11.6014 24.4815 11.608 24.4219C11.6317 24.2186 11.5541 24.0872 11.3697 23.986C10.879 23.7184 10.3986 23.4338 9.91354 23.1558C6.83378 21.3904 3.75497 19.625 0.67521 17.8605C0.296977 17.643 0.327236 17.6979 0.327236 17.2648C0.327236 15.6327 0.328181 14.0006 0.328181 12.3686C0.328181 11.6896 0.507842 11.0561 0.809483 10.4538C0.842578 10.3885 0.897422 10.3346 0.941864 10.276C1.1915 10.4178 1.44113 10.5578 1.68982 10.7006C7.25646 13.8891 12.824 17.0785 18.3907 20.267C18.3888 21.6712 18.3878 23.0754 18.386 24.4796C18.386 24.6157 18.4039 24.7576 18.3699 24.8852C18.3018 25.1387 18.3131 25.394 18.3131 25.6493C18.3065 29.6964 18.3018 33.7435 18.2952 37.7896C18.2952 37.9258 18.316 38.0676 18.2829 38.1952C18.2025 38.5082 18.2262 38.825 18.2224 39.1408C18.2176 39.503 18.2186 39.8651 18.2167 40.2283V40.2292Z" fill="#FEFEFE" fill-opacity="0.5"/>
    <path d="M18.3917 20.267C12.8251 17.0785 7.25841 13.8891 1.69083 10.7006C1.44214 10.5578 1.1925 10.4179 0.942871 10.276C1.04027 9.981 1.24829 9.75784 1.44308 9.52901C1.77971 9.1347 2.1882 8.82644 2.63735 8.5683C5.00509 7.20477 7.37094 5.83746 9.73773 4.47109C11.8038 3.27871 13.869 2.08634 15.9341 0.892066C16.3417 0.65567 16.7691 0.475064 17.2315 0.372941C18.3056 0.134655 19.3467 0.232995 20.3074 0.766303C21.7996 1.59369 23.2671 2.46362 24.7441 3.31654C24.7933 3.3449 24.832 3.39124 24.8992 3.44986C21.183 5.59633 17.4858 7.73146 13.7924 9.86564C13.8453 10.0425 13.9947 10.0689 14.1073 10.1332C15.258 10.797 16.4116 11.4561 17.5643 12.1171C19.9216 13.4683 22.2799 14.8195 24.6363 16.1727C24.764 16.2464 24.92 16.2842 24.9947 16.4327C24.9143 16.4734 24.832 16.5093 24.7545 16.5547C23.6605 17.1901 22.5664 17.8265 21.4724 18.4648C20.4445 19.0643 19.4176 19.6666 18.3907 20.268L18.3917 20.267Z" fill="#FEFEFE"/>
    <path d="M18.3918 20.267C19.4187 19.6657 20.4456 19.0633 21.4734 18.4638C22.5665 17.8255 23.6605 17.1901 24.7555 16.5537C24.8331 16.5084 24.9153 16.4724 24.9957 16.4318C25.0052 16.567 25.0222 16.7022 25.0212 16.8365C25.0052 19.5881 24.9872 22.3388 24.9683 25.0905C24.9598 26.3452 24.9475 27.6 24.9371 28.8548C24.9371 28.8851 24.9371 28.9153 24.9371 28.9456C24.9371 29.4373 24.938 29.4382 25.3475 29.2037C26.2382 28.6912 27.128 28.1778 28.0178 27.6643C30.5822 26.1835 33.1466 24.7028 35.712 23.2239C35.8396 23.1501 35.9569 23.0499 36.1186 23.0291C36.2122 23.1142 36.1715 23.2248 36.1725 23.3213C36.1753 24.8635 36.1895 26.4058 36.1706 27.9471C36.1488 29.7058 35.382 31.0571 33.8549 31.9421C29.9203 34.2229 25.9801 36.4923 22.0408 38.7664C21.5046 39.0766 20.9694 39.3886 20.4295 39.6931C19.8139 40.0401 19.153 40.2339 18.4428 40.25C18.3681 40.2519 18.2934 40.2368 18.2178 40.2302C18.2197 39.868 18.2187 39.5049 18.2234 39.1427C18.2272 38.8269 18.2036 38.5111 18.284 38.1972C18.3171 38.0695 18.2963 37.9267 18.2963 37.7915C18.3019 33.7444 18.3076 29.6973 18.3142 25.6512C18.3142 25.3959 18.3029 25.1406 18.371 24.8872C18.405 24.7595 18.387 24.6167 18.387 24.4815C18.3889 23.0773 18.3908 21.6731 18.3918 20.2689V20.267Z" fill="#FEFEFE" fill-opacity="0.8"/>
    <path d="M72.3738 27.7957C72.2745 27.8023 72.2149 27.8108 72.1563 27.8108C71.0528 27.8108 69.9493 27.8108 68.8449 27.8108C68.7995 27.8108 68.7541 27.8127 68.7087 27.8099C68.564 27.8014 68.5309 27.7749 68.5035 27.6217C68.4364 27.2501 68.374 26.8776 68.3087 26.5059C67.9532 24.4824 67.5967 22.4598 67.2412 20.4372C67.0814 19.5294 66.9235 18.6217 66.7646 17.7149C66.7542 17.6562 66.74 17.5976 66.7239 17.5399C66.7088 17.486 66.6549 17.4747 66.618 17.4823C66.5812 17.4898 66.5414 17.5248 66.5216 17.5588C66.4998 17.5957 66.497 17.6449 66.4894 17.6893C66.3069 18.7304 66.1244 19.7725 65.941 20.8135C65.6876 22.2565 65.4351 23.6995 65.1808 25.1424C65.0446 25.9159 64.9065 26.6894 64.7694 27.4629C64.7619 27.5073 64.759 27.5527 64.7515 27.5981C64.7155 27.7872 64.6985 27.8042 64.5226 27.8127C64.4772 27.8146 64.4319 27.8127 64.3865 27.8127C63.2981 27.8127 62.2097 27.8127 61.1204 27.8127C61.0467 27.8127 60.9729 27.8042 60.8774 27.7976C60.8509 27.5319 60.8188 27.2804 60.8008 27.0288C60.7271 26.0038 60.659 24.9779 60.5862 23.9529C60.5096 22.8825 60.4273 21.8121 60.3507 20.7417C60.2779 19.7318 60.2098 18.721 60.137 17.7111C60.0585 16.6104 59.9753 15.5098 59.8968 14.4091C59.824 13.3992 59.755 12.3884 59.6841 11.3785C59.6567 10.9861 59.6226 10.5946 59.5999 10.2022C59.5848 9.95069 59.599 9.93746 59.8354 9.93557C60.3952 9.93273 60.954 9.93462 61.5138 9.93462C61.65 9.93462 61.7861 9.93178 61.9223 9.93651C62.0679 9.94218 62.0991 9.97528 62.1152 10.1275C62.1199 10.1729 62.1209 10.2183 62.1237 10.2637C62.223 11.9383 62.3204 13.6139 62.4234 15.2885C62.5265 16.9631 62.639 18.6378 62.743 20.3124C62.8196 21.5492 62.8868 22.787 62.9624 24.0247C62.9785 24.2961 63.0078 24.5666 63.0362 24.836C63.0409 24.8814 63.091 24.906 63.1392 24.8966C63.1667 24.8909 63.2064 24.8748 63.213 24.854C63.2451 24.7538 63.2726 24.6507 63.2924 24.5476C63.6962 22.4106 64.0971 20.2736 64.5018 18.1366C64.7354 16.9045 64.9737 15.6743 65.211 14.4432C65.2195 14.3997 65.2337 14.3571 65.2451 14.3155C65.5722 14.2607 67.5135 14.2493 68.0723 14.2994C68.1905 14.6294 68.2265 14.9888 68.2936 15.3386C68.686 17.3697 69.0699 19.4027 69.4548 21.4357C69.6486 22.4598 69.8396 23.4839 70.0335 24.5079C70.0533 24.6119 70.0826 24.7131 70.1044 24.8162C70.1157 24.8701 70.1564 24.8928 70.199 24.8966C70.2718 24.9041 70.303 24.8531 70.3086 24.7878C70.3294 24.5467 70.3531 24.3056 70.3673 24.0645C70.4401 22.8418 70.5072 21.6192 70.5838 20.3975C70.6566 19.2354 70.7379 18.0751 70.8155 16.913C70.8514 16.3702 70.8864 15.8265 70.9204 15.2838C71.0226 13.6394 71.1237 11.9941 71.2249 10.3497C71.2296 10.2741 71.2325 10.1984 71.2419 10.1237C71.2608 9.9715 71.293 9.93746 71.4386 9.93462C71.6504 9.92989 71.8622 9.93273 72.0731 9.93273C72.5421 9.93273 73.0102 9.93084 73.4792 9.93462C73.6324 9.93557 73.6645 9.96866 73.6551 10.1275C73.6201 10.7005 73.5813 11.2736 73.5388 11.8466C73.4971 12.4196 73.4451 12.9917 73.4054 13.5647C73.3005 15.0578 73.2002 16.5509 73.0953 18.0439C72.9761 19.7327 72.8551 21.4215 72.7322 23.1094C72.6234 24.6015 72.5109 26.0946 72.4003 27.5867C72.3955 27.6473 72.387 27.7068 72.3766 27.7967L72.3738 27.7957Z" fill="#FCFCFC"/>
    <path d="M89.4027 9.93182C89.2514 10.1332 89.1635 10.2552 89.0718 10.3725C87.3215 12.6107 85.5684 14.847 83.8219 17.087C83.4522 17.5608 83.4758 17.3811 83.7765 17.8917C85.6327 21.0396 87.4974 24.1836 89.3564 27.3296C89.4387 27.4686 89.5493 27.5972 89.5795 27.756C89.5058 27.8307 89.4273 27.808 89.3573 27.808C88.4505 27.8099 87.5437 27.8024 86.6369 27.8137C86.427 27.8166 86.3107 27.7456 86.2076 27.566C85.3254 26.0351 84.4337 24.5099 83.5448 22.9827C82.9747 22.0041 82.4045 21.0254 81.8333 20.0467C81.7577 19.9181 81.6792 19.7914 81.6054 19.6675C81.4674 19.677 81.4239 19.7857 81.3605 19.8642C80.7828 20.5829 80.2145 21.3081 79.6292 22.0201C79.4845 22.196 79.4268 22.3709 79.4278 22.596C79.4353 24.1685 79.4325 25.7401 79.4316 27.3126C79.4316 27.8582 79.4845 27.8062 78.9569 27.8071C78.2921 27.808 77.6264 27.8071 76.9617 27.8071C76.5144 27.8071 76.5608 27.8374 76.5579 27.3835C76.5579 27.3381 76.5579 27.2927 76.5579 27.2473C76.5579 21.6542 76.5579 16.0601 76.5579 10.467C76.5579 9.84955 76.4861 9.93277 77.0761 9.92898C77.6955 9.9252 78.3158 9.92804 78.9351 9.92898C79.041 9.92898 79.1469 9.92993 79.2528 9.92993C79.3597 9.92993 79.424 9.97626 79.4268 10.0878C79.4306 10.224 79.4306 10.3602 79.4306 10.4954C79.4306 12.9898 79.4306 15.4843 79.4306 17.9787C79.4306 18.1139 79.4391 18.2501 79.4429 18.3853C79.4438 18.4222 79.4628 18.4449 79.5006 18.4421C79.528 18.4402 79.5639 18.4373 79.5791 18.4203C79.6566 18.3286 79.7332 18.234 79.8022 18.1366C81.7369 15.4115 83.8503 12.8244 85.8965 10.1852C86.0393 10.0018 86.1821 9.91858 86.4241 9.92236C87.3158 9.93844 88.2075 9.92898 89.0992 9.92898H89.4027V9.93182Z" fill="#FCFCFC"/>
    <path d="M28.0102 14.655C25.2879 13.092 22.5656 11.5289 19.8442 9.96397C19.8224 9.95168 19.8158 9.91197 19.7979 9.87509C19.9 9.81363 20.0012 9.74933 20.1052 9.68976C22.6024 8.24869 25.1007 6.80857 27.598 5.36561C28.0159 5.12449 27.927 5.1538 28.2826 5.35899C30.1406 6.42844 31.9959 7.50262 33.8549 8.57019C34.5102 8.94653 35.0482 9.44107 35.4557 10.0765C35.4955 10.138 35.5172 10.2117 35.5465 10.2798C34.8695 10.6722 34.1924 11.0637 33.5154 11.457C31.68 12.5227 29.8456 13.5884 28.0102 14.655Z" fill="#FDFEFE"/>
    <path d="M28.0101 14.655C29.8455 13.5893 31.68 12.5227 33.5153 11.457C34.1924 11.0637 34.8694 10.6722 35.5464 10.2798C35.8433 10.675 35.9757 11.1384 36.0769 11.6102C36.1469 11.9346 36.1762 12.2655 36.1752 12.6002C36.1715 14.76 36.1734 16.9197 36.1734 19.0794C36.1734 19.1399 36.1696 19.2004 36.1734 19.2609C36.1828 19.3952 36.1346 19.4907 36.0126 19.5569C35.8396 19.6496 35.6731 19.7536 35.5029 19.8519C33.1371 21.2183 30.7712 22.5846 28.4045 23.9491C28.2768 24.0229 28.1586 24.1222 27.9789 24.1458C27.9109 24.0408 27.9421 23.9198 27.943 23.8082C27.96 21.588 27.9808 19.3687 27.9988 17.1485C28.0054 16.3183 28.0064 15.4871 28.0101 14.6569V14.655Z" fill="#FEFEFE" fill-opacity="0.8"/>
    <path d="M0.345176 21.2202C0.49647 21.1965 0.568334 21.2608 0.64398 21.3043C3.13559 22.7303 5.62909 24.1543 8.11597 25.5897C8.68332 25.9169 8.59538 25.7344 8.59254 26.4246C8.58403 28.7678 8.57268 31.1109 8.55756 33.4541C8.55377 34.0129 8.53108 34.5718 8.515 35.1306C8.51217 35.2167 8.43368 35.2687 8.36182 35.2356C8.27955 35.1977 8.20013 35.1552 8.12164 35.1098C6.26263 34.0375 4.40078 32.9709 2.54744 31.8901C1.30683 31.1667 0.60332 30.067 0.360306 28.6619C0.334775 28.5144 0.331938 28.3602 0.331938 28.2099C0.329102 25.9575 0.329102 23.7042 0.329102 21.4518C0.329102 21.3771 0.339503 21.3024 0.346122 21.2192L0.345176 21.2202Z" fill="#FEFEFE" fill-opacity="0.5"/>
    <path d="M46.4065 18.9119C46.4065 16.0856 46.4065 13.2593 46.4065 10.432C46.4065 9.85611 46.3479 9.93649 46.919 9.93365C47.6291 9.92987 48.3393 9.93176 49.0503 9.93365C49.2395 9.93365 49.2612 9.95729 49.2669 10.136C49.2707 10.257 49.2688 10.3781 49.2688 10.4991C49.2688 15.2601 49.2688 20.0211 49.2688 24.7831C49.2688 24.889 49.2669 24.9949 49.2688 25.1008C49.2735 25.3835 49.2829 25.3967 49.5855 25.3967C51.7169 25.3986 53.8473 25.3968 55.9786 25.3977C56.4013 25.3977 56.8249 25.3986 57.2476 25.4015C57.3535 25.4015 57.4121 25.4544 57.4121 25.567C57.4121 26.262 57.4121 26.9579 57.4121 27.6529C57.4121 27.7692 57.3459 27.8089 57.241 27.8089C57.1502 27.8089 57.0594 27.8089 56.9686 27.8089C53.5835 27.8089 50.1973 27.8089 46.8121 27.8089C46.3602 27.8089 46.4065 27.8468 46.4065 27.39C46.4055 24.5637 46.4065 21.7373 46.4065 18.9101V18.9119Z" fill="#FEFEFE"/>
  </g>
  <defs>
    <clipPath id="clip0_480_149">
      <rect width="89.2516" height="40" fill="white" transform="translate(0.327148 0.25)"/>
    </clipPath>
  </defs>
</svg>