<?xml version="1.0" encoding="UTF-8"?>
<svg id="Layer_1" xmlns="http://www.w3.org/2000/svg" width="16.4in" height="1.4in" version="1.1" viewBox="0 0 1183.4 100.8">
  <!-- Generator: Adobe Illustrator 29.1.0, SVG Export Plug-In . SVG Version: 2.1.0 Build 142)  -->
  <defs>
    <style>
      .st0 {
        fill: #fff;
      }
    </style>
  </defs>
  <path class="st0" d="M723.4,1.7c-19.5,5.5-31.9,19.5-34.7,40-3.3,23.3,6.2,43.9,24.1,52.9,10.9,5.5,17.8,6.3,43.4,5.9,25-.5,30.6-1.8,39.9-8.9l3.9-3.2-7.2-9.5c-3.9-5.1-7.6-9.5-7.9-9.5s-3.7,1.5-7.4,3.3c-6.5,3.3-7.6,3.4-24.7,3.4s-25-1.1-31.1-7.8c-11.3-12.6-8-33.5,6.8-41.6,3.3-1.8,6.9-2.2,23.6-2.2s20,0,26.2,3.3c3.5,1.9,6.5,3.4,6.6,3.4.2,0,3.7-4.3,7.8-9.6l7.3-9.6-4.9-3.6c-9.5-6.9-17.7-8.5-43.5-8.4-14.4,0-25,.6-28.3,1.6Z"/>
  <path class="st0" d="M1161.9,8.9c-10.9,4.8-28.4,12.7-38.9,17.4-10.6,4.6-19.5,8.5-20.1,8.5s-1-7.6-1-16.8V1.2h-27.5v98.2h27.5v-34.4l8.8-3.9c4.6-2.1,10.3-4.5,12.4-5.5l3.8-1.7,13.5,22.8,13.4,22.8h14.7c8.2,0,14.7-.2,14.7-.7s-6.9-12.7-15.6-27.4c-8.5-14.7-15.6-27.3-15.6-27.9s6.8-4,15.3-7.7l15.2-6.8.4-14.4C1183.1,6.5,1182.9,0,1182.4,0c-.5,0-9.9,4-20.7,8.9h.2Z"/>
  <path class="st0" d="M31.3,33C14.3,50.6,0,65.3,0,65.8c0,.4,7.3,8.3,16.6,17.5l16.8,16.8,29.1-29.1c16-16,30-29,31.2-29,1.8,0,2.1,1.6,2.1,14.4v14.3l18.9.4,18.8.4.4,14,.4,14.1h35.2l32.2-32.2,32-32.2-16.8-16.7c-9.3-9.3-17.4-16.7-18-16.6-.6.2-14.1,13.3-30,29.2-18.5,18.5-29.5,28.6-30.6,28.1-1.3-.5-1.8-3.8-2.1-14.7l-.4-14.1-18.8-.4-18.9-.4V1.2h-35.5s-31.2,31.9-31.2,31.9Z"/>
  <path class="st0" d="M298,50.2v49.2h27.5v-34.1c0-33.8,0-34.1,2.6-34.1s4.9,5,16.7,29c8.3,17.2,15.6,30.5,17.7,32.4,6.2,6,10.7,6.9,30.3,6.9h18V1.2h-26.3v68.3h-2.8c-2.4,0-4.6-3.8-17.7-30.3-13.8-27.7-15.5-30.6-20.1-33.8l-5.2-3.6-20.2-.4-20.2-.4v49.1h0Z"/>
  <path class="st0" d="M428.6,30.8c0,32.4,1.2,40.9,6.6,50.3,3.9,6.7,11.5,12.9,19.6,16.2,6.5,2.7,8.5,2.8,47.8,3.2l40.9.4V1.2h-27.5v74.6l-23.6-.5c-22.2-.4-24-.5-28-3.2-7.6-4.6-8.3-8.2-8.3-41.6V1.2h-27.5v29.6h0Z"/>
  <path class="st0" d="M560.4,50.2v49.2h27.5V31.2h2.8c2.3,0,4.4,3.8,15.8,27.5,7.3,15.2,14.7,29.6,16.7,31.9,6.1,7.6,10.7,8.9,31.7,8.9h18.2V1.2h-26.3v68.3h-2.8c-2.3,0-4.6-4-17.7-30.3-13.6-27.7-15.5-30.6-20.1-33.8l-5.2-3.6-20.2-.4-20.2-.4v49.1h0Z"/>
  <path class="st0" d="M812,50.3v49.1h27.5v-37.2h58.7v37.2h26.3V1.2h-26.3v35.9h-58.7V1.2h-27.5v49.1Z"/>
  <path class="st0" d="M942.6,30.8c0,32.4,1.2,40.9,6.6,50.3,3.9,6.7,11.5,12.9,19.6,16.2,6.5,2.7,8.5,2.8,47.8,3.2l40.9.4V1.2h-27.5v74.6l-23.6-.5c-27.1-.4-29.7-1.2-33.9-10-2.2-4.5-2.4-7.6-2.4-34.5V1.2h-27.5v29.6h0Z"/>
</svg>