<svg width="224" height="18" viewBox="0 0 224 18" fill="none" xmlns="http://www.w3.org/2000/svg">
<g clip-path="url(#clip0_1144_1618)">
<path d="M136.929 0.322718C133.238 1.3027 130.891 3.79721 130.361 7.44988C129.736 11.6015 131.534 15.2719 134.922 16.8756C136.986 17.8555 138.292 17.9981 143.137 17.9268C147.87 17.8377 148.93 17.6061 150.69 16.341L151.428 15.7708L150.065 14.0781C149.327 13.1694 148.627 12.3854 148.57 12.3854C148.513 12.3854 147.87 12.6527 147.169 12.9734C145.939 13.5614 145.731 13.5792 142.494 13.5792C139.257 13.5792 137.762 13.3832 136.607 12.1894C134.468 9.94439 135.093 6.22045 137.894 4.7772C138.519 4.45647 139.2 4.3852 142.361 4.3852C145.522 4.3852 146.147 4.3852 147.321 4.97319C147.983 5.31173 148.551 5.579 148.57 5.579C148.608 5.579 149.27 4.81283 150.046 3.86848L151.428 2.15796L150.501 1.51652C148.702 0.287082 147.15 0.00199554 142.267 0.0198135C139.541 0.0198135 137.535 0.126721 136.91 0.3049L136.929 0.322718Z" fill="#0C0C0F"/>
<path d="M219.93 1.60557C217.867 2.46083 214.555 3.86844 212.567 4.70589C210.561 5.52551 208.876 6.22041 208.763 6.22041C208.649 6.22041 208.573 4.86625 208.573 3.227V0.23359H203.368V17.7308H208.573V11.6014L210.239 10.9065C211.11 10.5323 212.189 10.1047 212.586 9.92653L213.305 9.62363L215.861 13.6861L218.397 17.7486H221.18C222.732 17.7486 223.962 17.713 223.962 17.6239C223.962 17.5348 222.656 15.361 221.009 12.7418C219.4 10.1225 218.056 7.87747 218.056 7.77057C218.056 7.66366 219.344 7.05785 220.953 6.39859L223.83 5.18697L223.905 2.62119C223.943 1.17794 223.905 0.0197754 223.811 0.0197754C223.716 0.0197754 221.937 0.732492 219.892 1.60557H219.93Z" fill="#0C0C0F"/>
<path d="M5.92462 5.89974C2.70678 9.03569 0 11.6549 0 11.744C0 11.8153 1.38178 13.2229 3.14213 14.8621L6.32212 17.8556L11.8303 12.6705C14.8589 9.81968 17.5089 7.50335 17.736 7.50335C18.0767 7.50335 18.1335 7.78844 18.1335 10.0691V12.6171L21.711 12.6884L25.2696 12.7596L25.3453 15.2541L25.421 17.7665H32.0838L38.1788 12.0291L44.2359 6.29173L41.0559 3.31614C39.2956 1.65908 37.7624 0.34055 37.6488 0.358368C37.5352 0.394004 34.9799 2.72815 31.9703 5.5612C28.4685 8.85751 26.3863 10.6571 26.1781 10.568C25.9321 10.4789 25.8374 9.89095 25.7806 7.9488L25.7049 5.43647L22.1464 5.3652L18.5689 5.29393V0.233643H11.8492L5.94355 5.91756L5.92462 5.89974Z" fill="#0C0C0F"/>
<path d="M56.407 8.96441V17.7308H61.6123V11.6549C61.6123 5.63246 61.6123 5.57901 62.1045 5.57901C62.5966 5.57901 63.032 6.4699 65.2655 10.7462C66.8366 13.8109 68.2184 16.1807 68.6159 16.5192C69.7894 17.5883 70.6412 17.7486 74.3512 17.7486H77.7583V0.233634H72.7801V12.4033H72.2501C71.7959 12.4033 71.3794 11.7262 68.8998 7.00444C66.2877 2.06888 65.9659 1.55216 65.0952 0.981986L64.1109 0.340541L60.2873 0.26927L56.4638 0.197998V8.94659L56.407 8.96441Z" fill="#0C0C0F"/>
<path d="M81.1277 5.50774C81.1277 11.2807 81.3548 12.7953 82.377 14.4702C83.1152 15.664 84.5537 16.7687 86.087 17.3567C87.3173 17.8377 87.6959 17.8556 95.1348 17.9268L102.877 17.9981V0.233643H97.6712V13.5258L93.2041 13.4367C89.0019 13.3654 88.6612 13.3476 87.9041 12.8665C86.4655 12.0469 86.333 11.4055 86.333 5.45429V0.233643H81.1277V5.50774Z" fill="#0C0C0F"/>
<path d="M106.075 8.96441V17.7308H111.281V5.57901H111.811C112.246 5.57901 112.644 6.25609 114.801 10.4789C116.183 13.1873 117.584 15.753 117.963 16.1628C119.117 17.517 119.988 17.7486 123.963 17.7486H127.408V0.233634H122.43V12.4033H121.9C121.464 12.4033 121.029 11.6906 118.549 7.00444C115.975 2.06888 115.615 1.55216 114.745 0.981986L113.76 0.340541L109.937 0.26927L106.113 0.197998V8.94659L106.075 8.96441Z" fill="#0C0C0F"/>
<path d="M153.699 8.98224V17.7308H158.905V11.1026H170.016V17.7308H174.994V0.233643H170.016V6.63027H158.905V0.233643H153.699V8.98224Z" fill="#0C0C0F"/>
<path d="M178.42 5.50774C178.42 11.2807 178.647 12.7953 179.669 14.4702C180.408 15.664 181.846 16.7687 183.379 17.3567C184.61 17.8377 184.988 17.8556 192.427 17.9268L200.169 17.9981V0.233643H194.964V13.5258L190.497 13.4367C185.367 13.3654 184.875 13.2229 184.08 11.6549C183.663 10.8531 183.626 10.3008 183.626 5.50774V0.233643H178.42V5.50774Z" fill="#0C0C0F"/>
</g>
<defs>
<clipPath id="clip0_1144_1618">
<rect width="224" height="18" fill="white"/>
</clipPath>
</defs>
</svg>
