<svg xmlns="http://www.w3.org/2000/svg" width="166" height="38" viewBox="0 0 166 38" fill="none">
  <g clip-path="url(#clip0_480_108)">
    <mask id="mask0_480_108" style="mask-type:luminance" maskUnits="userSpaceOnUse" x="0" y="0" width="166" height="38">
      <path d="M165.921 0.75H0.920898V37.75H165.921V0.75Z" fill="white"/>
    </mask>
    <g mask="url(#mask0_480_108)">
      <path d="M55.4414 23.4291C55.8993 23.439 56.3567 23.3937 56.8037 23.294C57.1121 23.2258 57.4049 23.1002 57.6667 22.924C57.8669 22.786 58.0229 22.5933 58.1159 22.369C58.2018 22.1376 58.244 21.8924 58.2402 21.6457C58.2402 21.0814 57.9748 20.6115 57.4403 20.2397C56.9058 19.8678 55.9907 19.4627 54.6915 19.0298C54.1261 18.83 53.56 18.6018 52.9933 18.3453C52.4407 18.097 51.9274 17.7698 51.4695 17.374C51.0132 16.9772 50.6393 16.4951 50.3689 15.9551C50.0676 15.3198 49.922 14.6224 49.9438 13.9201C49.9321 13.1772 50.0862 12.4411 50.3949 11.7648C50.6889 11.1313 51.1244 10.5732 51.6681 10.1332C52.2604 9.66196 52.9395 9.31066 53.667 9.09903C54.527 8.84459 55.4204 8.71987 56.3174 8.72903C57.3377 8.70889 58.3557 8.83348 59.3409 9.09903C60.0672 9.29958 60.7707 9.57486 61.44 9.92043L60.3134 12.9932C59.7945 12.7306 59.2551 12.5104 58.7005 12.3346C58.0078 12.1285 57.287 12.0317 56.5643 12.0479C55.6301 12.0479 54.9594 12.1762 54.5523 12.4327C54.1461 12.6858 53.9112 13.14 53.9398 13.6167C53.9309 13.8994 54.01 14.178 54.1663 14.414C54.3385 14.6479 54.5555 14.8453 54.8048 14.9949C55.1055 15.1828 55.4238 15.3414 55.755 15.4685C56.1139 15.6091 56.5092 15.7547 56.941 15.9051C57.8418 16.2369 58.6251 16.5644 59.2907 16.8875C59.9019 17.1742 60.4628 17.5571 60.9519 18.0215C61.3903 18.4483 61.7277 18.9672 61.9393 19.5404C62.1707 20.2209 62.2807 20.9366 62.2641 21.6549C62.2641 23.2583 61.6974 24.5076 60.564 25.403C59.4306 26.2984 57.723 26.7424 55.4414 26.735C54.7479 26.7397 54.055 26.6939 53.3682 26.5981C52.8161 26.5201 52.2694 26.4083 51.7312 26.2633C51.3135 26.1499 50.9042 26.0077 50.5062 25.8378C50.212 25.7123 49.9245 25.5715 49.645 25.416L50.7438 22.3265C51.3523 22.6465 51.9931 22.9014 52.6555 23.0868C53.5629 23.3292 54.5003 23.4419 55.4395 23.4217" fill="white"/>
      <path d="M69.7104 9.50602C69.7407 10.1124 69.4977 10.7006 69.0478 11.1099C68.1536 11.8898 66.8184 11.8898 65.9241 11.1099C65.4732 10.6998 65.2302 10.11 65.2615 9.50232C65.2307 8.89528 65.4738 8.30629 65.9241 7.89652C66.8175 7.11425 68.1545 7.11425 69.0478 7.89652C69.4982 8.30629 69.7412 8.89528 69.7104 9.50232V9.50602ZM69.3596 26.3909H65.6365V13.2929H69.3596V26.3909Z" fill="white"/>
      <path d="M85.0783 25.971C84.7442 26.0709 84.3619 26.156 83.9295 26.2577C83.497 26.3595 83.0423 26.4279 82.5671 26.4945C82.092 26.5611 81.6094 26.6129 81.1176 26.6555C80.6257 26.698 80.1562 26.7184 79.7052 26.7184C78.7188 26.7339 77.7376 26.5735 76.8079 26.2448C75.9995 25.9563 75.2654 25.4925 74.6586 24.8869C74.0619 24.278 73.6053 23.547 73.3205 22.7446C73.0006 21.8368 72.8442 20.8798 72.8583 19.9178C72.8458 18.9442 72.9809 17.9743 73.2592 17.041C73.4935 16.2458 73.884 15.505 74.4081 14.8617C74.903 14.2674 75.532 13.7982 76.2437 13.4927C77.0307 13.1645 77.8777 13.0032 78.7308 13.0191C79.1971 13.014 79.6625 13.0637 80.1172 13.1671C80.5414 13.2722 80.9556 13.414 81.3552 13.5908V7.67079L85.0783 7.07324V25.971ZM76.6576 19.7439C76.6576 20.8884 76.9156 21.8097 77.4315 22.5078C77.9475 23.2058 78.714 23.5549 79.7311 23.5549C80.0634 23.5549 80.3715 23.5419 80.6592 23.5179C80.9468 23.4938 81.1751 23.4642 81.3589 23.4291V16.6803C81.0752 16.5113 80.7672 16.3865 80.4457 16.3103C80.0753 16.2109 79.6934 16.1606 79.3098 16.1604C77.5429 16.1604 76.66 17.3561 76.6613 19.7476" fill="white"/>
      <path d="M88.577 19.9437C88.555 18.9011 88.7372 17.8643 89.1134 16.8912C89.4337 16.0782 89.9139 15.3372 90.5258 14.7119C91.0974 14.1379 91.7825 13.6887 92.5377 13.3929C93.2809 13.0965 94.074 12.9446 94.8744 12.9452C96.7391 12.9452 98.2134 13.5137 99.2973 14.6509C100.381 15.788 100.923 17.4604 100.921 19.6681C100.921 19.8845 100.921 20.1213 100.895 20.3785C100.869 20.6356 100.862 20.865 100.845 21.063H92.4004C92.4663 21.7993 92.8609 22.467 93.475 22.8815C94.1073 23.3317 94.9567 23.5561 96.0233 23.5549C96.6983 23.5559 97.3719 23.494 98.0352 23.3699C98.5876 23.2757 99.1278 23.1213 99.6463 22.9093L100.145 25.9229C99.8886 26.045 99.6216 26.1446 99.3475 26.2207C98.9814 26.3288 98.6096 26.4165 98.2338 26.4835C97.8255 26.5575 97.3887 26.6191 96.9235 26.6685C96.4587 26.718 95.9915 26.7427 95.5241 26.7425C94.4711 26.7656 93.4235 26.5879 92.4375 26.2189C91.6163 25.9066 90.8742 25.4177 90.2641 24.787C89.6833 24.1729 89.2476 23.4372 88.989 22.6336C88.7084 21.7647 88.5693 20.8565 88.577 19.9437ZM97.3225 18.5229C97.307 18.209 97.2521 17.8983 97.1592 17.5979C97.0725 17.3068 96.9287 17.0358 96.736 16.8006C96.5363 16.5621 96.2892 16.3675 96.0103 16.2289C95.6711 16.0682 95.2981 15.9908 94.9227 16.0032C94.5537 15.9942 94.1873 16.0669 93.8499 16.216C93.5655 16.3459 93.3123 16.5351 93.1075 16.771C92.9006 17.0101 92.7412 17.2864 92.6379 17.585C92.5309 17.8855 92.4514 18.1951 92.4004 18.51L97.3225 18.5229Z" fill="white"/>
      <path d="M109.392 23.4291C109.85 23.439 110.308 23.3937 110.755 23.294C111.063 23.2261 111.355 23.1006 111.616 22.924C111.817 22.7861 111.973 22.5934 112.067 22.369C112.153 22.1376 112.195 21.8924 112.191 21.6457C112.191 21.0814 111.924 20.6115 111.391 20.2397C110.859 19.8678 109.942 19.4627 108.642 19.0298C108.077 18.83 107.511 18.6018 106.944 18.3453C106.389 18.0944 105.874 17.7641 105.415 17.3648C104.959 16.9677 104.586 16.4857 104.316 15.9458C104.015 15.3106 103.869 14.6131 103.891 13.9108C103.88 13.1682 104.033 12.4322 104.34 11.7556C104.636 11.1223 105.072 10.5643 105.615 10.1238C106.207 9.65226 106.887 9.30092 107.614 9.08969C108.474 8.83527 109.366 8.71055 110.263 8.71969C112.044 8.68175 113.806 9.09283 115.385 9.91479L114.261 12.9784C113.743 12.7207 113.206 12.5054 112.653 12.3346C111.961 12.1286 111.24 12.0319 110.517 12.0479C109.584 12.0479 108.913 12.1761 108.505 12.4327C108.099 12.6858 107.864 13.14 107.893 13.6167C107.884 13.8991 107.962 14.1774 108.117 14.414C108.29 14.6477 108.507 14.8451 108.756 14.9949C109.056 15.1825 109.374 15.341 109.704 15.4685C110.062 15.6091 110.458 15.7546 110.892 15.9051C111.793 16.2369 112.575 16.5643 113.24 16.8875C113.854 17.1736 114.418 17.5565 114.91 18.0215C115.349 18.4482 115.686 18.9671 115.898 19.5404C116.127 20.2213 116.234 20.937 116.215 21.6549C116.215 23.2582 115.648 24.5076 114.515 25.403C113.381 26.2984 111.674 26.7424 109.392 26.735C108.699 26.7396 108.006 26.6939 107.319 26.5981C106.767 26.5205 106.22 26.4086 105.682 26.2633C105.264 26.1499 104.855 26.0077 104.457 25.8378C104.162 25.7118 103.874 25.5711 103.594 25.416L104.695 22.3265C105.303 22.6468 105.944 22.9017 106.606 23.0868C107.514 23.3292 108.451 23.4419 109.39 23.4217" fill="#A8A8A8"/>
      <path d="M127.271 18.88C126.94 20.1417 126.586 21.3954 126.21 22.6411C125.834 23.8867 125.438 25.1404 125.022 26.4021H122.119C121.818 25.7041 121.492 24.8734 121.141 23.9102C120.79 22.9469 120.426 21.8986 120.051 20.7652C119.68 19.6293 119.296 18.4255 118.899 17.154C118.502 15.8824 118.121 14.5997 117.757 13.306H121.681C121.815 13.9041 121.961 14.556 122.121 15.2614C122.281 15.9669 122.448 16.6933 122.624 17.4407C122.801 18.1881 122.986 18.9392 123.181 19.694C123.375 20.4488 123.572 21.1753 123.771 21.8733C123.989 21.1432 124.202 20.3964 124.409 19.633C124.617 18.8695 124.817 18.1178 125.009 17.3778C125.199 16.6378 125.385 15.9237 125.566 15.2355C125.746 14.5473 125.897 13.8998 126.017 13.293H128.715C128.849 13.8912 128.999 14.5344 129.166 15.2226C129.333 15.9108 129.508 16.6249 129.69 17.3649C129.873 18.1049 130.065 18.8566 130.265 19.62C130.466 20.3835 130.674 21.1302 130.891 21.8604C131.091 21.1635 131.292 20.4371 131.494 19.6811C131.695 18.925 131.881 18.1739 132.051 17.4278C132.226 16.6804 132.394 15.9539 132.554 15.2485C132.713 14.543 132.86 13.8912 132.993 13.293H136.867C136.496 14.588 136.116 15.8707 135.727 17.141C135.339 18.4114 134.955 19.6151 134.575 20.7522C134.204 21.8894 133.835 22.9377 133.47 23.8972C133.105 24.8568 132.776 25.6874 132.481 26.3892H129.595C129.179 25.1275 128.772 23.8738 128.372 22.6281C127.972 21.3825 127.605 20.1331 127.271 18.88Z" fill="#A8A8A8"/>
      <path d="M143.951 12.9434C144.882 12.9186 145.81 13.0435 146.7 13.3134C147.367 13.522 147.972 13.8897 148.463 14.3845C148.908 14.8647 149.227 15.4468 149.391 16.0791C149.582 16.8036 149.674 17.5503 149.666 18.2991V26.021C149.132 26.137 148.389 26.2739 147.439 26.4317C146.298 26.6032 145.144 26.6824 143.99 26.6685C143.214 26.6752 142.44 26.6002 141.68 26.4447C141.041 26.3157 140.434 26.0644 139.892 25.7047C139.397 25.3695 139.001 24.9092 138.743 24.3708C138.459 23.7376 138.321 23.0481 138.343 22.3543C138.321 21.6772 138.481 21.0066 138.807 20.4118C139.104 19.8904 139.529 19.453 140.043 19.1409C140.59 18.8129 141.191 18.5807 141.817 18.4545C142.499 18.3123 143.194 18.2416 143.89 18.2436C144.32 18.2415 144.75 18.2625 145.178 18.3065C145.486 18.335 145.791 18.3888 146.09 18.4675V18.1252C146.115 17.5615 145.908 17.0118 145.516 16.6045C145.131 16.2234 144.465 16.0329 143.517 16.0329C142.89 16.0327 142.263 16.0785 141.643 16.1698C141.097 16.2432 140.561 16.3728 140.043 16.5564L139.568 13.5668C139.784 13.5002 140.055 13.4299 140.38 13.3559C140.705 13.2801 141.058 13.2135 141.442 13.1561C141.826 13.0988 142.229 13.047 142.654 13.0063C143.079 12.9656 143.508 12.9434 143.94 12.9434H143.951ZM144.241 23.8029C144.612 23.8029 144.957 23.8029 145.291 23.7788C145.559 23.7688 145.825 23.7441 146.09 23.7048V20.8891C145.867 20.8447 145.642 20.8113 145.416 20.7892C145.142 20.7584 144.866 20.7417 144.59 20.7393C144.26 20.7387 143.931 20.7597 143.604 20.8022C143.322 20.8363 143.048 20.9163 142.791 21.039C142.567 21.1445 142.374 21.308 142.235 21.5126C142.096 21.734 142.026 21.9916 142.034 22.2526C142.034 22.8335 142.229 23.2368 142.623 23.4606C143.016 23.6845 143.551 23.7955 144.234 23.7955" fill="#A8A8A8"/>
      <path d="M165.893 19.8438C165.905 20.7781 165.78 21.7092 165.522 22.6077C165.298 23.3862 164.924 24.1138 164.422 24.75C163.939 25.3481 163.323 25.8258 162.623 26.1449C161.844 26.493 160.998 26.6654 160.145 26.6499C159.658 26.6527 159.172 26.6031 158.696 26.502C158.25 26.4037 157.815 26.2617 157.397 26.0783V31.0085H153.671V13.7406C154.004 13.6407 154.388 13.5556 154.82 13.4539C155.253 13.3521 155.708 13.2837 156.183 13.2171C156.658 13.1505 157.14 13.0968 157.632 13.0561C158.124 13.0154 158.594 12.9932 159.045 12.9932C160.032 12.9772 161.014 13.1421 161.942 13.4798C162.749 13.7763 163.482 14.2433 164.091 14.8488C164.688 15.4618 165.144 16.1973 165.427 17.004C165.747 17.9164 165.904 18.8775 165.891 19.8438H165.893ZM162.092 19.9437C162.092 18.7967 161.834 17.8791 161.318 17.1909C160.802 16.5027 160.036 16.158 159.019 16.1567C158.685 16.1567 158.376 16.1697 158.091 16.1937C157.805 16.2178 157.573 16.2492 157.391 16.2825V22.9815C157.674 23.1504 157.981 23.2751 158.302 23.3514C158.673 23.4508 159.056 23.5013 159.44 23.5013C161.204 23.5013 162.087 22.3141 162.089 19.94" fill="#A8A8A8"/>
      <path fill-rule="evenodd" clip-rule="evenodd" d="M36.8888 30.6442L35.185 29.1161C31.5885 34.791 25.1923 38.0812 18.4682 37.7152C11.7441 37.3493 5.74528 33.3845 2.79004 27.3531C8.51214 34.0871 23.2174 32.6589 32.2302 26.4651L29.6318 24.147C36.976 21.1722 38.6557 17.0671 38.691 16.9783C39.6752 21.607 39.0364 26.4321 36.8814 30.6479" fill="white"/>
      <path fill-rule="evenodd" clip-rule="evenodd" d="M0.920931 19.2494C0.912593 14.8 2.52214 10.4984 5.4515 7.14118L5.47378 7.11898C5.574 7.00058 5.67423 6.88403 5.78002 6.77303C5.96562 6.56768 6.15122 6.36788 6.35539 6.16993C9.83448 2.69899 14.555 0.748779 19.4774 0.748779C24.3998 0.748779 29.1204 2.69899 32.5995 6.16993C40.9256 14.4671 30.2089 25.1916 17.0312 24.7809V28.3995L5.68536 20.2891L17.0312 12.1787V15.8324C20.7804 15.2645 27.4008 13.5847 25.4612 8.88943C22.7941 2.40333 4.04093 3.89443 0.920931 19.2494Z" fill="#A8A8A8"/>
    </g>
  </g>
  <defs>
    <clipPath id="clip0_480_108">
      <rect width="165" height="37" fill="white" transform="translate(0.920898 0.75)"/>
    </clipPath>
  </defs>
</svg>