<svg width="166" height="37" viewBox="0 0 166 37" fill="none" xmlns="http://www.w3.org/2000/svg">
<g clip-path="url(#clip0_1144_1533)">
<mask id="mask0_1144_1533" style="mask-type:luminance" maskUnits="userSpaceOnUse" x="0" y="0" width="166" height="37">
<path d="M165.171 0H0.171143V37H165.171V0Z" fill="white"/>
</mask>
<g mask="url(#mask0_1144_1533)">
<path d="M54.6917 22.679C55.1496 22.6889 55.607 22.6436 56.054 22.5439C56.3624 22.4757 56.6552 22.3501 56.917 22.1739C57.1172 22.0359 57.2732 21.8432 57.3662 21.6189C57.4521 21.3875 57.4943 21.1423 57.4905 20.8956C57.4905 20.3313 57.2251 19.8614 56.6906 19.4896C56.1561 19.1177 55.241 18.7126 53.9418 18.2797C53.3764 18.0799 52.8103 17.8517 52.2436 17.5952C51.691 17.3469 51.1777 17.0197 50.7198 16.6239C50.2635 16.2271 49.8896 15.745 49.6192 15.205C49.3179 14.5697 49.1723 13.8723 49.1941 13.17C49.1824 12.4271 49.3365 11.691 49.6452 11.0147C49.9392 10.3812 50.3747 9.82306 50.9184 9.38306C51.5107 8.91184 52.1898 8.56054 52.9173 8.34891C53.7773 8.09447 54.6707 7.96975 55.5677 7.97891C56.588 7.95877 57.606 8.08336 58.5912 8.34891C59.3175 8.54946 60.021 8.82474 60.6903 9.17031L59.5637 12.2431C59.0448 11.9805 58.5054 11.7603 57.9508 11.5845C57.2581 11.3784 56.5373 11.2816 55.8146 11.2978C54.8804 11.2978 54.2097 11.4261 53.8026 11.6826C53.3964 11.9357 53.1615 12.3899 53.1901 12.8666C53.1812 13.1493 53.2603 13.4279 53.4166 13.6639C53.5888 13.8978 53.8058 14.0952 54.0551 14.2448C54.3558 14.4327 54.6741 14.5913 55.0053 14.7184C55.3642 14.859 55.7595 15.0046 56.1913 15.155C57.0921 15.4868 57.8754 15.8143 58.541 16.1374C59.1522 16.4241 59.7131 16.807 60.2022 17.2714C60.6406 17.6982 60.978 18.2171 61.1896 18.7903C61.421 19.4708 61.531 20.1865 61.5144 20.9048C61.5144 22.5082 60.9477 23.7575 59.8143 24.6529C58.6809 25.5483 56.9733 25.9923 54.6917 25.9849C53.9982 25.9896 53.3053 25.9438 52.6185 25.848C52.0664 25.77 51.5197 25.6582 50.9815 25.5132C50.5638 25.3998 50.1545 25.2576 49.7565 25.0877C49.4623 24.9622 49.1748 24.8214 48.8953 24.6659L49.9941 21.5764C50.6026 21.8964 51.2434 22.1513 51.9058 22.3367C52.8132 22.5791 53.7506 22.6918 54.6898 22.6716" fill="#0C0C0F"/>
<path d="M68.9609 8.75602C68.9912 9.36242 68.7482 9.95061 68.2983 10.3599C67.4041 11.1398 66.0689 11.1398 65.1746 10.3599C64.7237 9.94977 64.4807 9.35999 64.512 8.75232C64.4812 8.14528 64.7243 7.55629 65.1746 7.14652C66.068 6.36425 67.405 6.36425 68.2983 7.14652C68.7487 7.55629 68.9917 8.14528 68.9609 8.75232V8.75602ZM68.6101 25.6409H64.887V12.5429H68.6101V25.6409Z" fill="#0C0C0F"/>
<path d="M84.3285 25.221C83.9944 25.3209 83.6121 25.406 83.1797 25.5077C82.7472 25.6095 82.2925 25.6779 81.8173 25.7445C81.3422 25.8111 80.8596 25.8629 80.3678 25.9055C79.8759 25.948 79.4064 25.9684 78.9554 25.9684C77.969 25.9839 76.9878 25.8235 76.0581 25.4948C75.2497 25.2063 74.5156 24.7425 73.9088 24.1369C73.3121 23.528 72.8555 22.797 72.5707 21.9946C72.2508 21.0868 72.0944 20.1298 72.1085 19.1678C72.096 18.1942 72.2311 17.2243 72.5094 16.291C72.7437 15.4958 73.1342 14.755 73.6583 14.1117C74.1532 13.5174 74.7822 13.0482 75.4939 12.7427C76.2809 12.4145 77.1279 12.2532 77.981 12.2691C78.4473 12.264 78.9127 12.3137 79.3674 12.4171C79.7916 12.5222 80.2058 12.664 80.6054 12.8408V6.92079L84.3285 6.32324V25.221ZM75.9078 18.9939C75.9078 20.1384 76.1658 21.0597 76.6817 21.7578C77.1977 22.4558 77.9642 22.8049 78.9813 22.8049C79.3136 22.8049 79.6217 22.7919 79.9094 22.7679C80.197 22.7438 80.4253 22.7142 80.6091 22.6791V15.9303C80.3254 15.7613 80.0174 15.6365 79.6959 15.5603C79.3255 15.4609 78.9436 15.4106 78.56 15.4104C76.7931 15.4104 75.9102 16.6061 75.9115 18.9976" fill="#0C0C0F"/>
<path d="M87.8272 19.1938C87.8052 18.1512 87.9874 17.1144 88.3636 16.1413C88.6839 15.3283 89.1641 14.5873 89.776 13.962C90.3476 13.388 91.0327 12.9388 91.7879 12.643C92.5311 12.3466 93.3242 12.1947 94.1246 12.1953C95.9893 12.1953 97.4636 12.7638 98.5475 13.901C99.6315 15.0381 100.173 16.7105 100.171 18.9182C100.171 19.1346 100.171 19.3714 100.146 19.6286C100.12 19.8857 100.112 20.1151 100.096 20.3131H91.6506C91.7165 21.0494 92.1111 21.7171 92.7252 22.1316C93.3575 22.5818 94.2069 22.8062 95.2735 22.805C95.9485 22.806 96.6221 22.7441 97.2854 22.62C97.8378 22.5258 98.378 22.3714 98.8965 22.1594L99.3957 25.173C99.1388 25.2951 98.8718 25.3947 98.5977 25.4708C98.2316 25.5789 97.8598 25.6666 97.484 25.7336C97.0757 25.8076 96.6389 25.8692 96.1737 25.9186C95.7089 25.9681 95.2417 25.9928 94.7743 25.9926C93.7213 26.0157 92.6737 25.838 91.6877 25.469C90.8665 25.1567 90.1244 24.6678 89.5143 24.0371C88.9335 23.423 88.4978 22.6873 88.2392 21.8837C87.9586 21.0148 87.8195 20.1066 87.8272 19.1938ZM96.5727 17.773C96.5572 17.4591 96.5023 17.1484 96.4094 16.848C96.3227 16.5569 96.1789 16.2859 95.9862 16.0507C95.7865 15.8122 95.5394 15.6176 95.2605 15.479C94.9213 15.3183 94.5483 15.2409 94.1729 15.2533C93.8039 15.2443 93.4375 15.317 93.1001 15.4661C92.8157 15.596 92.5625 15.7852 92.3577 16.0211C92.1508 16.2602 91.9914 16.5365 91.8881 16.8351C91.7811 17.1356 91.7016 17.4452 91.6506 17.7601L96.5727 17.773Z" fill="#0C0C0F"/>
<path d="M108.642 22.6791C109.1 22.689 109.558 22.6437 110.005 22.544C110.313 22.4761 110.605 22.3506 110.866 22.174C111.067 22.0361 111.223 21.8434 111.317 21.619C111.403 21.3876 111.445 21.1424 111.441 20.8957C111.441 20.3314 111.174 19.8615 110.641 19.4897C110.109 19.1178 109.192 18.7127 107.892 18.2798C107.327 18.08 106.761 17.8518 106.194 17.5953C105.639 17.3444 105.124 17.0141 104.665 16.6148C104.209 16.2177 103.836 15.7357 103.566 15.1958C103.265 14.5606 103.119 13.8631 103.141 13.1608C103.13 12.4182 103.283 11.6822 103.59 11.0056C103.886 10.3723 104.322 9.81428 104.865 9.37384C105.457 8.90226 106.137 8.55092 106.864 8.33969C107.724 8.08527 108.616 7.96055 109.513 7.96969C111.294 7.93175 113.056 8.34283 114.635 9.16479L113.511 12.2284C112.993 11.9707 112.456 11.7554 111.903 11.5846C111.211 11.3786 110.49 11.2819 109.767 11.2979C108.834 11.2979 108.163 11.4261 107.755 11.6827C107.349 11.9358 107.114 12.39 107.143 12.8667C107.134 13.1491 107.212 13.4274 107.367 13.664C107.54 13.8977 107.757 14.0951 108.006 14.2449C108.306 14.4325 108.624 14.591 108.954 14.7185C109.312 14.8591 109.708 15.0046 110.142 15.1551C111.043 15.4869 111.825 15.8143 112.49 16.1375C113.104 16.4236 113.668 16.8065 114.16 17.2715C114.599 17.6982 114.936 18.2171 115.148 18.7904C115.377 19.4713 115.484 20.187 115.465 20.9049C115.465 22.5082 114.898 23.7576 113.765 24.653C112.631 25.5484 110.924 25.9924 108.642 25.985C107.949 25.9896 107.256 25.9439 106.569 25.8481C106.017 25.7705 105.47 25.6586 104.932 25.5133C104.514 25.3999 104.105 25.2577 103.707 25.0878C103.412 24.9618 103.124 24.8211 102.844 24.666L103.945 21.5765C104.553 21.8968 105.194 22.1517 105.856 22.3368C106.764 22.5792 107.701 22.6919 108.64 22.6717" fill="#151518"/>
<path d="M126.521 18.13C126.19 19.3917 125.836 20.6454 125.46 21.8911C125.084 23.1367 124.688 24.3904 124.272 25.6521H121.369C121.068 24.9541 120.742 24.1234 120.391 23.1602C120.04 22.1969 119.676 21.1486 119.301 20.0152C118.93 18.8793 118.546 17.6755 118.149 16.404C117.752 15.1324 117.371 13.8497 117.007 12.556H120.931C121.065 13.1541 121.211 13.806 121.371 14.5114C121.531 15.2169 121.698 15.9433 121.874 16.6907C122.051 17.4381 122.236 18.1892 122.431 18.944C122.625 19.6988 122.822 20.4253 123.021 21.1233C123.239 20.3932 123.452 19.6464 123.659 18.883C123.867 18.1195 124.067 17.3678 124.259 16.6278C124.449 15.8878 124.635 15.1737 124.816 14.4855C124.996 13.7973 125.147 13.1498 125.267 12.543H127.965C128.099 13.1412 128.249 13.7844 128.416 14.4726C128.583 15.1608 128.758 15.8749 128.94 16.6149C129.123 17.3549 129.315 18.1066 129.515 18.87C129.716 19.6335 129.924 20.3802 130.141 21.1104C130.341 20.4135 130.542 19.6871 130.744 18.9311C130.945 18.175 131.131 17.4239 131.301 16.6778C131.476 15.9304 131.644 15.2039 131.804 14.4985C131.963 13.793 132.11 13.1412 132.243 12.543H136.117C135.746 13.838 135.366 15.1207 134.977 16.391C134.589 17.6614 134.205 18.8651 133.825 20.0022C133.454 21.1394 133.085 22.1877 132.72 23.1472C132.355 24.1068 132.026 24.9374 131.731 25.6392H128.845C128.429 24.3775 128.022 23.1238 127.622 21.8781C127.222 20.6325 126.855 19.3831 126.521 18.13Z" fill="#151518"/>
<path d="M143.201 12.1933C144.132 12.1685 145.06 12.2934 145.95 12.5633C146.617 12.7719 147.222 13.1396 147.713 13.6344C148.158 14.1146 148.477 14.6967 148.641 15.329C148.832 16.0535 148.924 16.8002 148.916 17.549V25.2709C148.382 25.3869 147.639 25.5238 146.689 25.6816C145.548 25.8531 144.394 25.9323 143.24 25.9184C142.464 25.9251 141.69 25.8501 140.93 25.6946C140.291 25.5656 139.684 25.3143 139.142 24.9546C138.647 24.6194 138.251 24.1591 137.993 23.6207C137.709 22.9875 137.571 22.298 137.593 21.6042C137.571 20.9271 137.731 20.2565 138.057 19.6617C138.354 19.1403 138.779 18.7029 139.293 18.3908C139.84 18.0628 140.441 17.8306 141.067 17.7044C141.749 17.5622 142.444 17.4915 143.14 17.4935C143.57 17.4914 144 17.5124 144.428 17.5564C144.736 17.5849 145.041 17.6387 145.34 17.7174V17.3751C145.365 16.8114 145.158 16.2617 144.766 15.8544C144.381 15.4733 143.715 15.2828 142.767 15.2828C142.14 15.2826 141.513 15.3284 140.893 15.4197C140.347 15.4931 139.811 15.6227 139.293 15.8063L138.818 12.8167C139.034 12.7501 139.305 12.6798 139.63 12.6058C139.955 12.53 140.308 12.4634 140.692 12.406C141.076 12.3487 141.479 12.2969 141.904 12.2562C142.329 12.2155 142.758 12.1933 143.19 12.1933H143.201ZM143.491 23.0528C143.862 23.0528 144.207 23.0528 144.541 23.0287C144.809 23.0187 145.075 22.994 145.34 22.9547V20.139C145.117 20.0946 144.892 20.0612 144.666 20.0391C144.392 20.0083 144.116 19.9916 143.84 19.9892C143.51 19.9886 143.181 20.0096 142.854 20.0521C142.572 20.0862 142.298 20.1662 142.041 20.2889C141.817 20.3944 141.624 20.5579 141.485 20.7625C141.346 20.9839 141.276 21.2415 141.284 21.5025C141.284 22.0834 141.479 22.4867 141.873 22.7105C142.266 22.9344 142.801 23.0454 143.484 23.0454" fill="#151518"/>
<path d="M165.143 19.0938C165.155 20.0281 165.03 20.9592 164.772 21.8577C164.548 22.6362 164.174 23.3638 163.672 24C163.189 24.5981 162.573 25.0757 161.873 25.3949C161.094 25.743 160.248 25.9154 159.395 25.8999C158.908 25.9027 158.422 25.8531 157.946 25.752C157.5 25.6537 157.065 25.5117 156.647 25.3283V30.2585H152.921V12.9906C153.254 12.8907 153.638 12.8056 154.07 12.7039C154.503 12.6021 154.958 12.5337 155.433 12.4671C155.908 12.4005 156.39 12.3468 156.882 12.3061C157.374 12.2654 157.844 12.2432 158.295 12.2432C159.282 12.2272 160.264 12.3921 161.192 12.7298C161.999 13.0263 162.732 13.4933 163.341 14.0988C163.938 14.7118 164.394 15.4473 164.677 16.254C164.997 17.1664 165.154 18.1275 165.141 19.0938H165.143ZM161.342 19.1937C161.342 18.0467 161.084 17.1291 160.568 16.4409C160.052 15.7527 159.286 15.408 158.269 15.4067C157.935 15.4067 157.626 15.4197 157.341 15.4437C157.055 15.4678 156.823 15.4992 156.641 15.5325V22.2315C156.924 22.4005 157.231 22.5251 157.552 22.6014C157.923 22.7008 158.306 22.7513 158.69 22.7513C160.454 22.7513 161.337 21.5641 161.339 19.19" fill="#151518"/>
<path fill-rule="evenodd" clip-rule="evenodd" d="M36.139 29.8942L34.4352 28.3661C30.8387 34.041 24.4425 37.3312 17.7184 36.9652C10.9943 36.5993 4.99552 32.6345 2.04028 26.6031C7.76238 33.3371 22.4676 31.9089 31.4804 25.7151L28.882 23.397C36.2262 20.4222 37.9059 16.3171 37.9412 16.2283C38.9254 20.857 38.2866 25.6821 36.1316 29.8979" fill="#0C0C0F"/>
<path fill-rule="evenodd" clip-rule="evenodd" d="M0.171175 18.4994C0.162837 14.05 1.77238 9.74844 4.70174 6.39118L4.72402 6.36898C4.82424 6.25058 4.92447 6.13403 5.03026 6.02303C5.21586 5.81768 5.40146 5.61788 5.60563 5.41993C9.08472 1.94899 13.8052 -0.0012207 18.7276 -0.0012207C23.65 -0.0012207 28.3706 1.94899 31.8497 5.41993C40.1758 13.7171 29.4591 24.4416 16.2814 24.0309V27.6495L4.9356 19.5391L16.2814 11.4287V15.0824C20.0306 14.5145 26.651 12.8347 24.7114 8.13943C22.0443 1.65333 3.29117 3.14443 0.171175 18.4994Z" fill="#151518"/>
</g>
</g>
<defs>
<clipPath id="clip0_1144_1533">
<rect width="165" height="37" fill="white" transform="translate(0.171143)"/>
</clipPath>
</defs>
</svg>
