<svg id="Layer_1" data-name="Layer 1" xmlns="http://www.w3.org/2000/svg" viewBox="0 0 439.89 185.5"><defs><style>.cls-1{fill:#fff;}.cls-2{fill:#00c3ff;}.cls-3{fill:#7ee0ff;}</style></defs><title>blockstream_logo_rgb_white</title><path class="cls-1" d="M193.88,99.5c0,7.31-5.82,9.57-13.91,9.57H170V75.82h8.7c8.57,0,13.77,2.41,13.77,8.47,0,4.14-3,6.5-6.16,7.17C190.08,92.18,193.88,94,193.88,99.5Zm-17.56-10h3.9c3.46,0,5.72-1.54,5.72-4.67,0-3.37-2.31-4.33-6.64-4.33h-3Zm10.92,9.77c0-4-2.84-5.35-6.54-5.35h-4.38v10.4H180C184.21,104.31,187.24,103.44,187.24,99.26Z"/><path class="cls-1" d="M206.56,104.84a5,5,0,0,0,1.45-.24l1.29,4.33a11.61,11.61,0,0,1-4.37.86c-3.8,0-6-2.26-6-6.49V73.42l6.16-.68v30.12C205.12,104.26,205.55,104.84,206.56,104.84Z"/><path class="cls-1" d="M236,96.32c0,8-4.47,13.47-12,13.47s-12-5.1-12-13.47c0-8,4.48-13.42,12-13.42S236,88,236,96.32Zm-17.46,0c0,6.11,1.87,8.8,5.48,8.8s5.49-2.74,5.49-8.8-1.88-8.76-5.44-8.76S218.5,90.31,218.5,96.32Z"/><path class="cls-1" d="M259.39,85.88l-2.79,3.75a7.72,7.72,0,0,0-5.1-1.88c-3.56,0-5.73,2.6-5.73,8.71s2.26,8.33,5.73,8.33a7.73,7.73,0,0,0,5.05-2l2.84,4a12.59,12.59,0,0,1-8.23,2.93c-7.36,0-11.93-5.1-11.93-13.23S243.8,82.9,251.11,82.9A11.86,11.86,0,0,1,259.39,85.88Z"/><path class="cls-1" d="M263.62,109.07V73.42l6.16-.68v36.33Zm22.23,0h-7.07L270,95.16l8.52-11.54H285l-8.47,11.21Z"/><path class="cls-1" d="M307.53,85.93l-2.4,3.7a11,11,0,0,0-6.26-2.16c-2.6,0-4,1-4,2.55s1,2.45,5.34,3.65c5.2,1.4,8.13,3.52,8.13,8,0,5.29-4.91,8.08-10.73,8.08a14.87,14.87,0,0,1-10.15-3.61l3.13-3.51a11,11,0,0,0,6.83,2.55c2.79,0,4.57-1.2,4.57-3,0-2.22-1-2.89-5.77-4.24-5.25-1.44-7.56-3.94-7.56-7.69,0-4.24,3.9-7.41,9.82-7.41A14.28,14.28,0,0,1,307.53,85.93Z"/><path class="cls-1" d="M322.36,109.79c-5-.05-7.65-2.88-7.65-8.32V88h-4V83.62h4V78l6.15-.72v6.35h5.92L326.16,88h-5.3v13.28c0,2.51.82,3.52,2.7,3.52a5.68,5.68,0,0,0,3-1l2.16,4A11.08,11.08,0,0,1,322.36,109.79Z"/><path class="cls-1" d="M347.57,83.28l-1.06,6a8.23,8.23,0,0,0-2.26-.29c-3.08,0-4.67,2.26-5.63,6.54v13.57h-6.16V83.62h5.34l.58,5c1.2-3.65,3.66-5.68,6.64-5.68A8.88,8.88,0,0,1,347.57,83.28Z"/><path class="cls-1" d="M371.94,98.24H356c.43,5.2,2.89,6.88,6.26,6.88a10.59,10.59,0,0,0,6.35-2.26l2.55,3.51a14.63,14.63,0,0,1-9.44,3.42c-7.89,0-12.12-5.24-12.12-13.28,0-7.75,4.09-13.61,11.31-13.61s11.21,4.81,11.21,12.84C372.09,96.56,372,97.57,371.94,98.24ZM366,94c0-4.18-1.49-6.69-5-6.69-2.89,0-4.71,1.93-5,7h10Z"/><path class="cls-1" d="M398.38,105.61l-1.3,4.08c-2.79-.24-4.62-1.25-5.63-3.7a8.67,8.67,0,0,1-7.6,3.8c-5.1,0-8.23-3.22-8.23-7.84,0-5.53,4.19-8.52,11.6-8.52h3.18V92c0-3.32-1.5-4.43-4.77-4.43a22.69,22.69,0,0,0-6.74,1.35l-1.44-4.19a26.32,26.32,0,0,1,9.24-1.82c6.79,0,9.77,3.12,9.77,8.75v10.69C396.46,104.4,397.13,105.12,398.38,105.61Zm-8-3.42V97h-2.56c-4,0-6,1.44-6,4.43,0,2.45,1.25,3.85,3.61,3.85A5.46,5.46,0,0,0,390.4,102.19Z"/><path class="cls-1" d="M437.17,90.64v18.43H431V91.6c0-3.17-1.25-4.09-2.79-4.09-2.12,0-3.42,1.49-4.81,3.85v17.71h-6.16V91.6c0-3.17-1.3-4.09-2.79-4.09-2.17,0-3.47,1.49-4.86,3.85v17.71h-6.16V83.62h5.34l.48,3.32a8.64,8.64,0,0,1,7.36-4,6.2,6.2,0,0,1,6.16,4.28c1.93-2.65,4.28-4.28,7.65-4.28C434.47,82.9,437.17,85.83,437.17,90.64Z"/><path class="cls-2" d="M119.9,59.59A57.3,57.3,0,0,1,127,73.05L133.31,71a64.52,64.52,0,0,0-8.14-15.4Z"/><path class="cls-2" d="M76.64,29.68c-1.69-.07-3.38-.06-5.07,0l.48,6.6a60.82,60.82,0,0,1,7.63.21,59.5,59.5,0,0,1,7.54,1.21l1.69-6.4a65.71,65.71,0,0,0-8.61-1.39C79.08,29.8,77.85,29.72,76.64,29.68Z"/><path class="cls-2" d="M14.75,121.41a65.69,65.69,0,0,1-5.65-17l-6.93,1.09a72.8,72.8,0,0,0,6.37,19.21Z"/><path class="cls-2" d="M11.16,54.75l6.14,3.41a65.74,65.74,0,0,1,11.17-14l-4.7-5.21A73.26,73.26,0,0,0,11.16,54.75Z"/><path class="cls-2" d="M2.47,77.34l6.91,1.22a65.62,65.62,0,0,1,6-16.91l-6.14-3.4A73,73,0,0,0,2.47,77.34Z"/><path class="cls-2" d="M47.46,23.76l2.76,6.45A65.68,65.68,0,0,1,67.65,26l-.5-7A72.29,72.29,0,0,0,47.46,23.76Z"/><path class="cls-2" d="M26.73,36.24l4.7,5.21a66.19,66.19,0,0,1,15.11-9.67l-2.75-6.45A73.13,73.13,0,0,0,26.73,36.24Z"/><path class="cls-2" d="M130.74,139.43l-5.49-4.37a66.23,66.23,0,0,1-13.33,12L115.7,153A72.9,72.9,0,0,0,130.74,139.43Z"/><path class="cls-2" d="M45.31,151.92a66,66,0,0,1-14.91-10l-4.8,5.12a73,73,0,0,0,16.83,11.25Z"/><path class="cls-2" d="M147.65,99a73,73,0,0,0-2.8-28.08l-6.68,2.22a66.86,66.86,0,0,1-.39,39.38l6.61,2.35A73.69,73.69,0,0,0,147.65,99Z"/><path class="cls-2" d="M106.71,145.7l-3.56-5.57a57.76,57.76,0,0,1-14,6l1.56,6.43A64.51,64.51,0,0,0,106.71,145.7Z"/><path class="cls-2" d="M19.78,99.16a59.44,59.44,0,0,1-.16-12.44c.09-1,.21-1.88.34-2.8l-6.51-1.16c-.16,1.1-.3,2.21-.41,3.35a64.82,64.82,0,0,0,.21,14.07Z"/><path class="cls-2" d="M93.36,28.39a65.47,65.47,0,0,1,16.36,7.37l3.9-5.84a72.41,72.41,0,0,0-18.47-8.31Z"/><path class="cls-2" d="M64.82,165l.66-7A66,66,0,0,1,49,153.56L46.07,160A73.26,73.26,0,0,0,64.82,165Z"/><path class="cls-2" d="M30.46,136.55,35,131.73a58.32,58.32,0,0,1-9.23-12.12L19.9,122.7A64.87,64.87,0,0,0,30.46,136.55Z"/><path class="cls-2" d="M116.94,32.14,113,38a66.48,66.48,0,0,1,13.07,12.28L131.69,46A73,73,0,0,0,116.94,32.14Z"/><path class="cls-2" d="M123.66,129.45a63.91,63.91,0,0,0,8.44-15.22L125.87,112a58,58,0,0,1-7.39,13.32Z"/><path class="cls-3" d="M128.85,76.19l-6.27,2.08a49.7,49.7,0,0,1,1.73,18.51,50.32,50.32,0,0,1-2,10.21l6.24,2.21a57.7,57.7,0,0,0,2.38-11.8A56.27,56.27,0,0,0,128.85,76.19Z"/><path class="cls-3" d="M66.39,148.24l.61-6.59a50.13,50.13,0,0,1-11.29-3.06l-2.72,6A56.39,56.39,0,0,0,66.39,148.24Z"/><path class="cls-3" d="M111.8,78.11l5.92-2a48.81,48.81,0,0,0-5.62-10.61l-4.95,3.77A41.71,41.71,0,0,1,111.8,78.11Z"/><path class="cls-3" d="M76,46.08c-1.09,0-2.18,0-3.26,0l.45,6.2a41.16,41.16,0,0,1,9.91.92l1.59-6a48.64,48.64,0,0,0-5.94-.93C77.86,46.18,76.93,46.12,76,46.08Z"/><path class="cls-3" d="M25.87,62.91l5.79,3.21a49.8,49.8,0,0,1,7.8-9.8L35,51.41A55.87,55.87,0,0,0,25.87,62.91Z"/><path class="cls-3" d="M89.17,44.27a49.35,49.35,0,0,1,11.43,5.14l3.67-5.5a56.17,56.17,0,0,0-13.41-6Z"/><path class="cls-3" d="M113,60.22l5.26-4a56,56,0,0,0-10.71-10.09l-3.67,5.5A49.87,49.87,0,0,1,113,60.22Z"/><path class="cls-3" d="M105.92,115.36l4.88,3.87a48.07,48.07,0,0,0,5.82-10.5l-5.87-2.08A42.12,42.12,0,0,1,105.92,115.36Z"/><path class="cls-3" d="M41.65,130l-4.53,4.82A56.15,56.15,0,0,0,49.35,143l2.71-6A49.41,49.41,0,0,1,41.65,130Z"/><path class="cls-3" d="M35.65,96.67a42.7,42.7,0,0,1-.07-8.46c.05-.49.11-1,.17-1.49l-6.13-1.09c-.09.66-.17,1.33-.23,2a49.23,49.23,0,0,0,.1,10Z"/><path class="cls-3" d="M25.32,101.85l-6.54,1a56.43,56.43,0,0,0,4.64,14l5.85-3.09A50,50,0,0,1,25.32,101.85Z"/><path class="cls-3" d="M103.08,133.24l3.56,5.57A56.31,56.31,0,0,0,117.57,129l-5.18-4.11A49.61,49.61,0,0,1,103.08,133.24Z"/><path class="cls-3" d="M29.72,69.61l-5.78-3.2A55.88,55.88,0,0,0,19,80.28l6.51,1.15A49.65,49.65,0,0,1,29.72,69.61Z"/><path class="cls-3" d="M85.36,130.52l1.46,6a48.07,48.07,0,0,0,11.05-4.71l-3.36-5.25A42,42,0,0,1,85.36,130.52Z"/><path class="cls-3" d="M39.93,112.12,34.43,115a47.92,47.92,0,0,0,7.27,9.55L46,120A42.22,42.22,0,0,1,39.93,112.12Z"/><path class="cls-3" d="M72.63,142.18c-.55,0-1.1-.07-1.66-.11l-.61,6.59a56.65,56.65,0,0,0,15.5-1l-1.56-6.43A49.52,49.52,0,0,1,72.63,142.18Z"/><path class="cls-3" d="M38,48.73l4.43,4.91A50.18,50.18,0,0,1,53,46.88l-2.6-6.08A56.66,56.66,0,0,0,38,48.73Z"/><path class="cls-3" d="M54.06,39.23l2.6,6.09a49.7,49.7,0,0,1,12.18-3l-.47-6.59A56.22,56.22,0,0,0,54.06,39.23Z"/><path class="cls-2" d="M70.77,165.5A83.25,83.25,0,0,0,89.38,164l-1.46-6.75a66.37,66.37,0,0,1-16.17,1.33c-.87,0-1.5-.11-2.37-.18l-.61,7.07a17.53,17.53,0,0,0,2,0Z"/></svg>