<svg id="Layer_1" data-name="Layer 1" xmlns="http://www.w3.org/2000/svg" viewBox="0 0 100 100"><defs><style>.cls-1{fill:#fb0;}</style></defs><title>transaction_btc</title><path class="cls-1" d="M64.54,50.82A8.34,8.34,0,0,0,61.91,49L61.72,49a8.31,8.31,0,0,0,2.07-1.74,7.4,7.4,0,0,0,1.33-2.34,8.17,8.17,0,0,0,.41-2.56,7.52,7.52,0,0,0-.67-3.13,6.52,6.52,0,0,0-2.23-2.59A11,11,0,0,0,58.9,35a22.67,22.67,0,0,0-5.33-.54H51.88v-5.8h-3v5.8H45.13v-5.8h-3v5.8H33.46v3.95h3.92v23H33.46v3.95h8.69v5.86h3V65.33H48.9v5.86h3V65.33h2.18a19.34,19.34,0,0,0,5.75-.73,11.23,11.23,0,0,0,3.89-2,7.52,7.52,0,0,0,2.2-3,9.39,9.39,0,0,0,.63-3.39,8.54,8.54,0,0,0-.46-2.84A6.77,6.77,0,0,0,64.54,50.82Zm-21-12.41h9.73a14,14,0,0,1,3.16.29,3.72,3.72,0,0,1,1.56.72,2.12,2.12,0,0,1,.66,1.07,7.75,7.75,0,0,1,.23,2A8,8,0,0,1,58.59,45a2.71,2.71,0,0,1-1,1.31,5.13,5.13,0,0,1-2.06.79c-.85.15-8.66.27-10.86.27H43.59Zm16,20.47a2.94,2.94,0,0,1-.87,1.4,4,4,0,0,1-1.74.8,14.15,14.15,0,0,1-3.19.3H43.59V51.33h1.89c2.63,0,10.3.15,11.15.33a4.93,4.93,0,0,1,2.07.86,2.59,2.59,0,0,1,.88,1.3,8.86,8.86,0,0,1,.29,2.42A9.28,9.28,0,0,1,59.55,58.88ZM17.19,64.19a35.83,35.83,0,0,1,8-40.07l-1,4.71,4.31,1L31.39,16.6l-14.12-.87L17,20.14l5.62.35a40.19,40.19,0,0,0,36,68.68l-.95-4.31A35.82,35.82,0,0,1,17.19,64.19Zm69.67-30.3a40.21,40.21,0,0,0-48.28-22.5l1.26,4.23a35.77,35.77,0,0,1,33,61.81l1.07-4.82-4.32-1-2.9,13.17,14.11.88.28-4.41L75.53,81A40.21,40.21,0,0,0,86.86,33.89Z"/></svg>