<svg width="48" height="48" viewBox="0 0 48 48" fill="none" xmlns="http://www.w3.org/2000/svg">
<rect width="47.0605" height="47.0605" rx="12" fill="#FF9417"/>
<path d="M20.6023 27.7833L23.5273 26.0083L26.4523 27.7833L25.6773 24.4583L28.2773 22.2083L24.8523 21.9333L23.5273 18.7833L22.2023 21.9333L18.7772 22.2083L21.3772 24.4583L20.6023 27.7833ZM23.5273 35.0605L20.1473 31.7365H15.324V26.9133L12 23.5333L15.324 20.1533V15.33H20.1473L23.5273 12L26.9073 15.33H31.7305V20.1533L35.0605 23.5333L31.7305 26.9133V31.7365H26.9073L23.5273 35.0605ZM23.5273 31.8778L25.9435 29.4615H29.4555V25.9495L31.8718 23.5333L29.4555 21.117V17.605H25.9435L23.5273 15.1887L21.111 17.605H17.599V21.117L15.1827 23.5333L17.599 25.9495V29.4615H21.111L23.5273 31.8778Z" fill="white"/>
</svg>
