<svg width="17" height="15" viewBox="0 0 17 15" fill="none" xmlns="http://www.w3.org/2000/svg">
<path d="M0.999999 6.36401C0.447715 6.36401 0 6.81173 0 7.36401C0 7.9163 0.447715 8.36401 0.999999 8.36401V7.36401V6.36401ZM16.7071 8.07112C17.0976 7.6806 17.0976 7.04743 16.7071 6.65691L10.3431 0.292946C9.95262 -0.0975785 9.31946 -0.0975785 8.92893 0.292946C8.53841 0.68347 8.53841 1.31664 8.92893 1.70716L14.5858 7.36401L8.92893 13.0209C8.53841 13.4114 8.53841 14.0446 8.92893 14.4351C9.31946 14.8256 9.95262 14.8256 10.3431 14.4351L16.7071 8.07112ZM0.999999 7.36401V8.36401L16 8.36401V7.36401V6.36401L0.999999 6.36401V7.36401Z" fill="#FF9417"/>
</svg>
