<?xml version="1.0" encoding="UTF-8" standalone="no"?>
<svg
   width="24"
   height="24"
   viewBox="0 0 24 24"
   fill="none"
   version="1.1"
   id="svg2"
   sodipodi:docname="BitcoinTestnet-menu-logo.svg"
   inkscape:version="1.4.3 (0d15f75, 2025-12-25)"
   xmlns:inkscape="http://www.inkscape.org/namespaces/inkscape"
   xmlns:sodipodi="http://sodipodi.sourceforge.net/DTD/sodipodi-0.dtd"
   xmlns="http://www.w3.org/2000/svg"
   xmlns:svg="http://www.w3.org/2000/svg">
  <defs
     id="defs2" />
  <sodipodi:namedview
     id="namedview2"
     pagecolor="#ffffff"
     bordercolor="#666666"
     borderopacity="1.0"
     inkscape:showpageshadow="2"
     inkscape:pageopacity="0.0"
     inkscape:pagecheckerboard="0"
     inkscape:deskcolor="#d1d1d1"
     inkscape:zoom="17.333333"
     inkscape:cx="6.8942308"
     inkscape:cy="11.423077"
     inkscape:window-width="1440"
     inkscape:window-height="767"
     inkscape:window-x="0"
     inkscape:window-y="30"
     inkscape:window-maximized="1"
     inkscape:current-layer="svg2" />
  <circle
     cx="11.986537"
     cy="11.976839"
     fill="#ffffff"
     id="circle1"
     r="11.867478"
     style="stroke-width:1.11257" />
  <path
     d="m 10.561554,14.949299 c 1.062284,0.28059 3.384891,0.89373 3.753598,-0.58933 0.378608,-1.516214 -1.874351,-2.022657 -2.972461,-2.268758 -0.123828,-0.02704 -0.230413,-0.05184 -0.319975,-0.07443 l -0.714828,2.866654 c 0.0731,0.01747 0.157651,0.03949 0.253666,0.06586 z m 1.001427,-4.188391 c 0.885831,0.23631 2.818814,0.75221 3.155478,-0.596116 C 15.061466,8.7854802 13.183665,8.3693446 12.266349,8.166556 12.163101,8.14435 12.073652,8.123811 11.998219,8.104953 l -0.648518,2.59977 z"
     fill="#8c8c8c"
     id="path1"
     style="stroke-width:1.11257" />
  <path
     fill-rule="evenodd"
     clip-rule="evenodd"
     d="M 6.2330687,22.354693 C 11.965065,25.531755 19.187218,23.460701 22.363835,17.730618 25.540675,11.999535 23.46862,4.7771261 17.736423,1.6009874 12.008455,-1.5760425 4.7860123,0.49601378 1.6098625,6.2282656 -1.5667201,11.95837 0.50438828,19.180524 6.2337585,22.355917 M 14.680632,7.1934779 c 1.643715,0.567412 2.845738,1.4157263 2.609984,2.9947891 -0.170558,1.156297 -0.812066,1.716477 -1.662183,1.912512 1.168089,0.60791 1.762871,1.540245 1.19646,3.157704 -0.702923,2.007748 -2.373228,2.177638 -4.593034,1.757864 l -0.539597,2.159058 -1.301488,-0.324203 0.530921,-2.130577 c -0.336666,-0.08344 -0.682453,-0.173338 -1.0374749,-0.26991 L 9.3516203,18.591194 8.0501444,18.267101 8.5888743,16.103704 8.2222371,16.008466 c -0.1859554,-0.04973 -0.3730567,-0.0979 -0.561315,-0.144188 L 5.9662627,15.440944 6.6121666,13.951209 c 0,0 0.9595827,0.255113 0.9462319,0.2362 0.3688623,0.09056 0.5324216,-0.149196 0.5970175,-0.309963 l 0.8514852,-3.414707 0.093167,0.02292 0.043947,0.01179 c -0.044147,-0.0178 -0.089529,-0.03237 -0.1357671,-0.04361 L 9.6163575,8.0162697 C 9.6320335,7.7399401 9.5371537,7.3909817 9.010161,7.2600208 9.0296088,7.2447563 8.0639292,7.0238773 8.0639292,7.0238773 l 0.3457875,-1.389859 1.7964823,0.4485893 -0.0019,0.00669 c 0.2708,0.067088 0.54783,0.1324407 0.831092,0.1960576 l 0.534256,-2.1389986 1.301154,0.325116 -0.522686,2.0960087 c 0.349126,0.080239 0.700476,0.1600325 1.043036,0.2456783 l 0.519127,-2.0826357 1.302377,0.3244151 z"
     fill="#8c8c8c"
     id="path2"
     style="stroke-width:1.11257" />
</svg>
