<?xml version="1.0" encoding="UTF-8" standalone="no"?>
<svg
   width="22"
   height="22"
   viewBox="0 0 22 22"
   fill="none"
   version="1.1"
   id="svg2"
   sodipodi:docname="Bitcoin-menu-logo.svg"
   inkscape:version="1.4.3 (0d15f75, 2025-12-25)"
   xmlns:inkscape="http://www.inkscape.org/namespaces/inkscape"
   xmlns:sodipodi="http://sodipodi.sourceforge.net/DTD/sodipodi-0.dtd"
   xmlns="http://www.w3.org/2000/svg"
   xmlns:svg="http://www.w3.org/2000/svg">
  <sodipodi:namedview
     id="namedview2"
     pagecolor="#ffffff"
     bordercolor="#666666"
     borderopacity="1.0"
     inkscape:showpageshadow="2"
     inkscape:pageopacity="0.0"
     inkscape:pagecheckerboard="0"
     inkscape:deskcolor="#d1d1d1"
     inkscape:zoom="16.574163"
     inkscape:cx="4.3139433"
     inkscape:cy="10.890444"
     inkscape:window-width="1385"
     inkscape:window-height="766"
     inkscape:window-x="0"
     inkscape:window-y="30"
     inkscape:window-maximized="0"
     inkscape:current-layer="svg2" />
  <defs
     id="defs2">
    <clipPath
       id="clip0_732_595">
      <rect
         width="24"
         height="24"
         fill="#ffffff"
         id="rect2"
         x="0"
         y="0" />
    </clipPath>
    <clipPath
       id="clip0_732_595-0">
      <rect
         width="24"
         height="24"
         fill="#ffffff"
         id="rect2-5"
         x="0"
         y="0" />
    </clipPath>
  </defs>
  <g
     clip-path="url(#clip0_732_595-0)"
     id="g2"
     transform="matrix(1.0254589,0,0,1.0254589,-1.2951933,-1.2949874)">
    <circle
       cx="12.0002"
       cy="12"
       r="10.6667"
       fill="#ffffff"
       id="circle1" />
    <path
       d="m 10.7191,14.6717 c 0.9548,0.2522 3.0424,0.8033 3.3738,-0.5297 0.3404,-1.3628 -1.6846,-1.8179 -2.6716,-2.0392 -0.1113,-0.0243 -0.2072,-0.0466 -0.2876,-0.0669 l -0.6426,2.5766 c 0.0657,0.0158 0.1417,0.0355 0.228,0.0592 z m 0.9001,-3.7646 c 0.7962,0.2124 2.5336,0.6761 2.8362,-0.5357 C 14.7637,9.13157 13.0759,8.75754 12.2514,8.57527 12.1586,8.55531 12.0783,8.53686 12.0104,8.5199 l -0.5828,2.3368 z"
       fill="#fa8a00"
       id="path1" />
    <path
       fill-rule="evenodd"
       clip-rule="evenodd"
       d="M 6.82886,21.3277 C 11.9809,24.1833 18.4723,22.3218 21.3275,17.1715 24.1829,12.0203 22.3205,5.52867 17.1682,2.6739 12.0199,-0.181671 5.52822,1.68073 2.67345,6.83298 -0.18172,11.9833 1.67982,18.4747 6.82949,21.3288 M 14.4217,7.70053 c 1.4774,0.51 2.5578,1.27248 2.3459,2.69177 -0.1533,1.0393 -0.73,1.5428 -1.4941,1.719 1.05,0.5464 1.5846,1.3844 1.0755,2.8382 -0.6318,1.8046 -2.1331,1.9573 -4.1283,1.58 l -0.485,1.9406 -1.1698,-0.2914 0.4772,-1.915 c -0.3026,-0.075 -0.6134,-0.1558 -0.9325,-0.2426 L 9.63188,17.945 8.46209,17.6537 8.94631,15.7092 8.61677,15.6236 C 8.44963,15.5789 8.28146,15.5356 8.11225,15.494 L 6.58906,15.1135 7.1696,13.7745 c 0,0 0.8625,0.2293 0.8505,0.2123 0.33154,0.0814 0.47855,-0.1341 0.53661,-0.2786 l 0.76533,-3.0692 0.08374,0.0206 0.0395,0.0106 C 9.4056,10.6542 9.36481,10.6411 9.32325,10.631 L 9.86982,8.44007 C 9.88392,8.1917 9.79864,7.87805 9.32497,7.76034 9.34245,7.74662 8.47448,7.54809 8.47448,7.54809 l 0.3108,-1.24923 1.61462,0.4032 -0.0016,0.00601 c 0.2434,0.0603 0.4924,0.11904 0.747,0.17622 l 0.4802,-1.92257 1.1695,0.29222 -0.4698,1.88393 c 0.3138,0.07212 0.6295,0.14384 0.9374,0.22082 l 0.4667,-1.87191 1.1706,0.29159 z"
       fill="#fa8a00"
       id="path2" />
  </g>
</svg>
