<svg width="91" height="91" viewBox="0 0 91 91" fill="none" xmlns="http://www.w3.org/2000/svg">
<rect x="0.5" y="0.5" width="90" height="90" rx="45" fill="#814E16"/>
<g clip-path="url(#clip0_978_55)">
<g clip-path="url(#clip1_978_55)">
<g clip-path="url(#clip2_978_55)">
<path d="M45.5 90.5C70.3528 90.5 90.5 70.3528 90.5 45.5C90.5 20.6472 70.3528 0.5 45.5 0.5C20.6472 0.5 0.5 20.6472 0.5 45.5C0.5 70.3528 20.6472 90.5 45.5 90.5Z" fill="#FF9417"/>
</g>
</g>
</g>
<path d="M60.1875 48.4375H30.8125C30.0013 48.4375 29.3438 49.0951 29.3438 49.9062V58.7188C29.3438 59.5299 30.0013 60.1875 30.8125 60.1875H60.1875C60.9987 60.1875 61.6562 59.5299 61.6562 58.7188V49.9062C61.6562 49.0951 60.9987 48.4375 60.1875 48.4375Z" stroke="white" stroke-width="2" stroke-linecap="round" stroke-linejoin="round"/>
<path d="M60.1875 30.8125H30.8125C30.0013 30.8125 29.3438 31.4701 29.3438 32.2812V41.0938C29.3438 41.9049 30.0013 42.5625 30.8125 42.5625H60.1875C60.9987 42.5625 61.6562 41.9049 61.6562 41.0938V32.2812C61.6562 31.4701 60.9987 30.8125 60.1875 30.8125Z" stroke="white" stroke-width="2" stroke-linecap="round" stroke-linejoin="round"/>
<path d="M55.0469 38.8906C56.2636 38.8906 57.25 37.9043 57.25 36.6875C57.25 35.4707 56.2636 34.4844 55.0469 34.4844C53.8301 34.4844 52.8438 35.4707 52.8438 36.6875C52.8438 37.9043 53.8301 38.8906 55.0469 38.8906Z" fill="white"/>
<path d="M55.0469 56.5156C56.2636 56.5156 57.25 55.5293 57.25 54.3125C57.25 53.0957 56.2636 52.1094 55.0469 52.1094C53.8301 52.1094 52.8438 53.0957 52.8438 54.3125C52.8438 55.5293 53.8301 56.5156 55.0469 56.5156Z" fill="white"/>
<defs>
<clipPath id="clip0_978_55">
<rect width="90" height="90" fill="white" transform="translate(0.5 0.5)"/>
</clipPath>
<clipPath id="clip1_978_55">
<rect width="90" height="90" fill="white" transform="translate(0.5 0.5)"/>
</clipPath>
<clipPath id="clip2_978_55">
<rect width="90" height="90" fill="white" transform="translate(0.5 0.5)"/>
</clipPath>
</defs>
</svg>
