<svg width="48" height="47" viewBox="0 0 45 44" fill="none" xmlns="http://www.w3.org/2000/svg">
<rect width="44.4065" height="43.5858" rx="12" fill="#FF9417"/>
<path d="M14.275 31.5858C13.6453 31.5858 13.1087 31.364 12.6653 30.9205C12.2218 30.477 12 29.9404 12 29.3108V18.55C12 17.9202 12.2218 17.3835 12.6653 16.94C13.1087 16.4967 13.6453 16.275 14.275 16.275H18.018V14.275C18.018 13.6452 18.2398 13.1085 18.6833 12.665C19.1266 12.2217 19.6632 12 20.293 12H24.1135C24.7433 12 25.2799 12.2217 25.7233 12.665C26.1667 13.1085 26.3885 13.6452 26.3885 14.275V16.275H30.1315C30.7612 16.275 31.2978 16.4967 31.7413 16.94C32.1848 17.3835 32.4065 17.9202 32.4065 18.55V29.3108C32.4065 29.9404 32.1848 30.477 31.7413 30.9205C31.2978 31.364 30.7612 31.5858 30.1315 31.5858H14.275ZM14.275 29.3108H30.1315V18.55H14.275V29.3108ZM20.293 16.275H24.1135V14.275H20.293V16.275Z" fill="white"/>
</svg>
