<?xml version="1.0" encoding="utf-8"?>
<!-- Generator: Adobe Illustrator 26.3.1, SVG Export Plug-In . SVG Version: 6.00 Build 0)  -->
<svg version="1.1" id="Layer_1" xmlns="http://www.w3.org/2000/svg" xmlns:xlink="http://www.w3.org/1999/xlink" x="0px" y="0px"
	 viewBox="0 0 822.2 266.1" style="enable-background:new 0 0 822.2 266.1;" xml:space="preserve">
<style type="text/css">
	.st0{fill:#00B45A;}
	.st1{fill:#424549;}
</style>
<g>
	<g id="green">
		<g>
			<g>
				<path class="st0" d="M580.5,205h-0.2H580.5z"/>
				<polygon class="st0" points="587.6,162.1 587.7,162.1 587.7,162.1 				"/>
				<polygon class="st0" points="587.5,230.9 539.2,230.9 538.8,230.9 538.8,230.6 538.8,205 538.8,204.6 539.2,204.6 580.3,204.6 
					580.3,187.1 539.2,187.1 538.8,187.1 538.8,186.7 538.8,162.1 538.8,161.7 539.2,161.7 587.5,161.7 587.5,144.1 519,144.1 
					519,248.5 587.5,248.5 				"/>
				<polygon class="st0" points="519,143.7 518.8,143.7 518.8,143.7 				"/>
			</g>
			<g>
				<path class="st0" d="M695,205h-0.2H695z"/>
				<polygon class="st0" points="702.2,162.1 702.3,162.1 702.3,162.1 				"/>
				<polygon class="st0" points="702.1,230.9 653.7,230.9 653.3,230.9 653.3,230.6 653.3,205 653.3,204.6 653.7,204.6 694.9,204.6 
					694.9,187.1 653.7,187.1 653.3,187.1 653.3,186.7 653.3,162.1 653.3,161.7 653.7,161.7 702.1,161.7 702.1,144.1 633.5,144.1 
					633.5,248.5 702.1,248.5 				"/>
				<polygon class="st0" points="633.5,143.7 633.4,143.7 633.4,143.7 				"/>
			</g>
			<g>
				<polygon class="st0" points="822.2,248 822.2,144.1 802.4,144.1 802.4,199.5 802.4,200.4 801.8,199.8 742.5,144.6 742.5,248.5 
					762.3,248.5 762.3,192.9 762.3,192.1 762.9,192.6 				"/>
				<path class="st0" d="M802.3,143.7L802.3,143.7L802.3,143.7z"/>
				<polygon class="st0" points="762.4,248.8 762.5,248.8 762.5,248.8 				"/>
			</g>
			<g>
				<path class="st0" d="M307.9,248.2c1.3,0.3,2.6,0.5,4,0.7l0.3,0.1c2.1,0.3,4,0.4,5.7,0.4c1.5,0,3.1-0.1,4.7-0.2
					c0.1,0,0.1,0,0.2,0s0.1,0,0.1,0c0.1,0,0.2,0,0.2-0.1c0.1,0,0.2-0.1,0.4-0.1c10.8-0.9,20-5,27-12.1c7.1-7.2,9.9-16.1,9.9-31.8
					v-15h-39v16.4h19h0.4v0.4v4c0,6.2-1.6,11-4.8,14.3c-4.1,4.2-8.9,5.4-12.7,6c-1.5,0.2-3,0.4-4.4,0.4c-13,0-26-10.9-26-35.3
					c0-17.6,7.8-35.4,25.3-35.4c1.2,0,2.5,0.1,3.8,0.2c7.1,1.2,15.4,5.9,18.1,13.8l16.6-9.7c-1.9-3.8-11.1-19.4-33.7-21.7l-0.3-0.1
					l0,0h-0.1c-1.8-0.2-3.3-0.2-4.9-0.2c-3.3,0-6.8,0.4-10,1.2l-0.5,0.1l-0.2,0.1c-0.7,0.2-1.3,0.4-1.9,0.5
					c-20.3,5.8-32.6,25.4-32.1,51.3c0,26.2,12.6,45.8,32.9,51.3v0.2h0.1l0,0l0.1-0.2C306.8,247.9,307.4,248,307.9,248.2z"/>
			</g>
			<path class="st0" d="M454.1,248.5h22.3L450,204.7l0.7-0.2c2.3-0.5,4.3-1,6.2-1.6c11.8-4.3,18.9-14.4,18.9-27.2
				c0-18.7-13.8-31.7-33.7-31.7h-40.8v104.4h19.5v-42.1h8.5L454.1,248.5z M421,161.4h20c9.1,0,15.5,6,15.5,14.5s-6.4,14.5-15.5,14.5
				h-20V161.4z"/>
		</g>
	</g>
	<g id="blockstream">
		<g>
			<path class="st1" d="M310,78.2c2.3,2,3.4,5,3.4,9c0,5.6-2,9.6-5.9,11.9c-4,2.4-9.4,3.5-16.6,3.5h-16.2V48.9h14.1
				c14.8,0,22.2,4.6,22.2,13.7c0.1,2.9-0.9,5.7-2.9,7.7c-1.9,2-4.4,3.3-7.1,3.8C304.4,74.8,307.5,76.2,310,78.2z M285,71.1h6.3
				c2.4,0.1,4.8-0.5,6.8-1.9c1.7-1.3,2.6-3.5,2.5-5.7c0.2-2.1-0.8-4.3-2.6-5.4c-2.6-1.2-5.4-1.7-8.2-1.5H285L285,71.1L285,71.1z
				 M299.7,93.3c2-1.2,3-3.3,3-6.5c0.2-2.6-0.9-5.1-2.9-6.6c-2.3-1.5-5-2.2-7.7-2H285V95h6C293.9,95.2,296.9,94.7,299.7,93.3
				L299.7,93.3z"/>
			<path class="st1" d="M332.2,95.2c0.4,0.5,1.1,0.8,1.8,0.7c0.8,0,1.6-0.1,2.3-0.4l2.1,7c-2.3,0.9-4.6,1.4-7.1,1.4
				c-2.7,0.2-5.2-0.8-7.1-2.7c-1.8-2.2-2.7-5-2.5-7.8V45.2l10-1.1v48.7C331.6,93.6,331.8,94.4,332.2,95.2z"/>
			<path class="st1" d="M375.2,66.2c3.4,3.8,5.1,9.1,5.1,15.9c0.1,3.9-0.7,7.8-2.3,11.4c-1.5,3.2-3.8,5.8-6.7,7.7
				c-3.1,1.9-6.7,2.8-10.4,2.7c-6.1,0-10.8-1.9-14.2-5.8c-3.4-3.8-5.2-9.2-5.2-16c-0.1-3.9,0.7-7.8,2.3-11.3
				c1.5-3.2,3.8-5.8,6.7-7.6c3.2-1.9,6.8-2.8,10.4-2.7C367.1,60.5,371.8,62.3,375.2,66.2z M352,82.1c0,4.9,0.7,8.5,2.2,10.8
				s4,3.6,6.6,3.5c2.7,0.1,5.2-1.2,6.6-3.5c1.5-2.3,2.3-5.9,2.3-10.7s-0.7-8.4-2.3-10.7c-1.4-2.3-3.9-3.6-6.6-3.5
				C355,68,352,72.7,352,82.1L352,82.1L352,82.1z"/>
			<path class="st1" d="M413.5,61.6c2.3,0.9,4.3,2.1,6.1,3.7l-4.5,6.1c-1.2-1-2.6-1.7-4-2.3c-1.3-0.5-2.8-0.7-4.3-0.7
				c-6.2,0-9.3,4.7-9.3,14.1c0,4.7,0.8,8.2,2.4,10.3c1.6,2.1,4.2,3.2,6.9,3.1c1.4,0,2.8-0.2,4.1-0.7c1.5-0.7,2.8-1.5,4.1-2.4
				l4.6,6.5c-3.7,3.1-8.5,4.8-13.3,4.7c-3.6,0.1-7.1-0.8-10.3-2.6c-2.9-1.8-5.2-4.3-6.7-7.4c-1.6-3.6-2.4-7.4-2.3-11.4
				c-0.1-4,0.7-7.9,2.3-11.5c1.4-3.2,3.7-5.8,6.7-7.7c3-1.9,6.6-2.9,10.2-2.7C408.7,60.4,411.1,60.8,413.5,61.6z"/>
			<path class="st1" d="M426.8,102.7V45.1l10-1.1v58.8h-10V102.7z M462.8,102.7h-11.4l-14.2-22.5L451,61.6h10.5l-13.7,18.1
				L462.8,102.7z"/>
			<path class="st1" d="M496,65.3l-3.9,6c-2.9-2.2-6.5-3.4-10.1-3.5c-1.6-0.1-3.3,0.3-4.7,1.2c-1,0.6-1.7,1.8-1.6,3
				c0,0.9,0.2,1.6,0.7,2.3c0.7,0.8,1.6,1.4,2.6,1.8c1.8,0.7,3.5,1.3,5.4,1.8c3.7,0.8,7,2.4,9.9,4.7c2.2,2.1,3.4,5.2,3.2,8.3
				c0.1,3.8-1.8,7.5-5,9.6c-3.7,2.4-8,3.7-12.4,3.5c-3.2,0.1-6.3-0.5-9.3-1.5c-2.6-1-5.1-2.4-7.2-4.3l5.1-5.7
				c3.1,2.6,7,4.1,11.1,4.1c1.9,0.1,3.7-0.4,5.4-1.3c1.2-0.7,2-2.1,2-3.5c0.1-1-0.2-2-0.7-2.9c-0.7-0.9-1.6-1.5-2.6-1.9
				c-1.9-0.8-4-1.5-6-2c-3.5-0.7-6.7-2.4-9.3-4.8c-2-2.1-3-4.9-3-7.7c-0.1-2.3,0.7-4.4,2-6.2c1.5-1.9,3.3-3.4,5.6-4.3
				c2.6-1.1,5.4-1.6,8.3-1.5C486.6,60.2,491.8,62,496,65.3z"/>
			<path class="st1" d="M524,103.1c-1.8,0.5-3.6,0.8-5.5,0.8c-3.5,0.2-6.8-1-9.3-3.5c-2.1-2.3-3.1-5.6-3.1-10V68.7h-6.5v-7.2h6.5
				v-9.1l10-1.2v10.2h9.6l-1,7.2h-8.6v21.5c-0.1,1.5,0.2,3,1,4.3c0.9,1,2.1,1.5,3.3,1.3c1.8-0.1,3.4-0.6,4.9-1.5l3.5,6.5
				C527.4,101.8,525.8,102.6,524,103.1z"/>
			<path class="st1" d="M559,61l-1.7,9.6c-1.2-0.3-2.4-0.5-3.7-0.5c-2.2-0.1-4.3,0.9-5.7,2.6c-1.7,2.4-2.9,5.2-3.3,8v21.9h-10V61.5
				h8.6l0.9,8.1c0.8-2.6,2.3-5,4.3-6.8c1.8-1.5,4.1-2.4,6.5-2.4C556.2,60.4,557.6,60.6,559,61z"/>
			<path class="st1" d="M597.9,85.2h-25.8c0.4,4,1.4,6.8,3.1,8.5c1.9,1.8,4.4,2.7,6.9,2.6c1.8,0,3.5-0.3,5.1-0.9
				c1.8-0.7,3.5-1.6,5.1-2.7l4.1,5.7c-4.3,3.6-9.7,5.5-15.2,5.5c-6.3,0-11.1-1.9-14.5-5.7c-3.4-3.8-5.1-9.1-5.1-15.7
				c-0.1-3.9,0.7-7.7,2.2-11.3c1.3-3.2,3.5-5.9,6.3-7.9c2.9-1.9,6.3-2.9,9.8-2.9c5.8,0,10.2,1.8,13.4,5.5c3.2,3.7,4.7,8.8,4.7,15.3
				C598.2,81.6,598.2,83,597.9,85.2z M588.3,78.2c0-7.2-2.7-10.8-8-10.8c-2.3-0.1-4.4,0.9-5.7,2.7c-1.4,1.8-2.2,4.6-2.4,8.6h16.2
				L588.3,78.2L588.3,78.2z"/>
			<path class="st1" d="M638.5,95.3c0.5,0.9,1.4,1.5,2.4,1.8l-2.1,6.6c-2-0.1-4-0.7-5.7-1.6c-1.6-1-2.7-2.6-3.4-4.3
				c-1.3,2-3.1,3.6-5.2,4.6c-2.2,1-4.6,1.6-7.1,1.5c-3.6,0.2-7.1-1.1-9.7-3.5c-2.4-2.4-3.7-5.7-3.6-9.2c-0.2-4,1.6-7.9,4.9-10.2
				c3.2-2.4,7.9-3.5,13.9-3.5h5.1v-2.3c0.2-2-0.4-4.1-1.8-5.5c-1.7-1.2-3.8-1.8-5.9-1.5c-3.7,0.1-7.4,0.9-10.9,2.2l-2.3-6.8
				c4.7-1.9,9.8-2.9,14.9-3c10.5,0,15.8,4.7,15.8,14.1V92C637.6,93,637.9,94.2,638.5,95.3z M627.9,91.5v-8.4h-4.1
				c-6.4,0-9.6,2.4-9.6,7.2c-0.1,1.7,0.4,3.3,1.5,4.6c1.2,1.2,2.7,1.8,4.4,1.6C623.4,96.6,626.5,94.6,627.9,91.5L627.9,91.5z"/>
			<path class="st1" d="M701.4,63.7c2.1,2.6,3.2,5.8,3,9.1v29.8h-10V74.3c0-4.4-1.5-6.6-4.5-6.6c-1.5,0-3,0.5-4.1,1.5
				c-1.5,1.3-2.7,2.9-3.6,4.6v28.7h-10V74.3c0-4.4-1.5-6.6-4.5-6.6c-1.6,0-3,0.5-4.3,1.5c-1.5,1.3-2.6,2.9-3.6,4.6v28.7h-10v-41h8.6
				l0.8,5.4c2.6-4.1,7.1-6.5,11.9-6.5c2.2-0.1,4.4,0.5,6.2,1.8s3.2,3,3.8,5.1c1.4-2.1,3.2-3.8,5.4-5.2c2.1-1.2,4.5-1.8,6.9-1.8
				C696.4,60.2,699.4,61.4,701.4,63.7z"/>
		</g>
	</g>
	<g id="white">
		<path class="st1" d="M133.7,49.9H49.9v121.9c0,39.1,44.2,66.5,83.1,94.2c39-27.7,83.1-55,83.1-94.2V49.9H133.7z M191.3,171.8
			c0,21.8-28.9,43.1-58.2,63.7c-29.3-20.6-58.2-41.9-58.2-63.7v-97h116.4L191.3,171.8L191.3,171.8z"/>
	</g>
	<g id="dark">
		<path class="st0" d="M25.3,146.8V25.3h141V0H0v121.9c0,24.5,17.2,44.3,39.7,62.5C30.8,173.1,25.3,160.7,25.3,146.8z"/>
	</g>
</g>
</svg>
