<svg width="90" height="90" viewBox="0 0 90 90" fill="none" xmlns="http://www.w3.org/2000/svg">
<g clip-path="url(#clip0_484_831)">
<path d="M45 90C69.8528 90 90 69.8528 90 45C90 20.1472 69.8528 0 45 0C20.1472 0 0 20.1472 0 45C0 69.8528 20.1472 90 45 90Z" fill="#FF9417"/>
<path d="M49.0611 46.9387C48.9218 46.7992 48.7564 46.6886 48.5743 46.6131C48.3922 46.5376 48.197 46.4988 47.9999 46.4988C47.8027 46.4988 47.6075 46.5376 47.4254 46.6131C47.2433 46.6886 47.0779 46.7992 46.9386 46.9387L43.4999 50.3793L39.6205 46.5L43.0611 43.0612C43.3426 42.7797 43.5007 42.398 43.5007 42C43.5007 41.6019 43.3426 41.2202 43.0611 40.9387C42.7796 40.6572 42.3979 40.4991 41.9999 40.4991C41.6018 40.4991 41.2201 40.6572 40.9386 40.9387L37.4999 44.3793L34.0611 40.9387C33.7796 40.6572 33.3979 40.4991 32.9999 40.4991C32.6018 40.4991 32.2201 40.6572 31.9386 40.9387C31.6571 41.2202 31.499 41.6019 31.499 42C31.499 42.398 31.6571 42.7797 31.9386 43.0612L33.1292 44.25L28.7567 48.6206C28.1994 49.1778 27.7574 49.8392 27.4557 50.5673C27.1541 51.2953 26.9989 52.0757 26.9989 52.8637C26.9989 53.6518 27.1541 54.4321 27.4557 55.1601C27.7574 55.8882 28.1994 56.5497 28.7567 57.1068L29.7655 58.1137L24.4386 63.4387C24.2992 63.5781 24.1887 63.7435 24.1133 63.9256C24.0378 64.1077 23.999 64.3029 23.999 64.5C23.999 64.6971 24.0378 64.8922 24.1133 65.0743C24.1887 65.2564 24.2992 65.4218 24.4386 65.5612C24.7201 65.8427 25.1018 66.0008 25.4999 66.0008C25.6969 66.0008 25.8921 65.962 26.0742 65.8865C26.2563 65.8111 26.4217 65.7006 26.5611 65.5612L31.8861 60.2343L32.893 61.2431C33.4502 61.8004 34.1116 62.2425 34.8397 62.5441C35.5677 62.8457 36.3481 63.0009 37.1361 63.0009C37.9242 63.0009 38.7045 62.8457 39.4325 62.5441C40.1606 62.2425 40.8221 61.8004 41.3792 61.2431L45.7499 56.8706L46.9386 58.0612C47.078 58.2006 47.2434 58.3111 47.4255 58.3865C47.6076 58.462 47.8028 58.5008 47.9999 58.5008C48.197 58.5008 48.3921 58.462 48.5742 58.3865C48.7563 58.3111 48.9217 58.2006 49.0611 58.0612C49.2005 57.9218 49.311 57.7564 49.3864 57.5743C49.4619 57.3922 49.5007 57.1971 49.5007 57C49.5007 56.8029 49.4619 56.6077 49.3864 56.4256C49.311 56.2435 49.2005 56.0781 49.0611 55.9387L45.6205 52.5L49.0611 49.0612C49.2006 48.9219 49.3112 48.7565 49.3867 48.5744C49.4622 48.3923 49.501 48.1971 49.501 48C49.501 47.8028 49.4622 47.6076 49.3867 47.4255C49.3112 47.2435 49.2006 47.078 49.0611 46.9387ZM39.2567 59.1262C38.6942 59.6884 37.9314 60.0042 37.1361 60.0042C36.3408 60.0042 35.578 59.6884 35.0155 59.1262L30.8792 54.9843C30.317 54.4218 30.0012 53.659 30.0012 52.8637C30.0012 52.0684 30.317 51.3056 30.8792 50.7431L35.2499 46.3706L43.6292 54.75L39.2567 59.1262ZM65.5611 24.4387C65.4218 24.2992 65.2564 24.1886 65.0743 24.1131C64.8922 24.0376 64.697 23.9988 64.4999 23.9988C64.3027 23.9988 64.1075 24.0376 63.9254 24.1131C63.7434 24.1886 63.5779 24.2992 63.4386 24.4387L58.1136 29.7656L57.1067 28.7568C55.9803 27.6336 54.4544 27.0029 52.8636 27.0029C51.2728 27.0029 49.747 27.6336 48.6205 28.7568L44.2499 33.1293L43.0611 31.9387C42.7796 31.6572 42.3979 31.4991 41.9999 31.4991C41.6018 31.4991 41.2201 31.6572 40.9386 31.9387C40.6571 32.2202 40.499 32.6019 40.499 33C40.499 33.398 40.6571 33.7797 40.9386 34.0612L55.9386 49.0612C56.078 49.2006 56.2434 49.3111 56.4255 49.3865C56.6076 49.462 56.8028 49.5008 56.9999 49.5008C57.197 49.5008 57.3921 49.462 57.5742 49.3865C57.7563 49.3111 57.9217 49.2006 58.0611 49.0612C58.2005 48.9218 58.311 48.7564 58.3864 48.5743C58.4619 48.3922 58.5007 48.1971 58.5007 48C58.5007 47.8029 58.4619 47.6077 58.3864 47.4256C58.311 47.2435 58.2005 47.0781 58.0611 46.9387L56.8705 45.75L61.243 41.3793C61.8003 40.8222 62.2424 40.1607 62.544 39.4326C62.8456 38.7046 63.0008 37.9243 63.0008 37.1362C63.0008 36.3482 62.8456 35.5678 62.544 34.8398C62.2424 34.1117 61.8003 33.4503 61.243 32.8931L60.2342 31.8862L65.5611 26.5612C65.7006 26.4219 65.8112 26.2565 65.8867 26.0744C65.9622 25.8923 66.001 25.6971 66.001 25.5C66.001 25.3028 65.9622 25.1076 65.8867 24.9255C65.8112 24.7435 65.7006 24.578 65.5611 24.4387ZM59.1205 39.2512L54.7499 43.6293L46.3705 35.25L50.743 30.8793C51.3055 30.3172 52.0683 30.0013 52.8636 30.0013C53.6589 30.0013 54.4217 30.3172 54.9842 30.8793L59.1205 35.0043C59.4005 35.2831 59.6228 35.6144 59.7744 35.9793C59.926 36.3442 60.0041 36.7354 60.0041 37.1306C60.0041 37.5257 59.926 37.917 59.7744 38.2819C59.6228 38.6467 59.4005 38.9781 59.1205 39.2568V39.2512Z" fill="white"/>
</g>
<defs>
<clipPath id="clip0_484_831">
<rect width="90" height="90" fill="white"/>
</clipPath>
</defs>
</svg>
