<svg width="91" height="91" viewBox="0 0 91 91" fill="none" xmlns="http://www.w3.org/2000/svg">
<rect x="0.5" y="0.5" width="90" height="90" rx="45" fill="#814E16"/>
<g clip-path="url(#clip0_978_46)">
<g clip-path="url(#clip1_978_46)">
<g clip-path="url(#clip2_978_46)">
<path d="M45.5 90.5C70.3528 90.5 90.5 70.3528 90.5 45.5C90.5 20.6472 70.3528 0.5 45.5 0.5C20.6472 0.5 0.5 20.6472 0.5 45.5C0.5 70.3528 20.6472 90.5 45.5 90.5Z" fill="#FF9417"/>
</g>
</g>
</g>
<path d="M66.191 45.3617L61.6562 47.6199L55.7812 36.384L60.3711 34.0891C60.7122 33.9152 61.1082 33.8832 61.4728 34.0002C61.8373 34.1171 62.1409 34.3734 62.3172 34.7133L66.8336 43.3605C66.9252 43.5336 66.9812 43.7233 66.9984 43.9184C67.0156 44.1135 66.9937 44.31 66.9338 44.4965C66.8739 44.6829 66.7774 44.8555 66.6498 45.0041C66.5222 45.1527 66.3663 45.2743 66.191 45.3617V45.3617Z" stroke="white" stroke-width="2" stroke-linecap="round" stroke-linejoin="round"/>
<path d="M29.3439 47.4363L24.8092 45.1598C24.6346 45.0742 24.4789 44.9544 24.3516 44.8075C24.2242 44.6605 24.1277 44.4895 24.0677 44.3045C24.0078 44.1195 23.9856 43.9244 24.0026 43.7307C24.0196 43.537 24.0754 43.3487 24.1666 43.177L28.683 34.5297C28.8597 34.1901 29.1619 33.9329 29.5254 33.8129C29.8889 33.6929 30.2849 33.7195 30.6291 33.8871L35.2189 36.182L29.3439 47.4363Z" stroke="white" stroke-width="2" stroke-linecap="round" stroke-linejoin="round"/>
<path d="M61.6562 47.6199L58.7188 51.0715L51.9625 57.8277C51.7784 57.9999 51.5553 58.1249 51.3123 58.1921C51.0693 58.2592 50.8136 58.2665 50.5672 58.2133L39.9187 55.5512C39.7242 55.4969 39.543 55.4032 39.3863 55.2758L29.3438 47.4363" stroke="white" stroke-width="2" stroke-linecap="round" stroke-linejoin="round"/>
<path d="M58.7187 51.0715L50.6406 45.1965L48.2906 46.959C47.2725 47.7189 46.036 48.1294 44.7656 48.1294C43.4952 48.1294 42.2587 47.7189 41.2406 46.959L40.2492 46.2062C40.0815 46.0788 39.9429 45.9172 39.8424 45.7321C39.7419 45.547 39.6818 45.3427 39.6662 45.1327C39.6506 44.9227 39.6797 44.7118 39.7518 44.5139C39.8238 44.316 39.937 44.1356 40.084 43.9848L47.2808 36.8062C47.416 36.6717 47.5764 36.5652 47.7528 36.4927C47.9293 36.4203 48.1182 36.3833 48.309 36.384H55.7812" stroke="white" stroke-width="2" stroke-linecap="round" stroke-linejoin="round"/>
<path d="M35.3291 36.182L44.7475 33.4281C45.0821 33.3322 45.44 33.3582 45.7572 33.5016L52.1096 36.384" stroke="white" stroke-width="2" stroke-linecap="round" stroke-linejoin="round"/>
<path d="M42.5625 62.0871L37.0363 60.6918C36.8111 60.6409 36.6026 60.5335 36.4305 60.3797L32.2812 56.7812" stroke="white" stroke-width="2" stroke-linecap="round" stroke-linejoin="round"/>
<defs>
<clipPath id="clip0_978_46">
<rect width="90" height="90" fill="white" transform="translate(0.5 0.5)"/>
</clipPath>
<clipPath id="clip1_978_46">
<rect width="90" height="90" fill="white" transform="translate(0.5 0.5)"/>
</clipPath>
<clipPath id="clip2_978_46">
<rect width="90" height="90" fill="white" transform="translate(0.5 0.5)"/>
</clipPath>
</defs>
</svg>
