<svg width="91" height="90" viewBox="0 0 91 90" fill="none" xmlns="http://www.w3.org/2000/svg">
<rect x="0.5" width="90" height="90" rx="45" fill="#814E16"/>
<g clip-path="url(#clip0_978_8)">
<g clip-path="url(#clip1_978_8)">
<g clip-path="url(#clip2_978_8)">
<path d="M45.5 90C70.3528 90 90.5 69.8528 90.5 45C90.5 20.1472 70.3528 0 45.5 0C20.6472 0 0.5 20.1472 0.5 45C0.5 69.8528 20.6472 90 45.5 90Z" fill="#FF9417"/>
</g>
</g>
</g>
<path d="M23.8613 45.0538L35.3984 33.3295C35.8085 32.8124 35.7996 32.0635 35.3359 31.5998C34.8188 31.1897 34.0699 31.1986 33.633 31.6355L20.5 45.0538L33.6419 58.4722C33.847 58.6772 34.168 58.8021 34.5068 58.8021C34.7386 58.8021 35.0239 58.6951 35.3359 58.4989L35.4162 58.4187C35.8174 57.8837 35.7907 57.1615 35.3716 56.7425L23.8702 45.0538H23.8613Z" fill="white"/>
<path d="M57.3583 31.6266L57.3404 31.6088C56.8233 31.1986 56.0655 31.2165 55.6107 31.6801C55.2006 32.1972 55.2095 32.9461 55.6375 33.3741L67.1389 45.0628L55.6018 56.7871C55.1917 57.3042 55.2006 58.0531 55.6286 58.49C55.8336 58.6951 56.1457 58.811 56.4934 58.811C56.8411 58.811 57.1621 58.6951 57.3672 58.49L70.5002 45.0717L57.3404 31.6355L57.3583 31.6266Z" fill="white"/>
<path d="M50.3236 28.6309H50.2879C49.646 28.5239 49.0308 28.8894 48.8257 29.5135L40.1417 59.9165C40.0347 60.5495 40.3735 61.1469 40.953 61.3609L41.3364 61.3876C41.7555 61.3876 42.2993 61.0845 42.5311 60.4961L51.2062 30.102C51.3132 29.4422 50.9477 28.8359 50.3057 28.6309H50.3236Z" fill="white"/>
<defs>
<clipPath id="clip0_978_8">
<rect width="90" height="90" fill="white" transform="translate(0.5)"/>
</clipPath>
<clipPath id="clip1_978_8">
<rect width="90" height="90" fill="white" transform="translate(0.5)"/>
</clipPath>
<clipPath id="clip2_978_8">
<rect width="90" height="90" fill="white" transform="translate(0.5)"/>
</clipPath>
</defs>
</svg>
