<svg width="90" height="90" viewBox="0 0 90 90" fill="none" xmlns="http://www.w3.org/2000/svg">
<g clip-path="url(#clip0_480_236)">
<g clip-path="url(#clip1_480_236)">
<g clip-path="url(#clip2_480_236)">
<path d="M45 90C69.8528 90 90 69.8528 90 45C90 20.1472 69.8528 0 45 0C20.1472 0 0 20.1472 0 45C0 69.8528 20.1472 90 45 90Z" fill="#FF9417"/>
<path d="M58.5 31H31.6L23.5 40.4L45 66L66.5 40.4L58.5 31ZM36 39.1H28.3L32.4 34.3L36 39.1ZM40.8 39.1L45 34.2L49.2 39.1H40.8ZM50.4 41.8L45 59.8L39.6 41.8H50.4ZM37.1 41.7L42.7 59.1L28.1 41.7H37.1ZM52.9 41.8H61.9L47.3 59.2L52.9 41.8ZM57.8 34.3L61.9 39.1H54.1L57.8 34.3ZM55.8 33.7L51.9 38.6L48 33.7H55.8ZM38.1 38.6L34.3 33.7H42.1L38.1 38.6Z" fill="white"/>
</g>
</g>
</g>
<defs>
<clipPath id="clip0_480_236">
<rect width="90" height="90" fill="white"/>
</clipPath>
<clipPath id="clip1_480_236">
<rect width="90" height="90" fill="white"/>
</clipPath>
<clipPath id="clip2_480_236">
<rect width="90" height="90" fill="white"/>
</clipPath>
</defs>
</svg>
