<?xml version="1.0" encoding="utf-8"?>
<!-- Generator: Adobe Illustrator 26.3.1, SVG Export Plug-In . SVG Version: 6.00 Build 0)  -->
<svg version="1.1" id="Layer_1" xmlns="http://www.w3.org/2000/svg" xmlns:xlink="http://www.w3.org/1999/xlink" x="0px" y="0px"
	 viewBox="0 0 709.7 223" style="enable-background:new 0 0 709.7 223;" xml:space="preserve">
<style type="text/css">
	.st0{fill:#424549;}
	.st1{fill:#00B093;}
	.st2{fill:#06886F;}
	.st3{fill:#A9DBD3;}
</style>
<g>
	<g>
		<path class="st0" d="M314.3,43.3c2.3,2,3.4,5,3.4,9.1c0,5.6-2,9.6-6,12s-9.5,3.5-16.6,3.6H279V14.1h14.1
			c14.9,0,22.3,4.6,22.3,13.7c0.1,2.9-0.9,5.7-2.9,7.7c-1.9,2-4.4,3.3-7.1,3.9C308.7,39.8,311.8,41.2,314.3,43.3z M289.3,36.1h6.3
			c2.4,0.1,4.8-0.5,6.8-1.9c1.7-1.3,2.6-3.5,2.5-5.7c0.2-2.1-0.8-4.3-2.6-5.4c-2.6-1.2-5.4-1.8-8.2-1.5h-4.8L289.3,36.1L289.3,36.1z
			 M303.9,58.4c2-1.2,3-3.3,3-6.5c0.2-2.6-0.9-5.1-2.9-6.6c-2.3-1.5-5-2.2-7.7-2h-7.1v16.9h6C298.2,60.3,301.2,59.7,303.9,58.4
			L303.9,58.4z"/>
		<path class="st0" d="M336.6,60.2c0.4,0.5,1.1,0.8,1.8,0.7c0.8,0,1.6-0.1,2.3-0.4l2.1,7c-2.3,0.9-4.7,1.4-7.1,1.4
			c-2.7,0.2-5.3-0.8-7.2-2.7c-1.8-2.2-2.7-5-2.5-7.9V10l10-1.1v48.8C336,58.6,336.1,59.5,336.6,60.2z"/>
		<path class="st0" d="M379.7,31.2c3.4,3.8,5.1,9.2,5.1,16c0.1,4-0.7,7.9-2.3,11.4c-1.5,3.2-3.8,5.8-6.7,7.7
			c-3.1,1.9-6.7,2.8-10.4,2.7c-6.1,0-10.8-1.9-14.3-5.8c-3.4-3.9-5.2-9.2-5.2-16c-0.1-3.9,0.7-7.8,2.3-11.4c1.5-3.2,3.8-5.8,6.7-7.6
			c3.2-1.9,6.8-2.8,10.4-2.7C371.6,25.4,376.3,27.3,379.7,31.2z M356.5,47.2c0,4.9,0.7,8.5,2.2,10.8s4,3.6,6.7,3.5
			c2.7,0.1,5.2-1.2,6.6-3.5c1.5-2.3,2.3-5.9,2.3-10.8s-0.7-8.4-2.3-10.7c-1.4-2.3-4-3.6-6.6-3.5C359.5,33,356.5,37.7,356.5,47.2
			L356.5,47.2L356.5,47.2L356.5,47.2z"/>
		<path class="st0" d="M418.1,26.5c2.3,0.9,4.3,2.1,6.1,3.7l-4.5,6.1c-1.2-1-2.6-1.7-4-2.3c-1.3-0.5-2.9-0.7-4.3-0.7
			c-6.2,0-9.3,4.7-9.3,14.1c0,4.8,0.8,8.2,2.4,10.4c1.6,2.1,4.2,3.2,6.9,3.1c1.4,0,2.8-0.2,4.1-0.7c1.5-0.7,2.8-1.5,4.1-2.4l4.6,6.5
			c-3.8,3.1-8.5,4.8-13.3,4.7c-3.6,0.1-7.2-0.8-10.3-2.6c-2.9-1.8-5.3-4.3-6.7-7.4c-1.6-3.6-2.4-7.5-2.3-11.4
			c-0.1-4,0.7-7.9,2.3-11.6c1.4-3.2,3.8-5.9,6.7-7.7c3-1.9,6.6-2.9,10.2-2.8C413.3,25.3,415.7,25.8,418.1,26.5z"/>
		<path class="st0" d="M431.5,67.8V10l10-1.1v58.9H431.5z M467.5,67.8h-11.4l-14.2-22.5l13.8-18.8h10.5l-13.7,18.2L467.5,67.8z"/>
		<path class="st0" d="M500.8,30.3l-3.9,6c-2.9-2.2-6.5-3.4-10.2-3.5c-1.7-0.1-3.3,0.3-4.8,1.2c-1,0.6-1.7,1.8-1.7,3
			c-0.1,0.9,0.2,1.6,0.7,2.3c0.7,0.8,1.6,1.4,2.6,1.8c1.8,0.7,3.6,1.3,5.4,1.8c3.7,0.8,7.1,2.4,9.9,4.7c2.3,2.1,3.4,5.2,3.2,8.3
			c0.1,3.8-1.8,7.5-5,9.6c-3.7,2.4-8,3.7-12.4,3.5c-3.2,0.1-6.3-0.5-9.3-1.5c-2.6-1-5.1-2.4-7.2-4.3l5.1-5.7c3.1,2.6,7,4.1,11.1,4.1
			c1.9,0.1,3.8-0.4,5.4-1.3c1.3-0.7,2-2.1,2-3.5c0.1-1-0.2-2.1-0.7-2.9c-0.7-0.9-1.6-1.5-2.6-1.9c-1.9-0.8-4-1.5-6-2
			c-3.5-0.7-6.7-2.4-9.3-4.8c-2-2.1-3-4.9-3-7.7c-0.1-2.3,0.7-4.4,2-6.2c1.5-1.9,3.4-3.4,5.6-4.3c2.6-1.1,5.4-1.6,8.3-1.5
			C491.4,25.2,496.6,27,500.8,30.3z"/>
		<path class="st0" d="M528.9,68.2c-1.8,0.5-3.7,0.8-5.5,0.8c-3.5,0.2-6.8-1-9.3-3.5c-2.1-2.3-3.1-5.6-3.1-10V33.8h-6.5v-7.3h6.5
			v-9.1l10-1.2v10.3h9.6l-1,7.2H521v21.6c-0.1,1.5,0.2,3,1,4.4c0.9,1,2.1,1.5,3.3,1.3c1.8-0.1,3.5-0.6,4.9-1.5l3.5,6.5
			C532.3,66.8,530.7,67.6,528.9,68.2z"/>
		<path class="st0" d="M564,25.9l-1.7,9.7c-1.2-0.3-2.4-0.5-3.7-0.5c-2.3-0.1-4.4,0.9-5.7,2.6c-1.7,2.4-2.9,5.2-3.3,8v21.9h-10V26.5
			h8.6l0.9,8.2c0.8-2.6,2.3-5,4.3-6.8c1.8-1.5,4.1-2.4,6.5-2.4C561.2,25.4,562.6,25.6,564,25.9z"/>
		<path class="st0" d="M603,50.2h-25.9c0.4,4,1.4,6.9,3.1,8.6c1.9,1.8,4.4,2.7,7,2.6c1.8,0,3.5-0.3,5.1-0.9c1.8-0.7,3.5-1.6,5.1-2.8
			l4.1,5.7c-4.3,3.6-9.7,5.5-15.3,5.5c-6.3,0-11.1-1.9-14.6-5.8c-3.4-3.8-5.1-9.1-5.1-15.8c-0.1-3.9,0.7-7.7,2.2-11.3
			c1.3-3.2,3.5-5.9,6.3-7.9c2.9-1.9,6.3-2.9,9.8-2.9c5.8,0,10.2,1.8,13.5,5.5c3.2,3.7,4.7,8.8,4.7,15.3
			C603.3,46.6,603.2,48,603,50.2z M593.4,43.3c0-7.2-2.7-10.8-8-10.8c-2.3-0.1-4.4,0.9-5.7,2.7c-1.4,1.8-2.2,4.6-2.4,8.6h16.2
			L593.4,43.3L593.4,43.3z"/>
		<path class="st0" d="M643.7,60.3c0.5,0.9,1.4,1.5,2.4,1.8l-2.1,6.6c-2-0.1-4-0.7-5.7-1.7c-1.6-1-2.8-2.6-3.4-4.3
			c-1.3,2-3.1,3.6-5.2,4.6c-2.2,1-4.6,1.6-7.1,1.5c-3.6,0.2-7.1-1.1-9.7-3.5c-2.4-2.4-3.7-5.8-3.6-9.2c-0.2-4,1.6-7.9,4.9-10.2
			c3.2-2.4,7.9-3.5,13.9-3.6h5.1V40c0.2-2-0.4-4.1-1.8-5.6c-1.7-1.2-3.8-1.8-5.9-1.5c-3.7,0.1-7.4,0.9-10.9,2.2l-2.3-6.8
			c4.7-1.9,9.9-2.9,15-3c10.5,0,15.8,4.7,15.8,14.2v17.4C642.9,58.1,643.1,59.3,643.7,60.3z M633.1,56.6v-8.4H629
			c-6.5,0-9.6,2.4-9.7,7.2c-0.1,1.7,0.4,3.3,1.5,4.6c1.2,1.2,2.7,1.8,4.4,1.6C628.6,61.7,631.7,59.7,633.1,56.6L633.1,56.6
			L633.1,56.6z"/>
		<path class="st0" d="M706.7,28.7c2.1,2.6,3.2,5.8,3,9.1v29.8h-10V39.3c0-4.4-1.5-6.6-4.5-6.6c-1.5,0-3,0.5-4.1,1.5
			c-1.5,1.3-2.7,2.9-3.7,4.6v28.7h-10V39.3c0-4.4-1.5-6.6-4.6-6.6c-1.6,0-3,0.5-4.3,1.5c-1.5,1.3-2.7,2.9-3.6,4.6v28.7h-10v-41h8.6
			l0.8,5.4c2.6-4.1,7.1-6.6,11.9-6.6c2.2-0.1,4.4,0.5,6.2,1.8s3.2,3,3.8,5.2c1.4-2.1,3.2-3.9,5.4-5.2c2.1-1.2,4.5-1.8,6.9-1.8
			C701.8,25.1,704.7,26.4,706.7,28.7z"/>
	</g>
	<g>
		<path class="st1" d="M335.8,178.9v-70.3h-19.7V178c0,11.8-6.2,18.6-17,18.6c-6.9,0-10.3-2.6-13.5-5.7l-13,12.8
			c7.5,7.4,15.2,10.4,26.4,10.4C316.8,213.9,335.8,203,335.8,178.9z"/>
		<path class="st1" d="M442.1,194.4l0.1,0.3l6.1,18.3h20.5l-38.2-104.5h-15.5l-38,104.5h20.5l6.4-18.7L442.1,194.4L442.1,194.4
			L442.1,194.4z M423.4,137.7l13.5,40.2h-27.5L423.4,137.7z"/>
		<path class="st1" d="M588.5,164.3c0-1.3,0-2.6,0-4c0-1.3,0-2.6,0-4c0.1-14,0.2-27.2-10.5-37.9c-6.5-6.5-16-9.9-27.5-9.9h-37.6V213
			h37.6c11.5,0,21-3.4,27.5-9.9C588.7,192.4,588.6,178.8,588.5,164.3z M564.3,188.9c-3.8,4.6-8.8,6.7-15.8,6.7h-16V126h16
			c7,0,12,2.1,15.8,6.7l0,0c3.9,4.8,4.6,11.1,4.6,27.7C568.8,176.6,568.2,184.1,564.3,188.9z"/>
		<polygon class="st1" points="708.9,126 708.9,108.6 640.4,108.6 640.4,213.1 708.9,213.1 708.9,195.6 660,195.6 660,169.1 
			701.7,169.1 701.7,151.6 660,151.6 660,126 		"/>
	</g>
	<g>
		<polygon class="st2" points="104.8,153.4 69.3,118 0,118 104.8,222.5 		"/>
		<polygon class="st1" points="117.8,223 222.5,118 153.4,118 117.8,153.7 		"/>
		<polygon class="st3" points="117.8,0 117.8,69.2 153.7,105 223,105 		"/>
		<polygon class="st0" points="104.7,0 0,105 69.1,105 104.7,69.3 		"/>
	</g>
</g>
</svg>
