<svg width="90" height="90" viewBox="0 0 90 90" fill="none" xmlns="http://www.w3.org/2000/svg">
<rect width="90" height="90" rx="45" fill="#814E16"/>
<g clip-path="url(#clip0_978_17)">
<g clip-path="url(#clip1_978_17)">
<g clip-path="url(#clip2_978_17)">
<path d="M45 90C69.8528 90 90 69.8528 90 45C90 20.1472 69.8528 0 45 0C20.1472 0 0 20.1472 0 45C0 69.8528 20.1472 90 45 90Z" fill="#FF9417"/>
<path d="M44.9993 25.3999C46.3993 26.9999 47.9993 28.3999 49.3993 29.8999C50.5993 31.0999 51.8993 32.2999 52.9993 33.4999C56.0993 36.7999 57.9993 39.5999 59.1993 42.5999C62.1993 50.5999 59.2993 58.4999 51.9993 62.2999C49.7993 63.3999 47.8993 63.8999 45.3993 63.8999C44.9993 63.8999 44.4993 63.8999 43.8993 63.8999C37.6993 63.5999 31.9993 59.2999 30.2993 53.4999C28.9993 48.9999 29.5993 44.6999 31.9993 40.0999C33.7993 36.7999 36.3993 33.9999 38.7993 31.5999C39.3993 30.9999 40.0993 30.2999 40.6993 29.6999C42.0993 28.3999 43.5993 26.8999 44.9993 25.3999ZM44.9993 22.3999C44.6993 22.3999 44.4993 22.6999 44.2993 22.8999C42.0993 25.4999 39.5993 27.6999 37.1993 30.0999C34.4993 32.7999 31.7993 35.5999 29.9993 39.0999C27.4993 43.7999 26.6993 48.7999 28.1993 53.9999C30.1993 60.6999 36.6993 65.5999 43.6993 65.8999C44.1993 65.8999 44.7993 65.8999 45.2993 65.8999C48.1993 65.8999 50.4993 65.2999 52.8993 64.0999C61.5993 59.5999 64.2993 50.2999 61.0993 41.6999C59.6993 37.8999 57.1993 34.7999 54.4993 31.7999C51.4993 28.6999 48.1993 25.8999 45.3993 22.5999C45.2993 22.4999 45.1993 22.3999 44.9993 22.3999Z" fill="white"/>
<path d="M44.0988 38.7L43.5988 41L40.4988 40.2L39.9988 42.0999C39.9988 42.0999 41.2988 42.4 41.1988 42.4C41.8988 42.6 41.9988 43 41.9988 43.4L40.0988 51C39.9988 51.2 39.8988 51.4 39.4988 51.4C39.3988 51.4 39.3988 51.4 39.2988 51.4C39.1988 51.4 38.0988 51.0999 38.0988 51.0999L37.2988 53.0999L40.3988 53.9L39.7988 56.4L41.4988 56.7999L42.0988 54.2999C42.5988 54.3999 42.9988 54.4999 43.4988 54.5999L42.8988 57L44.5988 57.4L45.1988 54.9C45.7988 55 46.3988 55.0999 46.8988 55.0999C48.8988 55.0999 50.3988 54.3 50.7988 52.5C51.1988 50.7 50.7988 49.4 49.5988 48.5C50.3988 48.2 51.1988 47.3999 51.3988 46.0999C51.5988 44.4999 50.4988 42.7999 48.3988 42.0999L48.9988 39.7999L47.2988 39.4L46.7988 41.5999C46.3988 41.4999 45.8988 41.3999 45.3988 41.2999L45.9988 39.0999L44.0988 38.7ZM46.4988 47.2999C45.4988 47.2999 44.4988 46.9999 43.9988 46.7999L44.7988 43.4C45.7988 43.6 48.8988 44.0999 48.3988 46.0999C48.1988 46.9999 47.3988 47.2999 46.4988 47.2999ZM45.7988 52.7999C44.5988 52.7999 43.2988 52.4 42.6988 52.2L43.5988 48.4C44.7988 48.7 48.4988 49.3 47.8988 51.5C47.5988 52.5 46.6988 52.7999 45.7988 52.7999Z" fill="white"/>
</g>
</g>
</g>
<defs>
<clipPath id="clip0_978_17">
<rect width="90" height="90" fill="white"/>
</clipPath>
<clipPath id="clip1_978_17">
<rect width="90" height="90" fill="white"/>
</clipPath>
<clipPath id="clip2_978_17">
<rect width="90" height="90" fill="white"/>
</clipPath>
</defs>
</svg>
