<svg width="20" height="20" viewBox="0 0 20 20" fill="none" xmlns="http://www.w3.org/2000/svg">
<path d="M10 20C15.5228 20 20 15.5228 20 10C20 4.47715 15.5228 0 10 0C4.47715 0 0 4.47715 0 10C0 15.5228 4.47715 20 10 20Z" fill="#0D1437"/>
<path d="M9.30267 8.28473C9.77864 5.43836 12.8182 5.81536 13.1811 5.87191C13.5581 5.98501 13.9257 5.61272 13.7136 5.24986C12.8748 3.81725 11.2065 2.88417 9.93886 2.81819C10.2546 2.56843 11.3102 2.43176 12.4318 2.47889C12.8276 2.49303 12.9926 1.97465 12.658 1.76258C12.6297 1.74373 12.6014 1.72488 12.559 1.71074C11.0275 1.23949 9.38278 1.19708 7.81822 1.60707C6.65894 1.90867 5.53735 2.45533 4.54301 3.26117C4.12831 3.60047 3.74659 3.96805 3.412 4.35919C0.91907 7.2574 0.612756 11.5175 2.73811 14.755C2.78052 14.821 2.82293 14.8823 2.86535 14.9483C2.90305 14.9954 2.91719 15.0189 2.93132 15.0378C3.03029 15.1839 3.13867 15.3253 3.25177 15.4666C3.3743 15.6174 3.50625 15.7635 3.6382 15.9049C3.67119 15.9426 3.70418 15.9756 3.74188 16.0133C3.8644 16.1405 3.99164 16.2678 4.12359 16.3856C4.13302 16.395 4.14716 16.4044 4.15658 16.4186C4.29796 16.5458 4.44405 16.6683 4.59013 16.7861C4.62312 16.8144 4.66082 16.8427 4.69852 16.871C4.83519 16.9746 4.97185 17.0736 5.10851 17.1726C5.12736 17.182 5.1415 17.1961 5.16035 17.2103C5.31586 17.314 5.47609 17.4176 5.64103 17.5119C5.67402 17.5307 5.70701 17.5496 5.73528 17.5684C5.88608 17.6533 6.03688 17.7334 6.18768 17.8088C6.20653 17.8182 6.22067 17.8276 6.23952 17.8323C6.41388 17.9172 6.58825 17.9926 6.76733 18.0632C6.79089 18.0727 6.81445 18.0821 6.83801 18.0915C7.00766 18.1575 7.17732 18.2188 7.34697 18.2706C7.3611 18.2706 7.37524 18.28 7.38467 18.2847C7.57317 18.346 7.76167 18.3978 7.95488 18.445C7.96431 18.445 7.97373 18.445 7.97845 18.445C8.16695 18.4921 8.35545 18.5298 8.54866 18.5628H8.57223C8.97279 18.6287 9.37336 18.6664 9.77863 18.6806H9.78806C11.7815 18.7324 13.7984 18.1057 15.4714 16.7532C16.494 15.9238 17.281 14.9153 17.8182 13.8031C17.8465 13.7418 17.8795 13.6759 17.9078 13.6146C18.0633 13.2706 18.1999 12.9124 18.3083 12.5543C13.0774 14.5241 8.7136 11.8427 9.30738 8.28944V8.28002L9.30267 8.28473Z" fill="#14909C"/>
<path d="M6.2392 9.15655C7.25711 7.7852 7.72836 8.02554 7.82733 7.60141C7.95928 7.02177 5.84335 6.51753 4.19396 7.7852C6.48426 4.91998 10.0516 4.26023 13.0912 5.83421C13.4965 6.04628 13.9489 5.641 13.718 5.24986C12.8792 3.81725 11.2109 2.88417 9.94326 2.81819C10.259 2.56843 11.3146 2.43176 12.4362 2.47889C12.832 2.49303 12.997 1.97465 12.6624 1.76258C12.6341 1.74373 12.6058 1.72488 12.5634 1.71074C11.0319 1.23949 9.38718 1.19708 7.82262 1.60707C6.66333 1.90867 5.54175 2.45533 4.5474 3.26117C4.1327 3.60047 3.75099 3.96805 3.4164 4.35919C0.923464 7.2574 0.61715 11.5175 2.7425 14.755C2.78492 14.821 2.82733 14.8823 2.86974 14.9483C2.90744 14.9954 2.92158 15.0189 2.93572 15.0378C3.03468 15.1839 3.14307 15.3253 3.25617 15.4666C5.47577 18.2093 9.0196 19.2414 12.2194 18.3978C4.03845 17.1867 5.28727 10.4431 6.2392 9.16126V9.15655Z" fill="#22E1C9"/>
</svg>
