<svg width="20" height="20" viewBox="0 0 20 20" fill="none" xmlns="http://www.w3.org/2000/svg">
<path d="M10 20C15.5228 20 20 15.5228 20 10C20 4.47715 15.5228 0 10 0C4.47715 0 0 4.47715 0 10C0 15.5228 4.47715 20 10 20Z" fill="#8C8C8C"/>
<path d="M9.30267 8.28449C9.77864 5.43812 12.8182 5.81512 13.1811 5.87167C13.5581 5.98477 13.9257 5.61248 13.7136 5.24961C12.8748 3.817 11.2065 2.88392 9.93886 2.81795C10.2546 2.56818 11.3102 2.43152 12.4318 2.47864C12.8276 2.49278 12.9926 1.9744 12.658 1.76234C12.6297 1.74349 12.6014 1.72464 12.559 1.7105C11.0275 1.23925 9.38278 1.19683 7.81822 1.60683C6.65894 1.90843 5.53735 2.45508 4.54301 3.26093C4.12831 3.60023 3.74659 3.96781 3.412 4.35895C0.91907 7.25715 0.612756 11.5173 2.73811 14.7548C2.78052 14.8208 2.82293 14.882 2.86535 14.948C2.90305 14.9951 2.91719 15.0187 2.93132 15.0376C3.03029 15.1836 3.13867 15.325 3.25177 15.4664C3.3743 15.6172 3.50625 15.7633 3.6382 15.9047C3.67119 15.9424 3.70418 15.9753 3.74188 16.013C3.8644 16.1403 3.99164 16.2675 4.12359 16.3853C4.13302 16.3948 4.14716 16.4042 4.15658 16.4183C4.29796 16.5456 4.44405 16.6681 4.59013 16.7859C4.62312 16.8142 4.66082 16.8425 4.69852 16.8707C4.83519 16.9744 4.97185 17.0734 5.10851 17.1723C5.12736 17.1818 5.1415 17.1959 5.16035 17.21C5.31586 17.3137 5.47609 17.4174 5.64103 17.5116C5.67402 17.5305 5.70701 17.5493 5.73528 17.5682C5.88608 17.653 6.03688 17.7331 6.18768 17.8085C6.20653 17.8179 6.22067 17.8274 6.23952 17.8321C6.41388 17.9169 6.58825 17.9923 6.76733 18.063C6.79089 18.0724 6.81445 18.0819 6.83801 18.0913C7.00766 18.1573 7.17732 18.2185 7.34697 18.2704C7.3611 18.2704 7.37524 18.2798 7.38467 18.2845C7.57317 18.3458 7.76167 18.3976 7.95488 18.4447C7.96431 18.4447 7.97373 18.4447 7.97845 18.4447C8.16695 18.4918 8.35545 18.5295 8.54866 18.5625H8.57223C8.97279 18.6285 9.37336 18.6662 9.77863 18.6803H9.78806C11.7815 18.7322 13.7984 18.1054 15.4714 16.7529C16.494 15.9235 17.281 14.915 17.8182 13.8029C17.8465 13.7416 17.8795 13.6756 17.9078 13.6144C18.0633 13.2704 18.1999 12.9122 18.3083 12.554C13.0774 14.5239 8.7136 11.8425 9.30738 8.2892V8.27978L9.30267 8.28449Z" fill="#C5C5C5"/>
<path d="M6.2392 9.15631C7.25711 7.78496 7.72836 8.0253 7.82733 7.60117C7.95928 7.02153 5.84335 6.51729 4.19396 7.78496C6.48426 4.91974 10.0516 4.25998 13.0912 5.83397C13.4965 6.04603 13.9489 5.64075 13.718 5.24961C12.8792 3.817 11.2109 2.88392 9.94326 2.81795C10.259 2.56818 11.3146 2.43152 12.4362 2.47864C12.832 2.49278 12.997 1.9744 12.6624 1.76234C12.6341 1.74349 12.6058 1.72464 12.5634 1.7105C11.0319 1.23925 9.38718 1.19683 7.82262 1.60683C6.66333 1.90843 5.54175 2.45508 4.5474 3.26093C4.1327 3.60023 3.75099 3.96781 3.4164 4.35895C0.923464 7.25715 0.61715 11.5173 2.7425 14.7548C2.78492 14.8208 2.82733 14.882 2.86974 14.948C2.90744 14.9951 2.92158 15.0187 2.93572 15.0375C3.03468 15.1836 3.14307 15.325 3.25617 15.4664C5.47577 18.2091 9.0196 19.2411 12.2194 18.3976C4.03845 17.1865 5.28727 10.4428 6.2392 9.16102V9.15631Z" fill="white"/>
</svg>
