<svg width="20" height="20" viewBox="0 0 20 20" fill="none" xmlns="http://www.w3.org/2000/svg">
<path d="M19.3013 18.2401L14.6073 13.547C15.9678 11.9136 16.6462 9.81853 16.5014 7.69766C16.3566 5.5768 15.3998 3.5934 13.8299 2.16007C12.26 0.726741 10.1979 -0.0461652 8.07263 0.0021347C5.94738 0.0504346 3.92256 0.916222 2.41939 2.41939C0.916222 3.92256 0.0504346 5.94738 0.0021347 8.07263C-0.0461652 10.1979 0.726741 12.26 2.16007 13.8299C3.5934 15.3998 5.5768 16.3566 7.69766 16.5014C9.81853 16.6462 11.9136 15.9678 13.547 14.6073L18.2401 19.3013C18.3098 19.371 18.3925 19.4263 18.4836 19.464C18.5746 19.5017 18.6722 19.5211 18.7707 19.5211C18.8693 19.5211 18.9669 19.5017 19.0579 19.464C19.1489 19.4263 19.2317 19.371 19.3013 19.3013C19.371 19.2317 19.4263 19.1489 19.464 19.0579C19.5017 18.9669 19.5211 18.8693 19.5211 18.7707C19.5211 18.6722 19.5017 18.5746 19.464 18.4836C19.4263 18.3925 19.371 18.3098 19.3013 18.2401ZM1.52072 8.27072C1.52072 6.9357 1.9166 5.63065 2.6583 4.52062C3.4 3.41059 4.45421 2.54543 5.68761 2.03454C6.92101 1.52364 8.27821 1.38997 9.58758 1.65042C10.897 1.91087 12.0997 2.55375 13.0437 3.49775C13.9877 4.44176 14.6306 5.64449 14.891 6.95386C15.1515 8.26323 15.0178 9.62043 14.5069 10.8538C13.996 12.0872 13.1309 13.1414 12.0208 13.8831C10.9108 14.6248 9.60575 15.0207 8.27072 15.0207C6.48112 15.0187 4.76538 14.3069 3.49994 13.0415C2.2345 11.7761 1.52271 10.0603 1.52072 8.27072Z" fill="#A0A0A0"/>
</svg>
