<?xml version="1.0" encoding="UTF-8"?>
<svg width="22px" height="22px" viewBox="0 0 22 22" version="1.1" xmlns="http://www.w3.org/2000/svg" xmlns:xlink="http://www.w3.org/1999/xlink">
    <!-- Generator: Sketch 51.1 (57501) - http://www.bohemiancoding.com/sketch -->
    <title>btc</title>
    <desc>Created with Sketch.</desc>
    <defs>
        <linearGradient x1="50%" y1="77.3860436%" x2="100%" y2="-117.135686%" id="linearGradient-1">
            <stop stop-color="#FCC538" offset="0%"></stop>
            <stop stop-color="#F7931A" offset="100%"></stop>
        </linearGradient>
        <path d="M17.7298056,11.4584007 C16.5277431,16.2798694 11.6443993,19.2141507 6.82236809,18.0118069 C2.00230559,16.8097444 -0.931975661,11.9261194 0.270649339,7.10493192 C1.47214934,2.28290067 6.35549309,-0.65166183 11.1761181,0.55040067 C15.9978681,1.75246317 18.9318681,6.63665067 17.7298056,11.4584007 Z" id="path-2"></path>
        <filter x="-19.4%" y="-13.9%" width="138.9%" height="138.9%" filterUnits="objectBoundingBox" id="filter-3">
            <feOffset dx="0" dy="1" in="SourceAlpha" result="shadowOffsetOuter1"></feOffset>
            <feGaussianBlur stdDeviation="1" in="shadowOffsetOuter1" result="shadowBlurOuter1"></feGaussianBlur>
            <feColorMatrix values="0 0 0 0 0.961710989   0 0 0 0 0.811840602   0 0 0 0 0.138542295  0 0 0 0.299564085 0" type="matrix" in="shadowBlurOuter1"></feColorMatrix>
        </filter>
    </defs>
    <g id="btc" stroke="none" stroke-width="1" fill="none" fill-rule="evenodd">
        <g id="Bitcoin" transform="translate(2.000000, 1.000000)" fill-rule="nonzero">
            <g id="Shape">
                <use fill="black" fill-opacity="1" filter="url(#filter-3)" xlink:href="#path-2"></use>
                <use fill="url(#linearGradient-1)" xlink:href="#path-2"></use>
            </g>
            <path d="M12.9682431,7.99902567 C13.1473993,6.80146317 12.2355868,6.15768192 10.9888056,5.72821317 L11.3932431,4.10596317 L10.4057743,3.85986942 L10.0120243,5.43936942 C9.75243059,5.37468192 9.48580559,5.31365067 9.22086809,5.25318192 L9.61743059,3.66327567 L8.63052434,3.41718192 L8.22580559,5.03886942 C8.01093059,4.98993192 7.79999309,4.94155692 7.59524309,4.89065067 L7.59636809,4.88558817 L6.23455559,4.54555692 L5.97186809,5.60024442 C5.97186809,5.60024442 6.70452434,5.76815067 6.68905559,5.77855692 C7.08899309,5.87840067 7.16127434,6.14305692 7.14918059,6.35286942 L6.68849309,8.20096317 C6.71605559,8.20799442 6.75177434,8.21811942 6.79114934,8.23386942 C6.75824309,8.22571317 6.72308684,8.21671317 6.68680559,8.20799442 L6.04105559,10.7969007 C5.99211809,10.9184007 5.86808684,11.1006507 5.58852434,11.0314632 C5.59836809,11.0458069 4.87077434,10.8523069 4.87077434,10.8523069 L4.38055559,11.9826507 L5.66558684,12.3029944 C5.90464934,12.3629007 6.13893059,12.4256194 6.36955559,12.4846819 L5.96089934,14.1254944 L6.94724309,14.3715882 L7.35196184,12.7482132 C7.62139934,12.8213382 7.88296184,12.8888382 8.13889934,12.9524007 L7.73558684,14.5681819 L8.72305559,14.8142757 L9.13171184,13.1765569 C10.8155556,13.4952132 12.0817431,13.3666819 12.6147118,11.8437132 C13.0441806,10.6174632 12.5933368,9.91011942 11.7073993,9.44886942 C12.3525868,9.30008817 12.8385868,8.87568192 12.9682431,7.99902567 Z M10.7120556,11.1628069 C10.4068993,12.3890569 8.34224309,11.7261507 7.67286809,11.5599319 L8.21511809,9.38615067 C8.88449309,9.55321317 11.0309931,9.88396317 10.7120556,11.1628069 Z M11.0174931,7.98130692 C10.7390556,9.09674442 9.02061809,8.53002567 8.46318059,8.39108817 L8.95480559,6.41952567 C9.51224309,6.55846317 11.3074618,6.81777567 11.0174931,7.98130692 Z" id="Shape" fill="#FFFFFF"></path>
        </g>
    </g>
</svg>