<?xml version="1.0" encoding="UTF-8"?>
<svg width="60px" height="60px" viewBox="0 0 60 60" version="1.1" xmlns="http://www.w3.org/2000/svg" xmlns:xlink="http://www.w3.org/1999/xlink">
    <title>btc_main</title>
    <defs>
        <linearGradient x1="50%" y1="77.3818056%" x2="100%" y2="-117.109822%" id="linearGradient-1">
            <stop stop-color="#FCC538" offset="0%"></stop>
            <stop stop-color="#F7931A" offset="100%"></stop>
        </linearGradient>
    </defs>
    <g id="btc_main" stroke="none" stroke-width="1" fill="none" fill-rule="evenodd">
        <g id="btc_test">
            <polygon id="Path" fill-opacity="0" fill="#D8D8D8" points="0 0 60 0 60 60 0 60"></polygon>
            <path d="M49.4,34.84 C47.4448559,42.689736 40.9534985,48.5886791 32.9530354,49.7859817 C24.9525722,50.9832842 17.0186852,47.2431389 12.8511751,40.3096835 C8.68366503,33.3762281 9.1033181,24.6149987 13.914438,18.1116096 C18.7255579,11.6082205 26.9806001,8.64350677 34.83,10.6 C45.5464746,13.2711227 52.0692807,24.1230665 49.4,34.84 Z" id="Path" fill="url(#linearGradient-1)" fill-rule="nonzero"></path>
            <path d="M38.28,26.72 C38.67,24.09 36.73,22.72 34.07,21.72 L34.93,18.16 L32.83,17.62 L32,21.1 L30.32,20.69 L31.16,17.21 L29.06,16.67 L28.2,20.22 L26.86,19.9 L26.86,19.9 L24,19.14 L23.44,21.45 C23.44,21.45 25,21.82 24.97,21.85 C25.5877056,21.9331416 26.0293009,22.4895517 25.97,23.11 L24.97,27.16 L25.18,27.23 L24.96,27.18 L23.59,32.85 C23.5329471,33.0560057 23.3928258,33.229024 23.2031743,33.3276428 C23.0135227,33.4262616 22.7914103,33.4416048 22.59,33.37 C22.59,33.37 21,33 21,33 L20,35.48 L22.74,36.18 L24.24,36.58 L23.36,40.18 L25.47,40.72 L26.33,37.15 L28,37.6 L27.14,41.15 L29.25,41.69 L30.12,38.09 C33.7,38.79 36.4,38.51 37.53,35.17 C38.45,32.48 37.53,30.93 35.6,29.92 C37.1180706,29.5885155 38.2200789,28.2726847 38.28,26.72 Z M33.48,33.66 C32.83,36.35 28.48,34.89 27.01,34.53 L28.16,29.76 C29.59,30.13 34.16,30.85 33.48,33.66 L33.48,33.66 Z M34.13,26.66 C33.54,29.1 29.88,27.86 28.69,27.56 L29.69,23.23 C30.88,23.54 34.69,24.11 34.08,26.66 L34.13,26.66 Z" id="Shape" fill="#FFFFFF" fill-rule="nonzero"></path>
        </g>
    </g>
</svg>