<?xml version="1.0" encoding="UTF-8"?>
<svg width="11px" height="11px" viewBox="0 0 11 11" version="1.1" xmlns="http://www.w3.org/2000/svg" xmlns:xlink="http://www.w3.org/1999/xlink">
    <!-- Generator: Sketch 51.1 (57501) - http://www.bohemiancoding.com/sketch -->
    <title>plus_btc</title>
    <desc>Created with Sketch.</desc>
    <defs></defs>
    <g id="plus_btc" stroke="none" stroke-width="1" fill="none" fill-rule="evenodd">
        <path d="M6.28571429,6.28571429 L6.28571429,10.2142857 C6.28571429,10.648 5.93371429,11 5.5,11 C5.06628571,11 4.71428571,10.648 4.71428571,10.2142857 L4.71428571,6.28571429 L0.785714286,6.28571429 C0.352,6.28571429 0,5.93371429 0,5.5 C0,5.06628571 0.352,4.71428571 0.785714286,4.71428571 L4.71428571,4.71428571 L4.71428571,0.785714286 C4.71428571,0.352 5.06628571,2.65573406e-17 5.5,0 C5.93371429,-2.65573406e-17 6.28571429,0.352 6.28571429,0.785714286 L6.28571429,4.71428571 L10.2142857,4.71428571 C10.648,4.71428571 11,5.06628571 11,5.5 C11,5.93371429 10.648,6.28571429 10.2142857,6.28571429 L6.28571429,6.28571429 Z" id="Combined-Shape" fill="#FFBB00"></path>
    </g>
</svg>