<svg width="90" height="90" viewBox="0 0 90 90" fill="none" xmlns="http://www.w3.org/2000/svg">
<g clip-path="url(#clip0_484_853)">
<g clip-path="url(#clip1_484_853)">
<g clip-path="url(#clip2_484_853)">
<path d="M45 90C69.8528 90 90 69.8528 90 45C90 20.1472 69.8528 0 45 0C20.1472 0 0 20.1472 0 45C0 69.8528 20.1472 90 45 90Z" fill="#FF9417"/>
<path d="M60 28.5H30C29.2044 28.5 28.4413 28.8161 27.8787 29.3787C27.3161 29.9413 27 30.7044 27 31.5V42C27 51.885 31.785 57.8756 35.7994 61.1606C40.1231 64.6969 44.4244 65.8969 44.6119 65.9475C44.8697 66.0176 45.1416 66.0176 45.3994 65.9475C45.5869 65.8969 49.8825 64.6969 54.2119 61.1606C58.215 57.8756 63 51.885 63 42V31.5C63 30.7044 62.6839 29.9413 62.1213 29.3787C61.5587 28.8161 60.7957 28.5 60 28.5ZM60 42C60 48.9506 57.4387 54.5925 52.3875 58.7663C50.1887 60.577 47.6879 61.986 45 62.9287C42.3473 62.0024 39.8774 60.6184 37.7025 58.8394C32.5913 54.6581 30 48.9937 30 42V31.5H60V42ZM36.4387 47.5613C36.1573 47.2798 35.9992 46.898 35.9992 46.5C35.9992 46.102 36.1573 45.7202 36.4387 45.4387C36.7202 45.1573 37.102 44.9992 37.5 44.9992C37.898 44.9992 38.2798 45.1573 38.5613 45.4387L42 48.8794L51.4387 39.4387C51.5781 39.2994 51.7436 39.1888 51.9257 39.1134C52.1077 39.038 52.3029 38.9992 52.5 38.9992C52.6971 38.9992 52.8923 39.038 53.0743 39.1134C53.2564 39.1888 53.4219 39.2994 53.5613 39.4387C53.7006 39.5781 53.8112 39.7436 53.8866 39.9257C53.962 40.1077 54.0008 40.3029 54.0008 40.5C54.0008 40.6971 53.962 40.8923 53.8866 41.0743C53.8112 41.2564 53.7006 41.4219 53.5613 41.5613L43.0613 52.0613C42.9219 52.2007 42.7565 52.3114 42.5744 52.3868C42.3923 52.4623 42.1971 52.5012 42 52.5012C41.8029 52.5012 41.6077 52.4623 41.4256 52.3868C41.2435 52.3114 41.0781 52.2007 40.9387 52.0613L36.4387 47.5613Z" fill="white"/>
</g>
</g>
</g>
<defs>
<clipPath id="clip0_484_853">
<rect width="90" height="90" fill="white"/>
</clipPath>
<clipPath id="clip1_484_853">
<rect width="90" height="90" fill="white"/>
</clipPath>
<clipPath id="clip2_484_853">
<rect width="90" height="90" fill="white"/>
</clipPath>
</defs>
</svg>
