<svg width="17" height="17" viewBox="0 0 17 17" fill="none" xmlns="http://www.w3.org/2000/svg">
<path d="M6 0H1.5C1.10218 0 0.720644 0.158035 0.43934 0.43934C0.158035 0.720644 0 1.10218 0 1.5V6C0 6.39782 0.158035 6.77936 0.43934 7.06066C0.720644 7.34196 1.10218 7.5 1.5 7.5H6C6.39782 7.5 6.77936 7.34196 7.06066 7.06066C7.34196 6.77936 7.5 6.39782 7.5 6V1.5C7.5 1.10218 7.34196 0.720644 7.06066 0.43934C6.77936 0.158035 6.39782 0 6 0ZM6 6H1.5V1.5H6V6ZM6 9H1.5C1.10218 9 0.720644 9.15804 0.43934 9.43934C0.158035 9.72064 0 10.1022 0 10.5V15C0 15.3978 0.158035 15.7794 0.43934 16.0607C0.720644 16.342 1.10218 16.5 1.5 16.5H6C6.39782 16.5 6.77936 16.342 7.06066 16.0607C7.34196 15.7794 7.5 15.3978 7.5 15V10.5C7.5 10.1022 7.34196 9.72064 7.06066 9.43934C6.77936 9.15804 6.39782 9 6 9ZM6 15H1.5V10.5H6V15ZM15 0H10.5C10.1022 0 9.72064 0.158035 9.43934 0.43934C9.15804 0.720644 9 1.10218 9 1.5V6C9 6.39782 9.15804 6.77936 9.43934 7.06066C9.72064 7.34196 10.1022 7.5 10.5 7.5H15C15.3978 7.5 15.7794 7.34196 16.0607 7.06066C16.342 6.77936 16.5 6.39782 16.5 6V1.5C16.5 1.10218 16.342 0.720644 16.0607 0.43934C15.7794 0.158035 15.3978 0 15 0ZM15 6H10.5V1.5H15V6ZM9 12.75V9.75C9 9.55109 9.07902 9.36032 9.21967 9.21967C9.36032 9.07902 9.55109 9 9.75 9C9.94891 9 10.1397 9.07902 10.2803 9.21967C10.421 9.36032 10.5 9.55109 10.5 9.75V12.75C10.5 12.9489 10.421 13.1397 10.2803 13.2803C10.1397 13.421 9.94891 13.5 9.75 13.5C9.55109 13.5 9.36032 13.421 9.21967 13.2803C9.07902 13.1397 9 12.9489 9 12.75ZM16.5 11.25C16.5 11.4489 16.421 11.6397 16.2803 11.7803C16.1397 11.921 15.9489 12 15.75 12H13.5V15.75C13.5 15.9489 13.421 16.1397 13.2803 16.2803C13.1397 16.421 12.9489 16.5 12.75 16.5H9.75C9.55109 16.5 9.36032 16.421 9.21967 16.2803C9.07902 16.1397 9 15.9489 9 15.75C9 15.5511 9.07902 15.3603 9.21967 15.2197C9.36032 15.079 9.55109 15 9.75 15H12V9.75C12 9.55109 12.079 9.36032 12.2197 9.21967C12.3603 9.07902 12.5511 9 12.75 9C12.9489 9 13.1397 9.07902 13.2803 9.21967C13.421 9.36032 13.5 9.55109 13.5 9.75V10.5H15.75C15.9489 10.5 16.1397 10.579 16.2803 10.7197C16.421 10.8603 16.5 11.0511 16.5 11.25ZM16.5 14.25V15.75C16.5 15.9489 16.421 16.1397 16.2803 16.2803C16.1397 16.421 15.9489 16.5 15.75 16.5C15.5511 16.5 15.3603 16.421 15.2197 16.2803C15.079 16.1397 15 15.9489 15 15.75V14.25C15 14.0511 15.079 13.8603 15.2197 13.7197C15.3603 13.579 15.5511 13.5 15.75 13.5C15.9489 13.5 16.1397 13.579 16.2803 13.7197C16.421 13.8603 16.5 14.0511 16.5 14.25Z" fill="#A0A0A0"/>
</svg>
