<?xml version="1.0" encoding="UTF-8"?>
<svg width="24px" height="24px" viewBox="0 0 24 24" version="1.1" xmlns="http://www.w3.org/2000/svg" xmlns:xlink="http://www.w3.org/1999/xlink">
    <title>Icon/qr</title>
    <g id="Icon/qr" stroke="none" stroke-width="1" fill="none" fill-rule="evenodd">
        <g id="Group" fill="#78838E" fill-rule="nonzero">
            <polygon id="Path" points="1.79372727 1.86163636 5.43 1.86163636 5.43 0.138545455 1.79372727 0.138545455 0.0703636364 0.138545455 0.0703636364 1.86163636 0.0703636364 5.49790909 1.79372727 5.49790909"></polygon>
            <polygon id="Path" points="1.79372727 18.5023636 0.0703636364 18.5023636 0.0703636364 22.1383636 0.0703636364 23.8614545 1.79372727 23.8614545 5.43 23.8614545 5.43 22.1383636 1.79372727 22.1383636"></polygon>
            <polygon id="Path" points="22.2065455 22.1383636 18.5705455 22.1383636 18.5705455 23.8614545 22.2065455 23.8614545 23.9296364 23.8614545 23.9296364 22.1383636 23.9296364 18.5023636 22.2065455 18.5023636"></polygon>
            <polygon id="Path" points="22.2065455 0.138545455 18.5705455 0.138545455 18.5705455 1.86163636 22.2065455 1.86163636 22.2065455 5.49790909 23.9296364 5.49790909 23.9296364 1.86163636 23.9296364 0.138545455"></polygon>
            <path d="M3.20863636,11.382 L11.2914545,11.382 L11.2914545,3.29945455 L3.20863636,3.29945455 L3.20863636,11.382 Z M4.845,4.93581818 L9.65509091,4.93581818 L9.65509091,9.74563636 L4.845,9.74563636 L4.845,4.93581818 Z" id="Shape"></path>
            <rect id="Rectangle" x="5.70436364" y="5.79545455" width="3.09109091" height="3.09081818"></rect>
            <path d="M3.20863636,20.7005455 L11.2914545,20.7005455 L11.2914545,12.618 L3.20863636,12.618 L3.20863636,20.7005455 Z M4.845,14.2543636 L9.65509091,14.2543636 L9.65509091,19.0644545 L4.845,19.0644545 L4.845,14.2543636 Z" id="Shape"></path>
            <rect id="Rectangle" x="5.70436364" y="15.1134545" width="3.09109091" height="3.09109091"></rect>
            <path d="M20.7913636,3.29945455 L12.7088182,3.29945455 L12.7088182,11.382 L20.7916364,11.382 L20.7916364,3.29945455 L20.7913636,3.29945455 Z M19.155,9.74563636 L14.3451818,9.74563636 L14.3451818,4.93581818 L19.1552727,4.93581818 L19.1552727,9.74563636 L19.155,9.74563636 Z" id="Shape"></path>
            <rect id="Rectangle" x="15.2045455" y="5.79545455" width="3.09081818" height="3.09081818"></rect>
            <rect id="Rectangle" x="12.7088182" y="12.618" width="5.35936364" height="1.72309091"></rect>
            <rect id="Rectangle" x="12.7088182" y="15.114" width="1.72309091" height="5.58654545"></rect>
            <polygon id="Path" points="18.8364545 20.7005455 20.7913636 20.7005455 20.7913636 18.9774545 18.9545455 18.9774545 18.9545455 17.9067273 16.8409091 17.9067273 16.8409091 18.9774545 15.0681818 18.9774545 15.0681818 20.7005455 17.0228182 20.7005455 17.0228182 19.6300909 18.8364545 19.6300909"></polygon>
            <polygon id="Path" points="15.9771818 15.0709091 15.9771818 16.794 19.0682727 16.794 19.2027273 16.794 20.7913636 16.794 20.7913636 12.618 19.0682727 12.618 19.0682727 15.0709091"></polygon>
        </g>
    </g>
</svg>