<svg width="90" height="90" viewBox="0 0 90 90" fill="none" xmlns="http://www.w3.org/2000/svg">
<g clip-path="url(#clip0_484_841)">
<g clip-path="url(#clip1_484_841)">
<g clip-path="url(#clip2_484_841)">
<path d="M45 90C69.8528 90 90 69.8528 90 45C90 20.1472 69.8528 0 45 0C20.1472 0 0 20.1472 0 45C0 69.8528 20.1472 90 45 90Z" fill="#FF9417"/>
<path d="M45.0001 36C43.2201 36 41.48 36.5278 40 37.5167C38.5199 38.5057 37.3664 39.9113 36.6852 41.5558C36.004 43.2003 35.8258 45.0099 36.173 46.7558C36.5203 48.5016 37.3775 50.1053 38.6361 51.3639C39.8948 52.6226 41.4984 53.4798 43.2443 53.827C44.9901 54.1743 46.7997 53.9961 48.4442 53.3149C50.0888 52.6337 51.4944 51.4801 52.4833 50.0001C53.4722 48.5201 54.0001 46.78 54.0001 45C53.9976 42.6138 53.0486 40.326 51.3613 38.6387C49.674 36.9515 47.3863 36.0024 45.0001 36ZM45.0001 51C43.8134 51 42.6534 50.6481 41.6667 49.9888C40.68 49.3295 39.9109 48.3924 39.4568 47.2961C39.0027 46.1997 38.8839 44.9933 39.1154 43.8294C39.3469 42.6655 39.9183 41.5964 40.7574 40.7573C41.5966 39.9182 42.6657 39.3468 43.8295 39.1153C44.9934 38.8837 46.1998 39.0026 47.2962 39.4567C48.3925 39.9108 49.3296 40.6798 49.9889 41.6665C50.6482 42.6532 51.0001 43.8133 51.0001 45C51.0001 46.5913 50.3679 48.1174 49.2427 49.2426C48.1175 50.3678 46.5914 51 45.0001 51ZM61.5001 45.405C61.5076 45.135 61.5076 44.865 61.5001 44.595L64.2976 41.1C64.4443 40.9165 64.5458 40.7011 64.594 40.4711C64.6422 40.2412 64.6357 40.0032 64.5751 39.7762C64.1165 38.0523 63.4305 36.3972 62.5351 34.8543C62.4179 34.6524 62.2551 34.4807 62.0598 34.3528C61.8645 34.2248 61.642 34.1443 61.4101 34.1175L56.9626 33.6225C56.7776 33.4275 56.5901 33.24 56.4001 33.06L55.8751 28.6012C55.8481 28.3691 55.7672 28.1465 55.639 27.9512C55.5107 27.7559 55.3386 27.5932 55.1363 27.4762C53.5929 26.5825 51.9379 25.8972 50.2145 25.4381C49.9874 25.3777 49.7492 25.3715 49.5193 25.4201C49.2894 25.4686 49.0741 25.5705 48.8907 25.7175L45.4051 28.5C45.1351 28.5 44.8651 28.5 44.5951 28.5L41.1001 25.7081C40.9166 25.5614 40.7012 25.4599 40.4713 25.4117C40.2413 25.3635 40.0033 25.37 39.7763 25.4306C38.0527 25.89 36.3977 26.576 34.8545 27.4706C34.6526 27.5878 34.4808 27.7506 34.3529 27.9459C34.225 28.1412 34.1444 28.3637 34.1176 28.5956L33.6226 33.0506C33.4276 33.2368 33.2401 33.4243 33.0601 33.6131L28.6013 34.125C28.3692 34.152 28.1467 34.2328 27.9513 34.3611C27.756 34.4893 27.5934 34.6615 27.4763 34.8637C26.5826 36.4071 25.8973 38.0622 25.4382 39.7856C25.3778 40.0127 25.3717 40.2508 25.4202 40.4808C25.4687 40.7107 25.5706 40.926 25.7176 41.1093L28.5001 44.595C28.5001 44.865 28.5001 45.135 28.5001 45.405L25.7082 48.9C25.5615 49.0835 25.46 49.2989 25.4118 49.5288C25.3636 49.7587 25.3701 49.9968 25.4307 50.2237C25.8893 51.9476 26.5753 53.6027 27.4707 55.1456C27.5879 55.3475 27.7507 55.5192 27.946 55.6472C28.1413 55.7751 28.3638 55.8557 28.5957 55.8825L33.0432 56.3775C33.2295 56.5725 33.417 56.76 33.6057 56.94L34.1251 61.3987C34.1521 61.6308 34.2329 61.8534 34.3612 62.0487C34.4895 62.244 34.6616 62.4067 34.8638 62.5237C36.4073 63.4174 38.0623 64.1028 39.7857 64.5618C40.0128 64.6222 40.2509 64.6284 40.4809 64.5799C40.7108 64.5313 40.9261 64.4295 41.1095 64.2825L44.5951 61.5C44.8651 61.5075 45.1351 61.5075 45.4051 61.5L48.9001 64.2975C49.0836 64.4442 49.299 64.5457 49.5289 64.5939C49.7588 64.6421 49.9969 64.6356 50.2238 64.575C51.9477 64.1164 53.6029 63.4303 55.1457 62.535C55.3476 62.4177 55.5194 62.255 55.6473 62.0597C55.7752 61.8644 55.8558 61.6419 55.8826 61.41L56.3776 56.9625C56.5726 56.7775 56.7601 56.59 56.9401 56.4L61.3988 55.875C61.6309 55.848 61.8535 55.7671 62.0488 55.6388C62.2442 55.5106 62.4068 55.3385 62.5238 55.1362C63.4176 53.5928 64.1029 51.9378 64.562 50.2143C64.6223 49.9872 64.6285 49.7491 64.58 49.5192C64.5315 49.2892 64.4296 49.0739 64.2826 48.8906L61.5001 45.405ZM58.4813 44.1862C58.5132 44.7282 58.5132 45.2717 58.4813 45.8137C58.459 46.1848 58.5753 46.551 58.8076 46.8412L61.4682 50.1656C61.1629 51.1358 60.772 52.077 60.3001 52.9781L56.0626 53.4581C55.6936 53.4991 55.3528 53.6754 55.1063 53.9531C54.7454 54.359 54.361 54.7434 53.9551 55.1043C53.6774 55.3508 53.5011 55.6916 53.4601 56.0606L52.9895 60.2943C52.0885 60.7665 51.1473 61.1574 50.177 61.4625L46.8507 58.8018C46.5845 58.5892 46.2539 58.4734 45.9132 58.4737H45.8232C45.2812 58.5056 44.7377 58.5056 44.1957 58.4737C43.8246 58.4514 43.4584 58.5676 43.1682 58.8L39.8345 61.4625C38.8642 61.1572 37.923 60.7663 37.022 60.2943L36.542 56.0625C36.501 55.6934 36.3246 55.3527 36.047 55.1062C35.641 54.7453 35.2566 54.3609 34.8957 53.955C34.6492 53.6773 34.3085 53.5009 33.9395 53.46L29.7057 52.9875C29.2336 52.0865 28.8426 51.1453 28.5376 50.175L31.1982 46.8487C31.4305 46.5585 31.5468 46.1923 31.5245 45.8212C31.4926 45.2792 31.4926 44.7357 31.5245 44.1937C31.5468 43.8226 31.4305 43.4565 31.1982 43.1662L28.5376 39.8343C28.8429 38.8641 29.2338 37.9229 29.7057 37.0218L33.9376 36.5418C34.3066 36.5009 34.6473 36.3245 34.8938 36.0468C35.2548 35.6409 35.6392 35.2565 36.0451 34.8956C36.3239 34.6489 36.501 34.3074 36.542 33.9375L37.0126 29.7056C37.9135 29.2334 38.8548 28.8425 39.8251 28.5375L43.1513 31.1981C43.4416 31.4304 43.8077 31.5467 44.1788 31.5243C44.7209 31.4925 45.2643 31.4925 45.8063 31.5243C46.1774 31.5467 46.5436 31.4304 46.8338 31.1981L50.1657 28.5375C51.136 28.8428 52.0772 29.2337 52.9782 29.7056L53.4582 33.9375C53.4992 34.3065 53.6756 34.6472 53.9532 34.8937C54.3591 35.2546 54.7435 35.639 55.1045 36.045C55.351 36.3226 55.6917 36.499 56.0607 36.54L60.2945 37.0106C60.7666 37.9115 61.1575 38.8528 61.4626 39.8231L58.802 43.1493C58.5674 43.442 58.451 43.812 58.4757 44.1862H58.4813Z" fill="white"/>
</g>
</g>
</g>
<defs>
<clipPath id="clip0_484_841">
<rect width="90" height="90" fill="white"/>
</clipPath>
<clipPath id="clip1_484_841">
<rect width="90" height="90" fill="white"/>
</clipPath>
<clipPath id="clip2_484_841">
<rect width="90" height="90" fill="white"/>
</clipPath>
</defs>
</svg>
