<svg width="43" height="43" viewBox="0 0 43 43" fill="none" xmlns="http://www.w3.org/2000/svg">
<path d="M35 5.36363H8.10001L0 14.7637L21.5 40.3636L43 14.7637L35 5.36363ZM12.5 13.4636H4.8L8.89999 8.66368L12.5 13.4636ZM17.3 13.4636L21.5 8.56358L25.7 13.4636H17.3ZM26.9 16.1637L21.5 34.1637L16.1 16.1637H26.9ZM13.6 16.0636L19.2 33.4636L4.60001 16.0636H13.6ZM29.4 16.1637H38.4L23.8 33.5636L29.4 16.1637ZM34.3 8.66368L38.4 13.4636H30.6L34.3 8.66368ZM32.3 8.06358L28.4 12.9636L24.5 8.06358H32.3ZM14.6 12.9636L10.8 8.06358H18.6L14.6 12.9636Z" fill="#FF9417"/>
</svg>
