<svg width="90" height="90" viewBox="0 0 90 90" fill="none" xmlns="http://www.w3.org/2000/svg">
<g clip-path="url(#clip0_480_263)">
<g clip-path="url(#clip1_480_263)">
<g clip-path="url(#clip2_480_263)">
<path d="M45 90C69.8528 90 90 69.8528 90 45C90 20.1472 69.8528 0 45 0C20.1472 0 0 20.1472 0 45C0 69.8528 20.1472 90 45 90Z" fill="#FF9417"/>
<path d="M45.0008 22.3L25.3008 33.7001V56.4001L45.0008 67.7L64.7008 56.4001V33.7001L45.0008 22.3ZM62.6008 55.1L45.0008 65.3001L36.1008 60.2001L27.4008 55.2001V34.9001L45.0008 24.7001L62.6008 34.8V55.1Z" fill="white"/>
<path d="M51.9012 41.3001C51.7012 41.1001 51.4012 41.0001 51.1012 41.0001H49.1012V38.6001C49.1012 37.8001 48.8012 37.0001 48.2012 36.5001C47.6012 35.9001 46.9012 35.6001 46.1012 35.6001H43.5012C42.7012 35.6001 41.9012 35.9001 41.4012 36.5001C40.9012 37.1001 40.5012 37.8001 40.5012 38.6001V41.0001H38.8012C38.5012 41.0001 38.1012 41.1001 38.0012 41.4001C37.8012 41.6001 37.7012 41.9001 37.7012 42.2001V51.9001C37.7012 52.2001 37.8012 52.5001 38.0012 52.7001C38.1012 53.0001 38.5012 53.1001 38.8012 53.1001H51.1012C51.4012 53.1001 51.7012 53.0001 51.9012 52.8001C52.2012 52.7001 52.3012 52.3001 52.3012 52.0001V42.3001C52.3012 41.8001 52.2012 41.6001 51.9012 41.3001ZM42.3012 40.9001V38.5001C42.3012 38.1001 42.5012 37.8001 42.7012 37.6001C43.0012 37.3001 43.2012 37.2001 43.6012 37.2001H46.2012C46.6012 37.2001 46.9012 37.4001 47.1012 37.6001C47.4012 37.9001 47.5012 38.1001 47.5012 38.5001V40.9001H42.3012ZM50.6012 42.7001V51.4001H39.3012V42.7001H50.6012Z" fill="white"/>
<path d="M44.4008 47.7001V49.5001C44.4008 49.8001 44.7008 50.1001 45.0008 50.1001C45.3008 50.1001 45.6008 49.8001 45.6008 49.5001V47.7001C46.2008 47.5001 46.7008 46.9001 46.7008 46.1001C46.7008 45.2001 45.9008 44.4001 45.0008 44.4001C44.1008 44.4001 43.3008 45.2001 43.3008 46.1001C43.3008 46.9001 43.8008 47.5001 44.4008 47.7001ZM45.0008 45.6001C45.3008 45.6001 45.5008 45.8001 45.5008 46.1001C45.5008 46.4001 45.3008 46.6001 45.0008 46.6001C44.7008 46.6001 44.5008 46.4001 44.5008 46.1001C44.5008 45.8001 44.7008 45.6001 45.0008 45.6001Z" fill="white"/>
</g>
</g>
</g>
<defs>
<clipPath id="clip0_480_263">
<rect width="90" height="90" fill="white"/>
</clipPath>
<clipPath id="clip1_480_263">
<rect width="90" height="90" fill="white"/>
</clipPath>
<clipPath id="clip2_480_263">
<rect width="90" height="90" fill="white"/>
</clipPath>
</defs>
</svg>
