<?xml version="1.0" encoding="UTF-8"?>
<svg id="Layer_1" xmlns="http://www.w3.org/2000/svg" version="1.1" viewBox="0 0 57 56">
  <!-- Generator: Adobe Illustrator 29.4.0, SVG Export Plug-In . SVG Version: 2.1.0 Build 152)  -->
  <defs>
    <style>
      .st0 {
        fill: #ff9417;
      }

      .st1 {
        fill: none;
        stroke: #fff;
        stroke-linecap: round;
        stroke-linejoin: round;
        stroke-width: 1.5px;
      }

      .st2 {
        fill: #fff;
      }
    </style>
  </defs>
  <rect class="st0" x=".5" width="56" height="56" rx="12" ry="12"/>
  <g>
    <path class="st1" d="M39.6,33.5h-22.2c-.6,0-1.1.3-1.1.7v4.2c0,.4.5.7,1.1.7h22.2c.6,0,1.1-.3,1.1-.7v-4.2c0-.4-.5-.7-1.1-.7Z"/>
    <path class="st1" d="M39.6,25.2h-22.2c-.6,0-1.1.3-1.1.7v4.2c0,.4.5.7,1.1.7h22.2c.6,0,1.1-.3,1.1-.7v-4.2c0-.4-.5-.7-1.1-.7Z"/>
    <path class="st2" d="M37.6,29c.6,0,1-.5,1-1s-.5-1-1-1-1,.5-1,1,.5,1,1,1Z"/>
    <path class="st1" d="M39.6,16.9h-22.2c-.6,0-1.1.3-1.1.7v4.2c0,.4.5.7,1.1.7h22.2c.6,0,1.1-.3,1.1-.7v-4.2c0-.4-.5-.7-1.1-.7Z"/>
    <path class="st2" d="M37.6,20.7c.6,0,1-.5,1-1s-.5-1-1-1-1,.5-1,1,.5,1,1,1Z"/>
    <path class="st2" d="M37.6,37.4c.6,0,1-.5,1-1s-.5-1-1-1-1,.5-1,1,.5,1,1,1Z"/>
    <path class="st2" d="M34.7,29c.6,0,1-.5,1-1s-.5-1-1-1-1,.5-1,1,.5,1,1,1Z"/>
    <path class="st2" d="M34.7,20.7c.6,0,1-.5,1-1s-.5-1-1-1-1,.5-1,1,.5,1,1,1Z"/>
    <path class="st2" d="M34.7,37.4c.6,0,1-.5,1-1s-.5-1-1-1-1,.5-1,1,.5,1,1,1Z"/>
    <path class="st2" d="M31.7,29c.6,0,1-.5,1-1s-.5-1-1-1-1,.5-1,1,.5,1,1,1Z"/>
    <path class="st2" d="M31.7,20.7c.6,0,1-.5,1-1s-.5-1-1-1-1,.5-1,1,.5,1,1,1Z"/>
    <path class="st2" d="M31.7,37.4c.6,0,1-.5,1-1s-.5-1-1-1-1,.5-1,1,.5,1,1,1Z"/>
  </g>
</svg>