<svg width="19" height="17" viewBox="0 0 19 17" xmlns="http://www.w3.org/2000/svg">
    <path d="M17.719 12.89 10.884 1.05A2.11 2.11 0 0 0 9.063 0 2.11 2.11 0 0 0 7.24 1.051L.346 12.995a2.11 2.11 0 0 0 0 2.103 2.11 2.11 0 0 0 1.821 1.052h13.795a2.105 2.105 0 0 0 1.757-3.26zm-1.757 1.858H2.167a.703.703 0 0 1-.607-1.052L8.456 1.753a.703.703 0 0 1 1.214 0l6.846 11.858a.645.645 0 0 0 .027.043.702.702 0 0 1-.581 1.094zm-6.897-4.083c.234 0 .563-.16.583-.583l.2-4.072a.784.784 0 0 0-1.567 0l.2 4.072c.024.444.321.583.584.583zm0 .659a1.004 1.004 0 0 0-.709 1.71 1.001 1.001 0 1 0 .709-1.71z" fill="#FFF" fill-rule="nonzero"/>
</svg>
