<svg width="44" height="45" viewBox="0 0 44 45" fill="none" xmlns="http://www.w3.org/2000/svg">
<path d="M32.5554 33.5868C30.0384 36.1238 26.8595 37.5723 23.5761 37.9411L20.4756 44.8236C26.5286 45.2099 32.7209 43.0766 37.3456 38.4151C45.4278 30.2684 45.8633 17.346 38.6607 8.6814L33.8444 13.5361C38.4081 19.5056 37.9813 28.1264 32.5554 33.5956V33.5868Z" fill="#FF9417"/>
<path d="M7.11552 19.5319C7.71646 16.7842 9.06641 14.1769 11.1741 12.0436C16.6609 6.51301 25.3529 6.13552 31.2752 10.9024L36.0827 6.05651C27.4953 -1.37034 14.5359 -0.984068 6.39265 7.22409C2.27313 11.3764 0.148059 16.7754 0 22.227L7.11552 19.5407V19.5319Z" fill="#22E1C9"/>
<path d="M1.4458 26.3883L13.1163 30.2508L16.2952 42.9274L27.3996 17.425L1.4458 26.3883Z" fill="#424549"/>
</svg>
