<?xml version="1.0" encoding="utf-8"?>
<!-- Generator: Adobe Illustrator 26.3.1, SVG Export Plug-In . SVG Version: 6.00 Build 0)  -->
<svg version="1.1" id="Layer_1" xmlns="http://www.w3.org/2000/svg" xmlns:xlink="http://www.w3.org/1999/xlink" x="0px" y="0px"
	 viewBox="0 0 1868.2 415.5" style="enable-background:new 0 0 1868.2 415.5;" xml:space="preserve">
<style type="text/css">
	.st0{fill:#31BBEA;}
	.st1{fill:#80CCEB;}
	.st2{fill:#111316;}
	.st3{fill:#00BAFF;}
</style>
<g>
	<g id="logo_00000018203260394240524070000008501366925835155378_">
		<g>
			<g>
				<g>
					<path class="st0" d="M333.8,115.1c8.4,11.8,15.2,24.6,20.2,38.2l17.8-5.9c-5.7-15.5-13.4-30.2-23.1-43.6L333.8,115.1z"/>
					<path class="st0" d="M211.2,30.3c-4.8-0.2-9.6-0.2-14.4,0l1.4,18.7c7.2-0.3,14.4-0.1,21.6,0.6c7.2,0.7,14.4,1.8,21.4,3.4
						l4.8-18.1c-8-1.8-16.2-3.2-24.4-4C218.1,30.6,214.6,30.4,211.2,30.3z"/>
					<path class="st0" d="M35.7,290.4c-7.5-15.4-12.9-31.5-16-48.3L0,245.2c3.5,18.9,9.5,37.2,18.1,54.5L35.7,290.4z"/>
					<path class="st0" d="M25.5,101.4l17.4,9.6c8.7-14.6,19.3-28,31.7-39.8L61.2,56.5C47.3,69.8,35.3,84.8,25.5,101.4z"/>
					<path class="st0" d="M0.9,165.4l19.6,3.5c3.5-16.7,9.1-32.8,17-48L20,111.3C11.1,128.4,4.7,146.5,0.9,165.4z"/>
					<path class="st0" d="M128.4,13.5l7.8,18.3c15.9-6.2,32.4-10.2,49.4-12L184.2,0C165.1,1.9,146.3,6.4,128.4,13.5z"/>
					<path class="st0" d="M69.7,48.9L83,63.6c13-11.1,27.3-20.2,42.8-27.4L118,17.9C100.5,26,84.3,36.4,69.7,48.9z"/>
					<path class="st0" d="M364.5,341.4L349,329.1c-11,13-23.7,24.4-37.8,34.1l10.7,16.8C337.8,369.1,352.1,356.2,364.5,341.4z"/>
					<path class="st0" d="M122.3,376.9c-15.3-7.4-29.5-16.9-42.3-28.3l-13.6,14.5c14.4,12.8,30.4,23.5,47.7,31.9L122.3,376.9z"/>
					<path class="st0" d="M412.5,226.7c2.5-27.1-0.1-53.9-7.9-79.6l-18.9,6.3c6.9,23.1,9.3,47.1,7.1,71.5c-1.3,13.8-4,27.2-8.2,40.2
						l18.8,6.7C407.9,257.2,411,242.1,412.5,226.7z"/>
					<path class="st0" d="M296.4,359.2l-10.1-15.8c-12.5,7.4-25.8,13.1-39.7,16.9l4.4,18.2C266.9,374.2,282.2,367.7,296.4,359.2z"/>
					<path class="st0" d="M49.9,227.3c-1.4-11.7-1.6-23.5-0.5-35.3c0.3-2.7,0.6-5.3,1-7.9L32,180.8c-0.5,3.1-0.9,6.3-1.2,9.5
						c-1.2,13.4-1.1,26.8,0.6,39.9L49.9,227.3z"/>
					<path class="st0" d="M258.6,26.6c16.4,4.8,31.9,11.8,46.4,20.9L316,31c-16.3-10.3-33.9-18.2-52.4-23.6L258.6,26.6z"/>
					<path class="st0" d="M177.6,413.9l1.8-19.8c-16.2-2.2-31.9-6.4-46.8-12.6l-8.2,18.1C141.4,406.7,159.2,411.5,177.6,413.9z"/>
					<path class="st0" d="M80.2,333.3L93,319.6c-10.2-10.3-19-21.8-26.2-34.4L50.3,294C58.4,308.4,68.5,321.6,80.2,333.3z"/>
					<path class="st0" d="M325.4,37.3l-11.1,16.6c13.9,9.9,26.3,21.6,37.1,34.8l15.8-12.1C355.1,61.6,341.1,48.4,325.4,37.3z"/>
					<path class="st0" d="M344.5,313.2c9.9-13.3,18-27.8,23.9-43.2l-17.7-6.3c-5.3,13.5-12.3,26.1-21,37.8L344.5,313.2z"/>
				</g>
				<g>
					<path class="st1" d="M359.2,162.2l-17.8,5.9c4.9,17,6.6,34.6,4.9,52.5c-0.9,9.8-2.9,19.6-5.8,28.9l17.7,6.3
						c3.4-10.9,5.7-22.1,6.7-33.5C366.9,201.8,364.9,181.6,359.2,162.2z"/>
					<path class="st1" d="M182.1,366.4l1.7-18.7c-11-1.6-21.8-4.6-32-8.7l-7.7,17.1C156.2,361.1,169,364.5,182.1,366.4z"/>
					<path class="st1" d="M310.8,167.6l16.8-5.6c-4-10.7-9.4-20.7-15.9-30.1l-14,10.7C303,150.4,307.5,158.8,310.8,167.6z"/>
					<path class="st1" d="M209.4,76.8c-3.1-0.1-6.2-0.1-9.2,0l1.3,17.6c4.7-0.1,9.5,0,14.1,0.5c4.7,0.4,9.3,1.2,14,2.1l4.5-17.1
						c-5.5-1.2-11.1-2.1-16.8-2.6C214.6,77.1,212,76.9,209.4,76.8z"/>
					<path class="st1" d="M67.2,124.5l16.4,9.1c6.2-10.2,13.6-19.5,22.1-27.8L93.2,91.9C83.1,101.6,74.4,112.5,67.2,124.5z"/>
					<path class="st1" d="M246.7,71.6c11.4,3.5,22.2,8.4,32.4,14.6l10.4-15.6c-11.9-7.3-24.6-13.1-38-17.1L246.7,71.6z"/>
					<path class="st1" d="M314.4,116.9l14.9-11.4c-8.8-10.8-19-20.4-30.4-28.6l-10.4,15.6C298.1,99.6,306.8,107.7,314.4,116.9z"/>
					<path class="st1" d="M294.2,273.2l13.8,11c6.7-9.2,12.3-19.2,16.5-29.8l-16.6-5.9C304.3,257.3,299.7,265.5,294.2,273.2z"/>
					<path class="st1" d="M111.9,314.7l-12.8,13.7c10.5,9.3,22.2,17,34.7,23.2l7.7-17.1C130.8,329.1,120.9,322.5,111.9,314.7z"/>
					<path class="st1" d="M94.9,220.2c-0.9-7.9-0.9-16-0.2-24c0.1-1.4,0.3-2.8,0.5-4.2l-17.4-3.1c-0.3,1.9-0.5,3.8-0.6,5.7
						c-0.9,9.5-0.8,19,0.3,28.4L94.9,220.2z"/>
					<path class="st1" d="M65.7,234.9l-18.5,2.9c2.6,13.7,7,27,13.1,39.6l16.6-8.8C71.7,257.9,68,246.6,65.7,234.9z"/>
					<path class="st1" d="M286.1,323.9l10.1,15.8c11.5-8,21.9-17.3,31-28l-14.7-11.7C304.8,309.1,295.9,317.1,286.1,323.9z"/>
					<path class="st1" d="M78.1,143.5l-16.4-9.1c-6.4,12.5-11,25.6-13.9,39.3l18.5,3.3C68.8,165.4,72.8,154.1,78.1,143.5z"/>
					<path class="st1" d="M235.9,316.2l4.2,17.2c11-3.1,21.4-7.6,31.3-13.4l-9.5-14.9C253.6,309.8,244.9,313.5,235.9,316.2z"/>
					<path class="st1" d="M107.1,264l-15.6,8.2c5.7,9.9,12.6,18.9,20.6,27.1l12.1-12.9C117.6,279.7,111.9,272.2,107.1,264z"/>
					<path class="st1" d="M199.8,349.2c-1.6-0.1-3.1-0.2-4.7-0.3l-1.7,18.7c14.8,1.1,29.6,0.1,44-2.8l-4.4-18.2
						C222,348.8,210.9,349.7,199.8,349.2z"/>
					<path class="st1" d="M101.6,84.3l12.6,13.9c9.1-7.6,19.2-14,29.9-19.2l-7.4-17.2C124,67.8,112.3,75.3,101.6,84.3z"/>
					<path class="st1" d="M147.1,57.4l7.4,17.2c11.1-4.2,22.7-7,34.5-8.3l-1.4-18.7C173.8,49.1,160.2,52.3,147.1,57.4z"/>
				</g>
				<g>
					<path class="st2" d="M543.6,228.2c0,20.7-16.5,27.1-39.4,27.1h-28.4v-94.3h24.7c24.3,0,39,6.8,39,24c0,11.7-8.5,18.4-17.5,20.3
						C532.8,207.5,543.6,212.5,543.6,228.2z M493.8,199.9h11.1c9.8,0,16.2-4.4,16.2-13.2c0-9.5-6.5-12.3-18.8-12.3h-8.5L493.8,199.9
						L493.8,199.9z M524.7,227.6c0-11.3-8.1-15.1-18.6-15.1h-12.4v29.5h10.5C516.1,241.9,524.7,239.4,524.7,227.6z"/>
					<path class="st2" d="M579.5,243.4c1.4,0,2.9-0.3,4.1-0.7l3.7,12.3c-3.5,1.5-7.9,2.5-12.4,2.5c-10.8,0-16.9-6.4-16.9-18.4v-84.7
						l17.5-1.9v85.4C575.4,241.7,576.6,243.4,579.5,243.4z"/>
					<path class="st2" d="M662.9,219.2c0,22.8-12.7,38.2-34,38.2c-21.3,0-34-14.5-34-38.2c0-22.6,12.7-38.1,34.1-38.1
						C650.3,181.2,662.9,195.6,662.9,219.2z M613.4,219.2c0,17.3,5.3,25,15.5,25c10.2,0,15.6-7.8,15.6-25c0-17.2-5.3-24.8-15.4-24.8
						C618.8,194.4,613.4,202.2,613.4,219.2z"/>
					<path class="st2" d="M729.3,189.6l-7.9,10.6c-4.6-3.7-9-5.3-14.5-5.3c-10.1,0-16.2,7.4-16.2,24.7c0,17.5,6.4,23.6,16.2,23.6
						c5.5,0,9.3-1.8,14.3-5.6l8.1,11.5c-6.5,5.3-14.1,8.3-23.3,8.3c-20.9,0-33.8-14.5-33.8-37.5s13-38.7,33.7-38.7
						C715.2,181.2,722.5,183.8,729.3,189.6z"/>
					<path class="st2" d="M741.3,255.4V154.3l17.5-1.9v103H741.3z M804.3,255.4h-20.1l-24.8-39.4l24.1-32.7H802L778,215L804.3,255.4
						z"/>
					<path class="st2" d="M865.8,189.8l-6.8,10.5c-6-4.1-11.7-6.1-17.7-6.1c-7.4,0-11.3,2.9-11.3,7.2c0,4.8,2.9,6.9,15.1,10.4
						c14.7,4,23.1,10,23.1,22.8c0,15-13.9,22.9-30.4,22.9c-12.4,0-22.1-4.2-28.8-10.2l8.9-10c5.5,4.4,12.1,7.2,19.4,7.2
						c7.9,0,13-3.4,13-8.5c0-6.3-2.9-8.2-16.4-12c-14.9-4.1-21.4-11.2-21.4-21.8c0-12,11-21,27.8-21
						C850.5,181.2,859,184.4,865.8,189.8z"/>
					<path class="st2" d="M907.8,257.4c-14.2-0.1-21.7-8.2-21.7-23.6v-38.1h-11.3v-12.6h11.3v-16l17.5-2v18h16.8l-1.8,12.6h-15v37.6
						c0,7.1,2.3,10,7.6,10c2.7,0,5.5-0.8,8.6-2.7L926,252C920.8,255.6,914.2,257.4,907.8,257.4z"/>
					<path class="st2" d="M979.3,182.3l-3,16.9c-2.2-0.5-4-0.8-6.4-0.8c-8.7,0-13.2,6.4-16,18.6v38.5h-17.5v-72.2h15.1l1.6,14.2
						c3.4-10.4,10.4-16.1,18.8-16.1C974.7,181.3,977,181.6,979.3,182.3z"/>
					<path class="st2" d="M1048.4,224.7h-45.3c1.2,14.7,8.2,19.5,17.7,19.5c6.4,0,11.7-2,18-6.4l7.2,10c-7.1,5.7-15.8,9.7-26.7,9.7
						c-22.4,0-34.4-14.9-34.4-37.7c0-22,11.6-38.6,32.1-38.6c20.2,0,31.8,13.6,31.8,36.4C1048.8,219.9,1048.5,222.8,1048.4,224.7z
						 M1031.5,212.5c0-11.9-4.2-19-14.1-19c-8.2,0-13.4,5.5-14.3,19.8h28.4V212.5z"/>
					<path class="st2" d="M1123.4,245.6l-3.7,11.6c-7.9-0.7-13.1-3.5-16-10.5c-5,7.6-13,10.8-21.6,10.8c-14.5,0-23.3-9.1-23.3-22.2
						c0-15.7,11.9-24.1,32.9-24.1h9V207c0-9.4-4.2-12.6-13.5-12.6c-4.9,0-11.9,1.4-19.1,3.8l-4.1-11.9c8.9-3.4,18-5.2,26.2-5.2
						c19.2,0,27.7,8.9,27.7,24.8v30.3C1117.9,242.1,1119.8,244.2,1123.4,245.6z M1100.7,235.9v-14.6h-7.2
						c-11.3,0-16.9,4.1-16.9,12.6c0,6.9,3.6,10.9,10.2,10.9C1092.9,244.7,1097.4,241.6,1100.7,235.9z"/>
					<path class="st2" d="M1233.3,203.1v52.2h-17.5v-49.5c0-9-3.5-11.6-7.9-11.6c-6,0-9.7,4.2-13.6,10.9v50.2h-17.5v-49.5
						c0-9-3.7-11.6-7.9-11.6c-6.1,0-9.8,4.2-13.8,10.9v50.2h-17.5v-72.2h15.1l1.4,9.4c5.2-7.2,11.7-11.5,20.9-11.5
						c8.5,0,14.7,4.5,17.5,12.1c5.5-7.5,12.1-12.1,21.7-12.1C1225.7,181.2,1233.3,189.5,1233.3,203.1z"/>
				</g>
				<path class="st3" d="M194.5,415.4c15.3,0.5,35.9-0.7,52.8-4.3l-4.1-19.2c-15.1,3.2-30.3,4.4-45.8,3.8c-2.5-0.1-4.2-0.3-6.7-0.5
					l-1.7,20C191.7,415.5,189.9,415.3,194.5,415.4L194.5,415.4z"/>
			</g>
		</g>
	</g>
	<g>
		<path class="st2" d="M1367.7,146.4v8.4h-54.3v39.3h49.6v8.4h-49.6v43.1h54.3v8.4h-63.4V146.4H1367.7z"/>
		<path class="st2" d="M1436,254l-22.6-32.5l-22.8,32.5h-10.1l27.9-39.9l-25.6-38.1h10.2l20.4,30.7l20.3-30.7h10.3l-25.6,38.1
			l27.9,39.9H1436z"/>
		<path class="st2" d="M1526.1,220.5c0,21.4-10.1,34.5-30.4,34.5c-11.9,0-19.2-3.3-23.6-10.1v38.9h-8.6V176h8.6v9.8
			c4.4-7,11.7-10.8,23.6-10.8c19.3,0,30.4,12,30.4,34.2V220.5z M1517.5,220.5v-11.2c0-17-7.6-26.2-22.5-26.2
			c-16.5,0-22.9,10-22.9,25.3v13.6c0.2,14.7,5.8,25.1,22.9,25.1C1510,247,1517.5,236.9,1517.5,220.5z"/>
		<path class="st2" d="M1547.9,146.4h8.6v81.8c0,10.9,1.2,18.1,14.8,18.1v8.1c-17.9,0-23.4-7.8-23.4-24V146.4z"/>
		<path class="st2" d="M1621.4,255c-20.1,0-31.7-12.5-31.7-34.3v-11.4c0-22.2,11.7-34.2,31.7-34.2c20,0,31.7,12,31.7,34.2v11.4
			C1653.1,241.9,1642.3,255,1621.4,255z M1644.5,209.3c0-17-8.3-26.2-23.1-26.2c-15,0-23.1,9.2-23.1,26.2v11.4
			c0,16.4,7.3,26.4,23.1,26.4c15.1,0,23.1-10,23.1-26.4V209.3z"/>
		<path class="st2" d="M1683.5,207.1v47h-8.6v-78h8.6v10.6c3.3-7.2,9.8-11.5,19.7-11.5c10.1,0,16.9,3.9,22,10.8l-7.2,5.3
			c-4.1-5.3-8.7-8-15.6-8C1690.2,183.2,1683.5,192.9,1683.5,207.1z"/>
		<path class="st2" d="M1743.3,217.2v3.3c0,15.4,7.2,26.5,23.7,26.5c9.5,0,15.9-2.8,20.3-9.5l6.9,4.8c-5.4,8.6-14,12.6-26.7,12.6
			c-20.8,0-32.8-12.8-32.8-34.5v-11.2c0-22.2,10.6-34.2,30.1-34.2s30.1,12,30.1,34.2v8H1743.3z M1743.3,209.4h43.1v-0.2
			c0-17-7.3-26.2-21.5-26.2c-14.2,0-21.5,9.4-21.5,26.2V209.4z"/>
		<path class="st2" d="M1826.6,207.1v47h-8.6v-78h8.6v10.6c3.3-7.2,9.8-11.5,19.7-11.5c10.1,0,16.9,3.9,22,10.8l-7.2,5.3
			c-4.1-5.3-8.7-8-15.6-8C1833.3,183.2,1826.6,192.9,1826.6,207.1z"/>
	</g>
</g>
</svg>
