<svg width="216" height="46" viewBox="0 0 216 46" fill="none" xmlns="http://www.w3.org/2000/svg">
<path d="M67.68 8.90956C68.2112 9.38361 68.4812 10.1035 68.4812 11.0604C68.4812 12.3947 68.0109 13.3428 67.079 13.9047C66.1471 14.4665 64.8407 14.7474 63.1598 14.7562H59.3364V1.93921H62.6634C66.1645 1.93921 67.9238 3.02778 67.9238 5.20491C67.95 5.88966 67.7061 6.54807 67.2445 7.04846C66.7916 7.52251 66.2081 7.84732 65.5723 7.97023C66.3474 8.08435 67.079 8.40917 67.68 8.90956ZM61.7576 7.20647H63.2469C63.813 7.24159 64.3791 7.08357 64.8494 6.74998C65.2501 6.42516 65.4678 5.92477 65.4417 5.40682C65.4939 4.89766 65.2588 4.39727 64.832 4.11635C64.2311 3.82665 63.5692 3.70374 62.9073 3.74764H61.7663V7.20647H61.7576ZM65.2326 12.5089C65.7029 12.2367 65.9381 11.7275 65.9381 10.9638C65.9904 10.3581 65.7378 9.76988 65.2675 9.39239C64.7275 9.04124 64.083 8.87444 63.4385 8.90956H61.7663V12.9127H63.1772C63.8827 12.9566 64.5882 12.8161 65.2326 12.5089Z" fill="#424549"/>
<path d="M72.9234 12.9391C73.0279 13.062 73.1846 13.1322 73.3501 13.1147C73.5417 13.1147 73.7246 13.0796 73.8988 13.0181L74.3952 14.6861C73.864 14.9055 73.2979 15.0197 72.723 15.0197C72.096 15.0636 71.4776 14.8265 71.0334 14.3788C70.6067 13.8521 70.3977 13.1849 70.4412 12.5177V1.01751L72.7927 0.75415V12.3597C72.7753 12.5616 72.8189 12.7635 72.9147 12.9391H72.9234Z" fill="#424549"/>
<path d="M83.1045 6.0478C83.9058 6.96079 84.3064 8.22493 84.3064 9.84023C84.3238 10.7796 84.1409 11.7013 83.7577 12.5529C83.4181 13.3078 82.8694 13.9399 82.1726 14.3789C81.441 14.8266 80.5875 15.0548 79.734 15.0285C78.297 15.0285 77.1735 14.572 76.3635 13.6502C75.5535 12.7284 75.1442 11.4643 75.1442 9.84023C75.1268 8.90968 75.3097 7.98791 75.6929 7.13636C76.0326 6.39017 76.5812 5.7581 77.278 5.31916C78.0183 4.87144 78.8718 4.64319 79.734 4.66953C81.1711 4.66953 82.2946 5.12603 83.0958 6.05658L83.1045 6.0478ZM77.6177 9.83145C77.6177 10.9902 77.7918 11.8506 78.1402 12.4124C78.4799 12.9567 79.0808 13.2727 79.7166 13.2376C80.3524 13.2727 80.9533 12.9479 81.2843 12.4036C81.6327 11.8506 81.8068 10.999 81.8068 9.84901C81.8068 8.69899 81.6327 7.84745 81.2843 7.29438C80.9533 6.75888 80.3611 6.44284 79.734 6.46918C78.3318 6.46918 77.6351 7.58408 77.6351 9.83145H77.6177Z" fill="#424549"/>
<path d="M92.1535 4.93275C92.6848 5.13466 93.1725 5.42436 93.5993 5.80185L92.528 7.25035C92.2406 7.0221 91.9271 6.83775 91.5961 6.70606C91.2739 6.58316 90.9255 6.52171 90.5858 6.53049C89.1227 6.53049 88.3911 7.65417 88.3911 9.89276C88.3911 11.0252 88.5827 11.8504 88.9572 12.3508C89.3404 12.8512 89.9501 13.1233 90.5771 13.0882C90.9081 13.0882 91.239 13.0356 91.5439 12.9127C91.8835 12.7546 92.2145 12.5615 92.5019 12.3245L93.5993 13.8783C92.7196 14.6157 91.6048 15.0196 90.4552 15.0108C89.6017 15.0283 88.7656 14.8177 88.0253 14.3963C87.3373 13.9749 86.7799 13.3604 86.4402 12.623C86.057 11.7714 85.8654 10.8496 85.8915 9.91032C85.8741 8.96221 86.057 8.02288 86.4402 7.16256C86.7799 6.40759 87.3286 5.76674 88.0166 5.31902C88.7395 4.8713 89.5756 4.64305 90.4291 4.66061C91.0126 4.66061 91.5961 4.7484 92.1448 4.94153L92.1535 4.93275Z" fill="#424549"/>
<path d="M95.3062 14.7387V1.00872L97.6577 0.745361V14.7475H95.3062V14.7387ZM103.806 14.7387H101.107L97.7535 9.38368L101.011 4.93284H103.493L100.253 9.25199L103.798 14.7387H103.806Z" fill="#424549"/>
<path d="M111.653 5.81957L110.739 7.24173C110.042 6.72378 109.206 6.43408 108.344 6.40775C107.952 6.38141 107.56 6.47798 107.212 6.67989C106.968 6.82913 106.811 7.10127 106.82 7.39097C106.82 7.59288 106.872 7.78601 106.985 7.94403C107.151 8.12839 107.351 8.26885 107.586 8.35663C108.004 8.53221 108.431 8.67267 108.866 8.79557C109.729 8.97993 110.53 9.36619 111.218 9.91926C111.74 10.4372 112.019 11.1483 111.976 11.8857C112.01 12.7987 111.566 13.6678 110.8 14.1682C109.938 14.7476 108.91 15.0373 107.874 14.9934C107.125 15.0022 106.384 14.8793 105.679 14.6247C105.052 14.3964 104.477 14.0541 103.98 13.6063L105.174 12.2544C105.905 12.8777 106.828 13.2289 107.786 13.2376C108.231 13.2552 108.675 13.1498 109.058 12.9216C109.354 12.746 109.537 12.43 109.537 12.0876C109.554 11.8418 109.493 11.6048 109.363 11.3941C109.197 11.1922 108.98 11.0342 108.736 10.9376C108.274 10.7445 107.804 10.5864 107.325 10.4548C106.506 10.2792 105.748 9.88414 105.13 9.31352C104.66 8.82191 104.407 8.15472 104.433 7.46998C104.425 6.94325 104.59 6.4253 104.904 5.99514C105.243 5.53865 105.705 5.1875 106.227 4.97681C106.846 4.72222 107.516 4.59932 108.187 4.6081C109.45 4.58176 110.678 5.00314 111.662 5.79323L111.653 5.81957Z" fill="#424549"/>
<path d="M118.29 14.8266C117.872 14.9495 117.437 15.0109 116.992 15.0109C116.182 15.0636 115.381 14.7651 114.798 14.1857C114.293 13.6502 114.066 12.8514 114.066 11.8067V6.64476H112.542V4.91534H114.066V2.74699L116.418 2.46606V4.91534H118.673L118.438 6.6272H116.409V11.7452C116.374 12.1052 116.461 12.4739 116.653 12.7811C116.844 13.0094 117.141 13.1235 117.437 13.0972C117.846 13.0796 118.247 12.9567 118.595 12.7285L119.422 14.2735C119.074 14.5193 118.682 14.7125 118.273 14.8354L118.29 14.8266Z" fill="#424549"/>
<path d="M126.555 4.79236L126.146 7.0924C125.859 7.02217 125.571 6.98705 125.275 6.97827C124.753 6.95194 124.247 7.18896 123.917 7.60156C123.516 8.17219 123.246 8.83059 123.124 9.51534V14.7299H120.772V4.91526H122.819L123.037 6.84659C123.22 6.2233 123.568 5.66146 124.047 5.22252C124.474 4.85381 125.014 4.6519 125.58 4.66068C125.911 4.66068 126.233 4.70457 126.555 4.80114V4.79236Z" fill="#424549"/>
<path d="M135.77 10.56H129.665C129.752 11.5081 130.004 12.1929 130.396 12.5967C130.84 13.0181 131.433 13.2375 132.042 13.2112C132.452 13.2112 132.87 13.141 133.253 13.0005C133.68 12.8337 134.089 12.6142 134.463 12.3421L135.439 13.694C134.429 14.5456 133.157 15.0108 131.833 15.0108C130.353 15.0108 129.203 14.5543 128.402 13.6413C127.6 12.7284 127.2 11.4818 127.191 9.89281C127.174 8.97104 127.348 8.04927 127.705 7.19773C128.01 6.44275 128.532 5.79312 129.194 5.32785C129.874 4.86257 130.684 4.62555 131.511 4.65188C132.87 4.65188 133.932 5.09082 134.681 5.95992C135.43 6.82902 135.805 8.04927 135.805 9.60311C135.831 9.72601 135.813 10.0508 135.77 10.5688V10.56ZM133.488 8.90959C133.488 7.18895 132.852 6.32863 131.589 6.32863C131.058 6.30229 130.553 6.5481 130.239 6.96948C129.917 7.39964 129.726 8.0756 129.665 9.01493H133.488V8.90959Z" fill="#424549"/>
<path d="M145.35 12.9742C145.49 13.1673 145.681 13.3165 145.908 13.3955L145.411 14.9757C144.941 14.9494 144.479 14.8089 144.061 14.5807C143.687 14.3349 143.408 13.9749 143.26 13.5448C142.955 14.0188 142.528 14.3963 142.023 14.6509C141.501 14.8967 140.935 15.0284 140.36 15.0196C139.515 15.0635 138.679 14.765 138.06 14.1856C137.486 13.6062 137.181 12.8161 137.216 11.9997C137.163 11.0428 137.599 10.1298 138.365 9.56799C139.132 9.00615 140.229 8.72523 141.657 8.71645H142.868V8.16339C142.92 7.68055 142.763 7.19772 142.441 6.83779C142.032 6.55687 141.544 6.42519 141.048 6.46908C140.168 6.5042 139.297 6.67977 138.47 6.98703L137.921 5.37174C139.045 4.92402 140.238 4.67821 141.448 4.66943C143.939 4.66943 145.185 5.79312 145.185 8.04048V12.1577C145.167 12.4474 145.22 12.7283 145.35 12.9829V12.9742ZM142.851 12.0787V10.0772H141.875C140.36 10.0772 139.602 10.6478 139.593 11.7802C139.567 12.1753 139.689 12.5791 139.942 12.8864C140.212 13.1585 140.586 13.3077 140.969 13.2726C141.779 13.2726 142.511 12.8074 142.859 12.0699H142.851V12.0787Z" fill="#424549"/>
<path d="M160.225 5.4421C160.722 6.05661 160.966 6.82915 160.931 7.61924V14.7213H158.579V7.99672C158.579 6.94327 158.222 6.41654 157.508 6.42532C157.142 6.42532 156.794 6.54823 156.524 6.79403C156.184 7.11007 155.897 7.48755 155.67 7.90016V14.73H153.319V7.99672C153.319 6.94327 152.962 6.41654 152.248 6.42532C151.882 6.42532 151.525 6.54823 151.246 6.79403C150.906 7.11885 150.619 7.48755 150.393 7.90016V14.73H148.041V4.91537H150.079L150.262 6.19707C150.872 5.22263 151.934 4.63445 153.075 4.63445C153.598 4.61689 154.103 4.76613 154.538 5.06461C154.965 5.36309 155.287 5.79325 155.453 6.28486C155.784 5.78447 156.219 5.36309 156.724 5.04706C157.221 4.75736 157.787 4.6169 158.362 4.62567C159.076 4.59934 159.764 4.88904 160.234 5.43332L160.225 5.4421Z" fill="#424549"/>
<path d="M72.9578 27.9947V24.5535H59.3364V45.5435H72.9578V42.1022H63.1947V36.677H71.5121V33.2357H63.1947V27.9947H72.9578Z" fill="#FF9417"/>
<path d="M86.7188 38.1605L90.7686 45.4996H95.1668L88.6784 34.7368L88.7132 34.6666L94.7313 24.5095H90.3854L86.6055 31.5238L86.4923 31.3043L82.8605 24.5095H78.4884L84.5414 34.7368L84.4979 34.807L78.0791 45.4996H82.4773L86.6055 37.9586L86.7188 38.1605Z" fill="#FF9417"/>
<path d="M115.712 31.0498C115.712 27.2222 112.908 24.5535 108.884 24.5535H100.845V45.5347H104.695V37.5373H108.884C112.908 37.5373 115.712 34.8685 115.712 31.041V31.0498ZM104.703 34.0784V27.9947H108.684C110.582 27.9947 111.863 29.2238 111.863 31.0498C111.863 32.8757 110.582 34.0784 108.684 34.0784H104.703Z" fill="#FF9417"/>
<path d="M120.912 24.5535V45.5435H134.333V42.1022H124.77V24.5535H120.912Z" fill="#FF9417"/>
<path d="M194.827 27.9947V24.5535H181.206V45.5435H194.827V42.1022H185.056V36.677H193.382V33.2357H185.056V27.9947H194.827Z" fill="#FF9417"/>
<path d="M170.555 45.5435H175.014L169.762 36.756L169.91 36.7208C170.363 36.6243 170.773 36.5189 171.156 36.396C173.507 35.5357 174.918 33.4903 174.918 30.9268C174.918 27.1695 172.157 24.5447 168.203 24.5447H160.069V45.5259H163.953V37.0632H165.634L170.546 45.5259L170.555 45.5435ZM163.962 28.0299H167.942C169.762 28.0299 171.034 29.2238 171.034 30.9444C171.034 32.665 169.762 33.859 167.942 33.859H163.962V28.0386V28.0299Z" fill="#FF9417"/>
<path d="M211.541 45.5435H216L210.748 36.756L210.896 36.7208C211.349 36.6243 211.758 36.5189 212.142 36.396C214.493 35.5357 215.904 33.4903 215.904 30.9268C215.904 27.1695 213.143 24.5447 209.189 24.5447H201.055V45.5259H204.939V37.0632H206.62L211.532 45.5259L211.541 45.5435ZM204.939 28.0299H208.919C210.739 28.0299 212.011 29.2238 212.011 30.9444C212.011 32.665 210.739 33.859 208.919 33.859H204.939V28.0386V28.0299Z" fill="#FF9417"/>
<path d="M153.789 34.8685C153.789 31.278 153.789 28.6882 151.716 26.5989C150.184 25.0538 148.346 24.2988 146.099 24.2988C143.852 24.2988 141.988 25.0538 140.447 26.5989C138.4 28.6619 138.4 31.2077 138.4 34.728V35.3162C138.4 38.8365 138.4 41.3823 140.447 43.4453C141.979 44.9904 143.826 45.7454 146.099 45.7454C148.372 45.7454 150.184 44.9904 151.716 43.4453C153.789 41.356 153.789 38.7663 153.789 35.1757V34.8773V34.8685ZM148.842 41.1102C148.189 41.8739 147.214 42.2953 146.099 42.2953C144.984 42.2953 143.974 41.8652 143.321 41.1102C142.458 40.1533 142.276 39.0647 142.276 35.0265C142.276 30.9883 142.458 29.9085 143.321 28.9428C143.965 28.1878 144.984 27.7577 146.099 27.7577C147.214 27.7577 148.189 28.179 148.842 28.9428C149.661 29.8558 149.914 30.8215 149.914 35.0265C149.914 39.2315 149.661 40.1972 148.842 41.1102Z" fill="#FF9417"/>
<path d="M32.5554 33.5868C30.0384 36.1238 26.8595 37.5723 23.5761 37.9411L20.4756 44.8236C26.5286 45.2099 32.7209 43.0766 37.3456 38.4151C45.4278 30.2684 45.8633 17.346 38.6607 8.6814L33.8444 13.5361C38.4081 19.5056 37.9813 28.1264 32.5554 33.5956V33.5868Z" fill="#FF9417"/>
<path d="M7.11552 19.5319C7.71646 16.7842 9.06641 14.1769 11.1741 12.0436C16.6609 6.51301 25.3529 6.13552 31.2752 10.9024L36.0827 6.05651C27.4953 -1.37034 14.5359 -0.984069 6.39265 7.22409C2.27313 11.3764 0.148059 16.7754 0 22.227L7.11552 19.5407V19.5319Z" fill="#22E1C9"/>
<path d="M1.4458 26.3882L13.1163 30.2508L16.2952 42.9274L27.3996 17.425L1.4458 26.3882Z" fill="#424549"/>
</svg>
