<svg width="216" height="45" viewBox="0 0 216 45" fill="none" xmlns="http://www.w3.org/2000/svg">
<path d="M67.68 8.1642C68.2112 8.63825 68.4812 9.35811 68.4812 10.315C68.4812 11.6494 68.0109 12.5975 67.079 13.1593C66.1471 13.7212 64.8407 14.0021 63.1598 14.0109H59.3364V1.19385H62.6634C66.1645 1.19385 67.9238 2.28242 67.9238 4.45955C67.95 5.1443 67.7061 5.8027 67.2445 6.30309C66.7916 6.77715 66.2081 7.10196 65.5723 7.22487C66.3474 7.33899 67.079 7.6638 67.68 8.1642ZM61.7576 6.46111H63.2469C63.813 6.49623 64.3791 6.33821 64.8494 6.00462C65.2501 5.6798 65.4678 5.17941 65.4417 4.66146C65.4939 4.15229 65.2588 3.6519 64.832 3.37098C64.2311 3.08128 63.5692 2.95838 62.9073 3.00228H61.7663V6.46111H61.7576ZM65.2326 11.7635C65.7029 11.4914 65.9381 10.9822 65.9381 10.2184C65.9904 9.61269 65.7378 9.02452 65.2675 8.64703C64.7275 8.29588 64.083 8.12908 63.4385 8.1642H61.7663V12.1673H63.1772C63.8827 12.2112 64.5882 12.0707 65.2326 11.7635Z" fill="white"/>
<path d="M72.9234 12.1937C73.0279 12.3166 73.1846 12.3869 73.3501 12.3693C73.5417 12.3693 73.7246 12.3342 73.8988 12.2727L74.3952 13.9407C73.864 14.1602 73.2979 14.2743 72.723 14.2743C72.096 14.3182 71.4776 14.0812 71.0334 13.6334C70.6067 13.1067 70.3977 12.4395 70.4412 11.7723V0.272152L72.7927 0.00878906V11.6143C72.7753 11.8162 72.8189 12.0182 72.9147 12.1937H72.9234Z" fill="white"/>
<path d="M83.1045 5.30244C83.9058 6.21543 84.3064 7.47957 84.3064 9.09487C84.3238 10.0342 84.1409 10.956 83.7577 11.8075C83.4181 12.5625 82.8694 13.1946 82.1726 13.6335C81.441 14.0812 80.5875 14.3095 79.734 14.2831C78.297 14.2831 77.1735 13.8266 76.3635 12.9049C75.5535 11.9831 75.1442 10.7189 75.1442 9.09487C75.1268 8.16432 75.3097 7.24254 75.6929 6.391C76.0326 5.64481 76.5812 5.01274 77.278 4.5738C78.0183 4.12608 78.8718 3.89783 79.734 3.92417C81.1711 3.92417 82.2946 4.38066 83.0958 5.31121L83.1045 5.30244ZM77.6177 9.08609C77.6177 10.2449 77.7918 11.1052 78.1402 11.667C78.4799 12.2113 79.0808 12.5274 79.7166 12.4923C80.3524 12.5274 80.9533 12.2026 81.2843 11.6583C81.6327 11.1052 81.8068 10.2537 81.8068 9.10364C81.8068 7.95363 81.6327 7.10208 81.2843 6.54902C80.9533 6.01352 80.3611 5.69748 79.734 5.72382C78.3318 5.72382 77.6351 6.83872 77.6351 9.08609H77.6177Z" fill="white"/>
<path d="M92.1535 4.18739C92.6848 4.3893 93.1725 4.679 93.5993 5.05649L92.528 6.50499C92.2406 6.27674 91.9271 6.09238 91.5961 5.9607C91.2739 5.8378 90.9255 5.77635 90.5858 5.78513C89.1227 5.78513 88.3911 6.90881 88.3911 9.1474C88.3911 10.2799 88.5827 11.1051 88.9572 11.6055C89.3404 12.1058 89.9501 12.378 90.5771 12.3429C90.9081 12.3429 91.239 12.2902 91.5439 12.1673C91.8835 12.0093 92.2145 11.8161 92.5019 11.5791L93.5993 13.133C92.7196 13.8704 91.6048 14.2742 90.4552 14.2654C89.6017 14.283 88.7656 14.0723 88.0253 13.6509C87.3373 13.2295 86.7799 12.615 86.4402 11.8776C86.057 11.0261 85.8654 10.1043 85.8915 9.16496C85.8741 8.21685 86.057 7.27752 86.4402 6.4172C86.7799 5.66222 87.3286 5.02137 88.0166 4.57366C88.7395 4.12594 89.5756 3.89769 90.4291 3.91525C91.0126 3.91525 91.5961 4.00304 92.1448 4.19617L92.1535 4.18739Z" fill="white"/>
<path d="M95.3062 13.9934V0.263363L97.6577 0V14.0021H95.3062V13.9934ZM103.806 13.9934H101.107L97.7535 8.63831L101.011 4.18748H103.493L100.253 8.50663L103.798 13.9934H103.806Z" fill="white"/>
<path d="M111.653 5.07421L110.739 6.49637C110.042 5.97842 109.206 5.68872 108.344 5.66238C107.952 5.63605 107.56 5.73262 107.212 5.93453C106.968 6.08377 106.811 6.35591 106.82 6.64561C106.82 6.84752 106.872 7.04065 106.985 7.19867C107.151 7.38302 107.351 7.52348 107.586 7.61127C108.004 7.78685 108.431 7.92731 108.866 8.05021C109.729 8.23457 110.53 8.62083 111.218 9.17389C111.74 9.69184 112.019 10.4029 111.976 11.1403C112.01 12.0533 111.566 12.9224 110.8 13.4228C109.938 14.0022 108.91 14.2919 107.874 14.248C107.125 14.2568 106.384 14.1339 105.679 13.8793C105.052 13.6511 104.477 13.3087 103.98 12.861L105.174 11.509C105.905 12.1323 106.828 12.4835 107.786 12.4923C108.231 12.5098 108.675 12.4045 109.058 12.1762C109.354 12.0007 109.537 11.6846 109.537 11.3423C109.554 11.0964 109.493 10.8594 109.363 10.6487C109.197 10.4468 108.98 10.2888 108.736 10.1922C108.274 9.9991 107.804 9.84108 107.325 9.7094C106.506 9.53382 105.748 9.13878 105.13 8.56816C104.66 8.07655 104.407 7.40936 104.433 6.72462C104.425 6.19789 104.59 5.67994 104.904 5.24978C105.243 4.79329 105.705 4.44214 106.227 4.23144C106.846 3.97686 107.516 3.85396 108.187 3.86274C109.45 3.8364 110.678 4.25778 111.662 5.04787L111.653 5.07421Z" fill="white"/>
<path d="M118.29 14.0812C117.872 14.2041 117.437 14.2656 116.992 14.2656C116.182 14.3182 115.381 14.0198 114.798 13.4404C114.293 12.9049 114.066 12.106 114.066 11.0613V5.8994H112.542V4.16998H114.066V2.00162L116.418 1.7207V4.16998H118.673L118.438 5.88184H116.409V10.9999C116.374 11.3598 116.461 11.7285 116.653 12.0358C116.844 12.264 117.141 12.3781 117.437 12.3518C117.846 12.3342 118.247 12.2113 118.595 11.9831L119.422 13.5282C119.074 13.774 118.682 13.9671 118.273 14.09L118.29 14.0812Z" fill="white"/>
<path d="M126.555 4.047L126.146 6.34703C125.859 6.2768 125.571 6.24169 125.275 6.23291C124.753 6.20657 124.247 6.4436 123.917 6.8562C123.516 7.42682 123.246 8.08523 123.124 8.76998V13.9846H120.772V4.1699H122.819L123.037 6.10123C123.22 5.47794 123.568 4.91609 124.047 4.47716C124.474 4.10845 125.014 3.90654 125.58 3.91531C125.911 3.91531 126.233 3.95921 126.555 4.05577V4.047Z" fill="white"/>
<path d="M135.77 9.81464H129.665C129.752 10.7627 130.004 11.4475 130.396 11.8513C130.84 12.2727 131.433 12.4922 132.042 12.4658C132.452 12.4658 132.87 12.3956 133.253 12.2551C133.68 12.0883 134.089 11.8689 134.463 11.5967L135.439 12.9487C134.429 13.8002 133.157 14.2655 131.833 14.2655C130.353 14.2655 129.203 13.809 128.402 12.896C127.6 11.983 127.2 10.7364 127.191 9.14745C127.174 8.22568 127.348 7.30391 127.705 6.45237C128.01 5.69739 128.532 5.04776 129.194 4.58249C129.874 4.11721 130.684 3.88018 131.511 3.90652C132.87 3.90652 133.932 4.34546 134.681 5.21456C135.43 6.08366 135.805 7.30391 135.805 8.85775C135.831 8.98065 135.813 9.30547 135.77 9.82341V9.81464ZM133.488 8.16423C133.488 6.44359 132.852 5.58327 131.589 5.58327C131.058 5.55693 130.553 5.80274 130.239 6.22412C129.917 6.65428 129.726 7.33024 129.665 8.26957H133.488V8.16423Z" fill="white"/>
<path d="M145.35 12.2288C145.49 12.4219 145.681 12.5712 145.908 12.6502L145.411 14.2304C144.941 14.204 144.479 14.0636 144.061 13.8353C143.687 13.5895 143.408 13.2296 143.26 12.7994C142.955 13.2735 142.528 13.651 142.023 13.9055C141.501 14.1513 140.935 14.283 140.36 14.2742C139.515 14.3181 138.679 14.0197 138.06 13.4403C137.486 12.8609 137.181 12.0708 137.216 11.2544C137.163 10.2975 137.599 9.38447 138.365 8.82263C139.132 8.26079 140.229 7.97987 141.657 7.97109H142.868V7.41802C142.92 6.93519 142.763 6.45236 142.441 6.09243C142.032 5.81151 141.544 5.67983 141.048 5.72372C140.168 5.75884 139.297 5.93441 138.47 6.24167L137.921 4.62637C139.045 4.17866 140.238 3.93285 141.448 3.92407C143.939 3.92407 145.185 5.04776 145.185 7.29512V11.4124C145.167 11.7021 145.22 11.983 145.35 12.2376V12.2288ZM142.851 11.3334V9.3318H141.875C140.36 9.3318 139.602 9.90242 139.593 11.0349C139.567 11.4299 139.689 11.8337 139.942 12.141C140.212 12.4131 140.586 12.5624 140.969 12.5273C141.779 12.5273 142.511 12.062 142.859 11.3246H142.851V11.3334Z" fill="white"/>
<path d="M160.225 4.69674C160.722 5.31125 160.966 6.08379 160.931 6.87387V13.9759H158.579V7.25136C158.579 6.19791 158.222 5.67118 157.508 5.67996C157.142 5.67996 156.794 5.80286 156.524 6.04867C156.184 6.36471 155.897 6.74219 155.67 7.1548V13.9847H153.319V7.25136C153.319 6.19791 152.962 5.67118 152.248 5.67996C151.882 5.67996 151.525 5.80286 151.246 6.04867C150.906 6.37348 150.619 6.74219 150.393 7.1548V13.9847H148.041V4.17001H150.079L150.262 5.45171C150.872 4.47727 151.934 3.88909 153.075 3.88909C153.598 3.87153 154.103 4.02077 154.538 4.31925C154.965 4.61773 155.287 5.04789 155.453 5.5395C155.784 5.03911 156.219 4.61773 156.724 4.30169C157.221 4.01199 157.787 3.87153 158.362 3.88031C159.076 3.85398 159.764 4.14368 160.234 4.68796L160.225 4.69674Z" fill="white"/>
<path d="M72.9578 27.2493V23.808H59.3364V44.798H72.9578V41.3568H63.1947V35.9315H71.5121V32.4902H63.1947V27.2493H72.9578Z" fill="#FF9417"/>
<path d="M86.7188 37.4152L90.7686 44.7542H95.1668L88.6784 33.9914L88.7132 33.9212L94.7313 23.7642H90.3854L86.6055 30.7784L86.4923 30.5589L82.8605 23.7642H78.4884L84.5414 33.9914L84.4979 34.0617L78.0791 44.7542H82.4773L86.6055 37.2132L86.7188 37.4152Z" fill="#FF9417"/>
<path d="M115.712 30.3043C115.712 26.4767 112.908 23.808 108.884 23.808H100.845V44.7893H104.695V36.7918H108.884C112.908 36.7918 115.712 34.123 115.712 30.2955V30.3043ZM104.703 33.333V27.2493H108.684C110.582 27.2493 111.863 28.4783 111.863 30.3043C111.863 32.1303 110.582 33.333 108.684 33.333H104.703Z" fill="#FF9417"/>
<path d="M120.912 23.808V44.798H134.333V41.3568H124.77V23.808H120.912Z" fill="#FF9417"/>
<path d="M194.827 27.2493V23.808H181.206V44.798H194.827V41.3568H185.056V35.9315H193.382V32.4902H185.056V27.2493H194.827Z" fill="#FF9417"/>
<path d="M170.555 44.7981H175.014L169.762 36.0106L169.91 35.9755C170.363 35.8789 170.773 35.7736 171.156 35.6507C173.507 34.7903 174.918 32.7449 174.918 30.1815C174.918 26.4242 172.157 23.7993 168.203 23.7993H160.069V44.7806H163.953V36.3178H165.634L170.546 44.7806L170.555 44.7981ZM163.962 27.2845H167.942C169.762 27.2845 171.034 28.4784 171.034 30.199C171.034 31.9197 169.762 33.1136 167.942 33.1136H163.962V27.2933V27.2845Z" fill="#FF9417"/>
<path d="M211.541 44.7981H216L210.748 36.0106L210.896 35.9755C211.349 35.8789 211.758 35.7736 212.142 35.6507C214.493 34.7903 215.904 32.7449 215.904 30.1815C215.904 26.4242 213.143 23.7993 209.189 23.7993H201.055V44.7806H204.939V36.3178H206.62L211.532 44.7806L211.541 44.7981ZM204.939 27.2845H208.919C210.739 27.2845 212.011 28.4784 212.011 30.199C212.011 31.9197 210.739 33.1136 208.919 33.1136H204.939V27.2933V27.2845Z" fill="#FF9417"/>
<path d="M153.789 34.1231C153.789 30.5326 153.789 27.9429 151.716 25.8535C150.184 24.3084 148.346 23.5535 146.099 23.5535C143.852 23.5535 141.988 24.3084 140.447 25.8535C138.4 27.9165 138.4 30.4624 138.4 33.9827V34.5708C138.4 38.0911 138.4 40.637 140.447 42.7C141.979 44.245 143.826 45 146.099 45C148.372 45 150.184 44.245 151.716 42.7C153.789 40.6106 153.789 38.0209 153.789 34.4304V34.1319V34.1231ZM148.842 40.3648C148.189 41.1286 147.214 41.55 146.099 41.55C144.984 41.55 143.974 41.1198 143.321 40.3648C142.458 39.4079 142.276 38.3194 142.276 34.2811C142.276 30.2429 142.458 29.1631 143.321 28.1974C143.965 27.4425 144.984 27.0123 146.099 27.0123C147.214 27.0123 148.189 27.4337 148.842 28.1974C149.661 29.1104 149.914 30.0761 149.914 34.2811C149.914 38.4862 149.661 39.4518 148.842 40.3648Z" fill="#FF9417"/>
<path d="M32.5554 32.8414C30.0384 35.3785 26.8595 36.827 23.5761 37.1957L20.4756 44.0783C26.5286 44.4645 32.7209 42.3313 37.3456 37.6697C45.4278 29.523 45.8633 16.6007 38.6607 7.93604L33.8444 12.7907C38.4081 18.7603 37.9813 27.381 32.5554 32.8502V32.8414Z" fill="#FF9417"/>
<path d="M7.11552 18.7866C7.71646 16.0388 9.06641 13.4315 11.1741 11.2983C16.6609 5.76764 25.3528 5.39016 31.2752 10.157L36.0827 5.31115C27.4953 -2.1157 14.5359 -1.72943 6.39265 6.47872C2.27313 10.6311 0.148059 16.03 0 21.4817L7.11552 18.7953V18.7866Z" fill="#22E1C9"/>
<path d="M1.4458 25.6428L13.1163 29.5055L16.2952 42.182L27.3996 16.6797L1.4458 25.6428Z" fill="white"/>
</svg>
