<svg width="44" height="45" viewBox="0 0 44 45" fill="none" xmlns="http://www.w3.org/2000/svg">
<path d="M32.5554 32.8241C30.0384 35.3612 26.8595 36.8096 23.5761 37.1784L20.4756 44.0609C26.5286 44.4472 32.7209 42.3139 37.3456 37.6524C45.4278 29.5057 45.8633 16.5834 38.6607 7.9187L33.8444 12.7734C38.4081 18.7429 37.9813 27.3637 32.5554 32.8329V32.8241Z" fill="#FF9417"/>
<path d="M7.11552 18.7692C7.71646 16.0215 9.06641 13.4142 11.1741 11.2809C16.6609 5.75031 25.3529 5.37282 31.2752 10.1397L36.0827 5.29381C27.4953 -2.13303 14.5359 -1.74676 6.39265 6.46139C2.27313 10.6138 0.148059 16.0127 0 21.4643L7.11552 18.778V18.7692Z" fill="#22E1C9"/>
<path d="M1.4458 25.6255L13.1163 29.4881L16.2952 42.1647L27.3996 16.6624L1.4458 25.6255Z" fill="white"/>
</svg>
