<svg id="Layer_1" data-name="Layer 1" xmlns="http://www.w3.org/2000/svg" viewBox="0 0 22 22"><defs><style>.cls-1{fill:#a8b8c9;}</style></defs><title>testnet</title><g id="btc"><g id="Bitcoin"><g id="Shape"><path id="path-2" class="cls-1" d="M11,2.28h0a7.93,7.93,0,0,1,1.94.24A8,8,0,1,1,4.15,14.4,8,8,0,0,1,11,2.28m0-1A9,9,0,0,0,8.82,19a9.18,9.18,0,0,0,2.19.27A9,9,0,0,0,13.18,1.55,9.18,9.18,0,0,0,11,1.28Z"/></g><path id="Shape-2" data-name="Shape" class="cls-1" d="M14.63,9.09C14.79,8,14,7.39,12.8,7l.38-1.49-.91-.23-.36,1.45-.73-.17.36-1.46-.91-.23-.37,1.5-.58-.14h0L8.43,5.91l-.24,1s.67.16.66.17a.47.47,0,0,1,.42.52l-.42,1.7.09,0-.09,0-.6,2.38a.33.33,0,0,1-.41.22l-.66-.17-.46,1,1.19.3.64.17-.37,1.5.91.23.37-1.49.72.19-.37,1.48.91.23.38-1.51c1.55.29,2.71.18,3.2-1.22a1.6,1.6,0,0,0-.83-2.21A1.45,1.45,0,0,0,14.63,9.09ZM12.55,12c-.28,1.13-2.18.52-2.8.36l.5-2C10.87,10.52,12.84,10.82,12.55,12Zm.28-2.93c-.26,1-1.84.51-2.35.38l.45-1.81C11.45,7.76,13.1,8,12.83,9.07Z"/></g></g></svg>