<?xml version="1.0" encoding="UTF-8"?>
<svg width="60px" height="60px" viewBox="0 0 60 60" version="1.1" xmlns="http://www.w3.org/2000/svg" xmlns:xlink="http://www.w3.org/1999/xlink">
    <title>lbtc_test</title>
    <g id="lbtc_test" stroke="none" stroke-width="1" fill="none" fill-rule="evenodd">
        <g>
            <polygon id="Path" fill-opacity="0" fill="#D8D8D8" points="0 0 60 0 60 60 0 60"></polygon>
            <g id="Group" transform="translate(12.067598, 7.070479)" fill-rule="nonzero">
                <path d="M16.7788746,44.1315337 C9.50836893,43.8225372 2.85585627,38.8240646 0.801938429,32.0261418 C-0.78848468,26.7641134 0.0657997328,21.7474645 2.6650055,16.9125782 C4.64717012,13.5247108 7.13579243,10.459905 10.0445687,7.8244462 C12.4983644,5.42517934 15.0703057,3.12588193 17.3150744,0.553940556 C17.6785996,0.144974614 17.978508,-0.354872649 18.5692366,0.363089783 C21.4229101,3.72569864 24.8400477,6.54301958 27.8845719,9.72386579 C30.7998438,12.5631597 33.1092943,15.9639569 34.6734066,19.7208111 C37.9451341,28.4181534 35.182342,37.8243701 26.1941794,42.3866124 C23.3048262,43.8829358 20.0451773,44.5140391 16.806139,44.2042388 L16.7788746,44.1315337 Z" id="Path" fill="#5D6368"></path>
                <path d="M25.5943627,23.846823 C25.8670066,21.9746678 24.5583156,19.993455 22.0136386,19.1300825 L22.658896,16.4763479 L20.6504188,15.9855888 L20.0051615,18.5575301 L18.3874739,18.1849167 L19.0236432,15.5947991 L17.0060779,15.0949518 L16.3426442,17.7486864 L12.7073914,16.8398732 L12.198456,19.0210249 C12.198456,19.0210249 13.6889097,19.3663739 13.6616453,19.3845502 C14.2243767,19.4645429 14.6246958,19.972948 14.5704585,20.5387429 L12.3166017,29.4814649 C12.1909016,29.8584917 11.7886282,30.0676739 11.4077885,29.9540477 C11.4077885,29.9540477 9.94459927,29.5905225 9.94459927,29.5905225 L8.94490475,31.8625555 L12.5801576,32.7713687 L11.853107,35.6704828 L13.8615842,36.1612419 L14.5795466,33.2984803 L16.188146,33.7074463 L15.4701836,36.5520316 L17.4786607,37.0518789 L18.2057113,34.1618529 C21.6410252,34.7980221 24.2584073,33.9255614 24.8945765,31.3808845 C25.4126,29.2997022 24.9491053,27.7456317 23.4495635,26.6641439 C24.6235183,26.2108567 25.4424044,25.1354097 25.5670983,23.8831755 L25.5943627,23.846823 Z M21.4683507,30.0631053 C20.8503577,32.5350772 16.6425526,31.1991218 15.2793328,30.8719491 L16.3699086,26.4914694 C17.7331284,26.8277303 22.1136081,27.491164 21.4683507,30.0631053 Z M22.0863437,23.7014129 C21.5137914,25.9461815 18.0148605,24.810165 16.8697559,24.5284329 L17.8694504,20.5660073 C19.0236432,20.8386513 22.658896,21.3203223 22.0863437,23.6650604 L22.0863437,23.7014129 Z" id="Shape" fill="#FFFFFF"></path>
            </g>
        </g>
    </g>
</svg>